<?xml version="1.0" standalone="no"?>
<!DOCTYPE svg PUBLIC "-//W3C//DTD SVG 1.1//EN" "http://www.w3.org/Graphics/SVG/1.1/DTD/svg11.dtd" >
<svg xmlns="http://www.w3.org/2000/svg" xmlns:xlink="http://www.w3.org/1999/xlink" version="1.1">
<metadata>
Created by FontForge 20170731 at Tue Dec 29 15:42:27 2020
 By Aleksey,,,
Copyright (c) 2014 by AbdoFonts. All rights reserved.
</metadata>
<defs>
<font id="AbdoLine-Bold" horiz-adv-x="0" >
  <font-face 
    font-family="AbdoLine-Bold"
    font-weight="400"
    font-stretch="normal"
    units-per-em="2048"
    panose-1="2 0 5 0 3 0 0 2 0 4"
    ascent="1483"
    descent="-565"
    bbox="-505 -818 13683 2149"
    underline-thickness="150"
    underline-position="-275"
    unicode-range="U+0020-FEFA"
  />
<missing-glyph horiz-adv-x="1616" 
d="M295 997h-57v-129h-101v399h259v-399h-101v129zM1338 -109h-101v237h-57v-237h-101v237h-58v-237h-101v289h418v-289zM451 1267h101v-109h158v-290h-259v399zM1024 868h-259v290h158v109h101v-399zM1338 868h-259v290h259v-290zM642 319h-260v290h260v-290zM866 -109
h-260v289h260v-289zM956 319h-101v238h-58v-238h-101v290h260v-290zM292 180h260v-93h-101v41h-58v-185h58v41h101v-93h-260v289zM1322 557v-65h158v-173h-259v52h158v69h-158v169h259v-52h-158zM238 448v-129h-101v399h204v-52h-103v-166h103v-52h-103zM1111 557v-238h-101
v399h101v-109h69v-52h-69zM866 920h57v186h-57v-186zM483 371h58v186h-58v-186zM552 920h57v186h-57v-186zM707 -57h58v185h-58v-185zM1180 920h57v186h-57v-186zM238 1049h57v166h-57v-166zM238 -109h-101v79h101v-79z" />
    <glyph glyph-name="hmzyehf" unicode="&#xfe8c;&#xfef2;" horiz-adv-x="1512" 
d="M724 -71q-18 7 -35 15t-17 31q0 24 2 39q4 30 7 45q1 7 3.5 21t4.5 22q5 23 10 29q17 33 61 82q41 45 106 97q60 48 128 82t128 34q74 0 126 -66l109 -142h156v-218h-183q-30 0 -42 15q-4 5 -12 14.5t-12 14.5l-117 153q-12 20 -36 28q-21 7 -46 7q-37 0 -77 -15
q-49 -18 -79 -35q-40 -22 -71 -45q-25 -18 -52 -41q56 -15 116 -22q18 -2 130 -18q64 -9 107 -27t43 -54q0 -15 -9 -51q-8 -31 -25 -74q-18 -44 -30 -70q-15 -31 -23 -39q-43 -43 -102 -76q-60 -34 -136 -60q-78 -27 -155 -41q-83 -15 -161 -15t-151 17q-71 17 -125 54
t-86 99q-32 61 -32 147q0 89 35 200t97 229q7 16 27 16q11 0 11 -11q0 -14 -6 -21q-26 -62 -47 -136q-18 -65 -18 -118q0 -71 30 -122q29 -50 79 -80q51 -31 115 -44q68 -14 139 -14q123 0 246 33q124 33 202 82q-132 15 -183 20q-88 9 -150 29zM364 -677l123 114l106 -97
l105 97l123 -114l-123 -113l-105 97l-106 -97zM1122 830q-54 0 -117 -12q-64 -12 -107 -64q6 42 25 68q20 27 44 44q-71 38 -71 98q0 31 16 59q17 30 41 52t56 36q33 14 64 14q29 0 52 -12q22 -12 22 -37q0 -16 -6 -27l-30 -63q-6 -11 -8 -11q-3 -3 -3 0q-7 0 -10 7
q-1 4 -9 13q-5 6 -16 14q-10 7 -36 7q-13 0 -35 -6t-38 -16q30 -44 91 -53q68 -10 122 -10q16 0 16 -11q0 -8 -3 -11z" />
    <glyph glyph-name="behyehf" unicode="&#xfe92;&#xfef2;" horiz-adv-x="1512" 
d="M724 -71q-18 7 -35 15t-17 31q0 24 2 39q4 30 7 45q1 7 3.5 21t4.5 22q5 23 10 29q17 33 61 82q41 45 106 97q60 48 128 82t128 34q74 0 126 -66l109 -142h156v-218h-183q-30 0 -42 15q-4 5 -12 14.5t-12 14.5l-117 153q-12 20 -36 28q-21 7 -46 7q-37 0 -77 -15
q-49 -18 -79 -35q-40 -22 -71 -45q-25 -18 -52 -41q56 -15 116 -22q18 -2 130 -18q64 -9 107 -27t43 -54q0 -15 -9 -51q-8 -31 -25 -74q-18 -44 -30 -70q-15 -31 -23 -39q-43 -43 -102 -76q-60 -34 -136 -60q-78 -27 -155 -41q-83 -15 -161 -15t-151 17q-71 17 -125 54
t-86 99q-32 61 -32 147q0 89 35 200t97 229q7 16 27 16q11 0 11 -11q0 -14 -6 -21q-26 -62 -47 -136q-18 -65 -18 -118q0 -71 30 -122q29 -50 79 -80q51 -31 115 -44q68 -14 139 -14q123 0 246 33q124 33 202 82q-132 15 -183 20q-88 9 -150 29zM364 -677l123 114l106 -97
l105 97l123 -114l-123 -113l-105 97l-106 -97zM1221 -273l142 128l142 -128l-142 -131z" />
    <glyph glyph-name="tehyehf" unicode="&#xfe98;&#xfef2;" horiz-adv-x="1512" 
d="M724 -71q-18 7 -35 15t-17 31q0 24 2 39q4 30 7 45q1 7 3.5 21t4.5 22q5 23 10 29q17 33 61 82q41 45 106 97q60 48 128 82t128 34q74 0 126 -66l109 -142h156v-218h-183q-30 0 -42 15q-4 5 -12 14.5t-12 14.5l-117 153q-12 20 -36 28q-21 7 -46 7q-37 0 -77 -15
q-49 -18 -79 -35q-40 -22 -71 -45q-25 -18 -52 -41q56 -15 116 -22q18 -2 130 -18q64 -9 107 -27t43 -54q0 -15 -9 -51q-8 -31 -25 -74q-18 -44 -30 -70q-15 -31 -23 -39q-43 -43 -102 -76q-60 -34 -136 -60q-78 -27 -155 -41q-83 -15 -161 -15t-151 17q-71 17 -125 54
t-86 99q-32 61 -32 147q0 89 35 200t97 229q7 16 27 16q11 0 11 -11q0 -14 -6 -21q-26 -62 -47 -136q-18 -65 -18 -118q0 -71 30 -122q29 -50 79 -80q51 -31 115 -44q68 -14 139 -14q123 0 246 33q124 33 202 82q-132 15 -183 20q-88 9 -150 29zM789 961l137 134l117 -115
l118 115l136 -134l-136 -134l-118 115l-117 -115zM364 -677l123 114l106 -97l105 97l123 -114l-123 -113l-105 97l-106 -97z" />
    <glyph glyph-name="thehyehf" unicode="&#xfe9c;&#xfef2;" horiz-adv-x="1512" 
d="M724 -71q-18 7 -35 15t-17 31q0 24 2 39q4 30 7 45q1 7 3.5 21t4.5 22q5 23 10 29q17 33 61 82q41 45 106 97q60 48 128 82t128 34q74 0 126 -66l109 -142h156v-218h-183q-30 0 -42 15q-4 5 -12 14.5t-12 14.5l-117 153q-12 20 -36 28q-21 7 -46 7q-37 0 -77 -15
q-49 -18 -79 -35q-40 -22 -71 -45q-25 -18 -52 -41q56 -15 116 -22q18 -2 130 -18q64 -9 107 -27t43 -54q0 -15 -9 -51q-8 -31 -25 -74q-18 -44 -30 -70q-15 -31 -23 -39q-43 -43 -102 -76q-60 -34 -136 -60q-78 -27 -155 -41q-83 -15 -161 -15t-151 17q-71 17 -125 54
t-86 99q-32 61 -32 147q0 89 35 200t97 229q7 16 27 16q11 0 11 -11q0 -14 -6 -21q-26 -62 -47 -136q-18 -65 -18 -118q0 -71 30 -122q29 -50 79 -80q51 -31 115 -44q68 -14 139 -14q123 0 246 33q124 33 202 82q-132 15 -183 20q-88 9 -150 29zM792 814l128 125l112 -109
l112 109l128 -125l-128 -120l-112 101l-112 -101zM901 1027l131 120l129 -120l-129 -126zM364 -677l123 114l106 -97l105 97l123 -114l-123 -113l-105 97l-106 -97z" />
    <glyph glyph-name="noonyehf" unicode="&#xfee8;&#xfef2;" horiz-adv-x="1512" 
d="M724 -71q-18 7 -35 15t-17 31q0 24 2 39q4 30 7 45q1 7 3.5 21t4.5 22q5 23 10 29q17 33 61 82q41 45 106 97q60 48 128 82t128 34q74 0 126 -66l109 -142h156v-218h-183q-30 0 -42 15q-4 5 -12 14.5t-12 14.5l-117 153q-12 20 -36 28q-21 7 -46 7q-37 0 -77 -15
q-49 -18 -79 -35q-40 -22 -71 -45q-25 -18 -52 -41q56 -15 116 -22q18 -2 130 -18q64 -9 107 -27t43 -54q0 -15 -9 -51q-8 -31 -25 -74q-18 -44 -30 -70q-15 -31 -23 -39q-43 -43 -102 -76q-60 -34 -136 -60q-78 -27 -155 -41q-83 -15 -161 -15t-151 17q-71 17 -125 54
t-86 99q-32 61 -32 147q0 89 35 200t97 229q7 16 27 16q11 0 11 -11q0 -14 -6 -21q-26 -62 -47 -136q-18 -65 -18 -118q0 -71 30 -122q29 -50 79 -80q51 -31 115 -44q68 -14 139 -14q123 0 246 33q124 33 202 82q-132 15 -183 20q-88 9 -150 29zM901 956l142 128l142 -128
l-142 -131zM364 -677l123 114l106 -97l105 97l123 -114l-123 -113l-105 97l-106 -97z" />
    <glyph glyph-name="yehyehf" unicode="&#xfef4;&#xfef2;" horiz-adv-x="1512" 
d="M724 -71q-18 7 -35 15t-17 31q0 24 2 39q4 30 7 45q1 7 3.5 21t4.5 22q5 23 10 29q17 33 61 82q41 45 106 97q60 48 128 82t128 34q74 0 126 -66l109 -142h156v-218h-183q-30 0 -42 15q-4 5 -12 14.5t-12 14.5l-117 153q-12 20 -36 28q-21 7 -46 7q-37 0 -77 -15
q-49 -18 -79 -35q-40 -22 -71 -45q-25 -18 -52 -41q56 -15 116 -22q18 -2 130 -18q64 -9 107 -27t43 -54q0 -15 -9 -51q-8 -31 -25 -74q-18 -44 -30 -70q-15 -31 -23 -39q-43 -43 -102 -76q-60 -34 -136 -60q-78 -27 -155 -41q-83 -15 -161 -15t-151 17q-71 17 -125 54
t-86 99q-32 61 -32 147q0 89 35 200t97 229q7 16 27 16q11 0 11 -11q0 -14 -6 -21q-26 -62 -47 -136q-18 -65 -18 -118q0 -71 30 -122q29 -50 79 -80q51 -31 115 -44q68 -14 139 -14q123 0 246 33q124 33 202 82q-132 15 -183 20q-88 9 -150 29zM1191 -483l103 101l-103 103
l131 129l128 -129l-104 -103l104 -101l-128 -131zM364 -677l123 114l106 -97l105 97l123 -114l-123 -113l-105 97l-106 -97z" />
    <glyph glyph-name="ttehyehf" unicode="&#xfb69;&#xfef2;" horiz-adv-x="1512" 
d="M724 -71q-18 7 -35 15t-17 31q0 24 2 39q4 30 7 45q1 7 3.5 21t4.5 22q5 23 10 29q17 33 61 82q41 45 106 97q60 48 128 82t128 34q74 0 126 -66l109 -142h156v-218h-183q-30 0 -42 15q-4 5 -12 14.5t-12 14.5l-117 153q-12 20 -36 28q-21 7 -46 7q-37 0 -77 -15
q-49 -18 -79 -35q-40 -22 -71 -45q-25 -18 -52 -41q56 -15 116 -22q18 -2 130 -18q64 -9 107 -27t43 -54q0 -15 -9 -51q-8 -31 -25 -74q-18 -44 -30 -70q-15 -31 -23 -39q-43 -43 -102 -76q-60 -34 -136 -60q-78 -27 -155 -41q-83 -15 -161 -15t-151 17q-71 17 -125 54
t-86 99q-32 61 -32 147q0 89 35 200t97 229q7 16 27 16q11 0 11 -11q0 -14 -6 -21q-26 -62 -47 -136q-18 -65 -18 -118q0 -71 30 -122q29 -50 79 -80q51 -31 115 -44q68 -14 139 -14q123 0 246 33q124 33 202 82q-132 15 -183 20q-88 9 -150 29zM991 784l-33 215
q-19 10 -19 28l39 79q17 -36 41 -47q25 -11 35 -24q0 -4 -11 -34q-15 -41 -16 -43l-14 9q3 -33 7 -48q4 -16 4 -53v-36q0 -19 -5 -30l106 68q28 17 52 17q21 0 40 -11q17 -10 30 -26q10 -12 17 -30q6 -15 6 -21t-10 -24q-6 -11 -20 -33q-4 -6 -11.5 -16t-9.5 -14l-9 -14
q-1 -1 -3.5 -3t-3.5 -3.5t-2 -2.5q-3 -4 -16 -4h-197q-35 0 -50 2q-21 3 -45 17l-74 46q-8 3 -8 14q0 8 14 8q7 0 32 -5q30 -6 96 -6zM1010 759h200q-10 21 -32 40q-20 17 -48 17q-19 0 -38 -10zM364 -677l123 114l106 -97l105 97l123 -114l-123 -113l-105 97l-106 -97z" />
    <glyph glyph-name="pehyehf" unicode="&#xfb59;&#xfef2;" horiz-adv-x="1512" 
d="M724 -71q-18 7 -35 15t-17 31q0 24 2 39q4 30 7 45q1 7 3.5 21t4.5 22q5 23 10 29q17 33 61 82q41 45 106 97q60 48 128 82t128 34q74 0 126 -66l109 -142h156v-218h-183q-30 0 -42 15q-4 5 -12 14.5t-12 14.5l-117 153q-12 20 -36 28q-21 7 -46 7q-37 0 -77 -15
q-49 -18 -79 -35q-40 -22 -71 -45q-25 -18 -52 -41q56 -15 116 -22q18 -2 130 -18q64 -9 107 -27t43 -54q0 -15 -9 -51q-8 -31 -25 -74q-18 -44 -30 -70q-15 -31 -23 -39q-43 -43 -102 -76q-60 -34 -136 -60q-78 -27 -155 -41q-83 -15 -161 -15t-151 17q-71 17 -125 54
t-86 99q-32 61 -32 147q0 89 35 200t97 229q7 16 27 16q11 0 11 -11q0 -14 -6 -21q-26 -62 -47 -136q-18 -65 -18 -118q0 -71 30 -122q29 -50 79 -80q51 -31 115 -44q68 -14 139 -14q123 0 246 33q124 33 202 82q-132 15 -183 20q-88 9 -150 29zM1185 -628l101 98l101 -98
l115 112l-115 106l-101 -92l-101 92l-115 -106zM1286 -437l115 109l-115 110l-115 -110zM364 -677l123 114l106 -97l105 97l123 -114l-123 -113l-105 97l-106 -97z" />
    <glyph glyph-name="hmzyehhmzf" unicode="&#xfe8c;&#xfe8a;" horiz-adv-x="1512" 
d="M724 -71q-18 7 -35 15t-17 31q0 24 2 39q4 30 7 45q1 7 3.5 21t4.5 22q5 23 10 29q17 33 61 82q41 45 106 97q60 48 128 82t128 34q74 0 126 -66l109 -142h156v-218h-183q-30 0 -42 15q-4 5 -12 14.5t-12 14.5l-117 153q-12 20 -36 28q-21 7 -46 7q-37 0 -77 -15
q-49 -18 -79 -35q-40 -22 -71 -45q-25 -18 -52 -41q56 -15 116 -22q18 -2 130 -18q64 -9 107 -27t43 -54q0 -15 -9 -51q-8 -31 -25 -74q-18 -44 -30 -70q-15 -31 -23 -39q-43 -43 -102 -76q-60 -34 -136 -60q-78 -27 -155 -41q-83 -15 -161 -15t-151 17q-71 17 -125 54
t-86 99q-32 61 -32 147q0 89 35 200t97 229q7 16 27 16q11 0 11 -11q0 -14 -6 -21q-26 -62 -47 -136q-18 -65 -18 -118q0 -71 30 -122q29 -50 79 -80q51 -31 115 -44q68 -14 139 -14q123 0 246 33q124 33 202 82q-132 15 -183 20q-88 9 -150 29zM404 612q-49 0 -117 -13
q-64 -12 -107 -64q6 42 25 68q21 29 43 44q-71 38 -71 98q0 30 17 59q17 30 41 52q26 24 56 37q33 14 64 14q28 0 52 -13q22 -12 22 -37q0 -17 -6 -27l-30 -63q-6 -11 -8 -11q-3 -3 -3 0q-8 0 -11 7q-3 8 -8 14t-16 14q-8 6 -36 6q-16 0 -35 -5q-22 -6 -38 -16
q31 -45 91 -54q61 -9 122 -9q16 0 16 -11q0 -8 -3 -11zM1117 830q-55 0 -118 -12t-106 -64q6 44 24 68q20 27 44 44q-71 38 -71 98q0 30 17 59q17 30 41 52t56 36q33 14 64 14q30 0 52 -12q21 -11 21 -37q0 -18 -5 -27l-30 -63q-6 -11 -8 -11q-3 -3 -3 0q-8 0 -11 7
q-2 6 -8 13q-3 4 -17 14q-10 7 -35 7q-14 0 -36 -6t-38 -16q30 -44 92 -53q68 -10 121 -10q17 0 17 -11q0 -8 -3 -11z" />
    <glyph glyph-name="behyehhmzf" unicode="&#xfe92;&#xfe8a;" horiz-adv-x="1512" 
d="M724 -71q-18 7 -35 15t-17 31q0 24 2 39q4 30 7 45q1 7 3.5 21t4.5 22q5 23 10 29q17 33 61 82q41 45 106 97q60 48 128 82t128 34q74 0 126 -66l109 -142h156v-218h-183q-30 0 -42 15q-4 5 -12 14.5t-12 14.5l-117 153q-12 20 -36 28q-21 7 -46 7q-37 0 -77 -15
q-49 -18 -79 -35q-40 -22 -71 -45q-25 -18 -52 -41q56 -15 116 -22q18 -2 130 -18q64 -9 107 -27t43 -54q0 -15 -9 -51q-8 -31 -25 -74q-18 -44 -30 -70q-15 -31 -23 -39q-43 -43 -102 -76q-60 -34 -136 -60q-78 -27 -155 -41q-83 -15 -161 -15t-151 17q-71 17 -125 54
t-86 99q-32 61 -32 147q0 89 35 200t97 229q7 16 27 16q11 0 11 -11q0 -14 -6 -21q-26 -62 -47 -136q-18 -65 -18 -118q0 -71 30 -122q29 -50 79 -80q51 -31 115 -44q68 -14 139 -14q123 0 246 33q124 33 202 82q-132 15 -183 20q-88 9 -150 29zM1193 -273l142 128l142 -128
l-142 -131zM404 612q-49 0 -117 -13q-64 -12 -107 -64q6 42 25 68q21 29 43 44q-71 38 -71 98q0 30 17 59q17 30 41 52q26 24 56 37q33 14 64 14q28 0 52 -13q22 -12 22 -37q0 -17 -6 -27l-30 -63q-6 -11 -8 -11q-3 -3 -3 0q-8 0 -11 7q-3 8 -8 14t-16 14q-8 6 -36 6
q-16 0 -35 -5q-22 -6 -38 -16q31 -45 91 -54q61 -9 122 -9q16 0 16 -11q0 -8 -3 -11z" />
    <glyph glyph-name="tehyehhmzf" unicode="&#xfe98;&#xfe8a;" horiz-adv-x="1512" 
d="M724 -71q-18 7 -35 15t-17 31q0 24 2 39q4 30 7 45q1 7 3.5 21t4.5 22q5 23 10 29q17 33 61 82q41 45 106 97q60 48 128 82t128 34q74 0 126 -66l109 -142h156v-218h-183q-30 0 -42 15q-4 5 -12 14.5t-12 14.5l-117 153q-12 20 -36 28q-21 7 -46 7q-37 0 -77 -15
q-49 -18 -79 -35q-40 -22 -71 -45q-25 -18 -52 -41q56 -15 116 -22q18 -2 130 -18q64 -9 107 -27t43 -54q0 -15 -9 -51q-8 -31 -25 -74q-18 -44 -30 -70q-15 -31 -23 -39q-43 -43 -102 -76q-60 -34 -136 -60q-78 -27 -155 -41q-83 -15 -161 -15t-151 17q-71 17 -125 54
t-86 99q-32 61 -32 147q0 89 35 200t97 229q7 16 27 16q11 0 11 -11q0 -14 -6 -21q-26 -62 -47 -136q-18 -65 -18 -118q0 -71 30 -122q29 -50 79 -80q51 -31 115 -44q68 -14 139 -14q123 0 246 33q124 33 202 82q-132 15 -183 20q-88 9 -150 29zM792 961l136 134l118 -115
l117 115l137 -134l-137 -134l-117 115l-118 -115zM404 612q-49 0 -117 -13q-64 -12 -107 -64q6 42 25 68q21 29 43 44q-71 38 -71 98q0 30 17 59q17 30 41 52q26 24 56 37q33 14 64 14q28 0 52 -13q22 -12 22 -37q0 -17 -6 -27l-30 -63q-6 -11 -8 -11q-3 -3 -3 0q-8 0 -11 7
q-3 8 -8 14t-16 14q-8 6 -36 6q-16 0 -35 -5q-22 -6 -38 -16q31 -45 91 -54q61 -9 122 -9q16 0 16 -11q0 -8 -3 -11z" />
    <glyph glyph-name="thehyehhmzf" unicode="&#xfe9c;&#xfe8a;" horiz-adv-x="1512" 
d="M724 -71q-18 7 -35 15t-17 31q0 24 2 39q4 30 7 45q1 7 3.5 21t4.5 22q5 23 10 29q17 33 61 82q41 45 106 97q60 48 128 82t128 34q74 0 126 -66l109 -142h156v-218h-183q-30 0 -42 15q-4 5 -12 14.5t-12 14.5l-117 153q-12 20 -36 28q-21 7 -46 7q-37 0 -77 -15
q-49 -18 -79 -35q-40 -22 -71 -45q-25 -18 -52 -41q56 -15 116 -22q18 -2 130 -18q64 -9 107 -27t43 -54q0 -15 -9 -51q-8 -31 -25 -74q-18 -44 -30 -70q-15 -31 -23 -39q-43 -43 -102 -76q-60 -34 -136 -60q-78 -27 -155 -41q-83 -15 -161 -15t-151 17q-71 17 -125 54
t-86 99q-32 61 -32 147q0 89 35 200t97 229q7 16 27 16q11 0 11 -11q0 -14 -6 -21q-26 -62 -47 -136q-18 -65 -18 -118q0 -71 30 -122q29 -50 79 -80q51 -31 115 -44q68 -14 139 -14q123 0 246 33q124 33 202 82q-132 15 -183 20q-88 9 -150 29zM797 814l129 125l112 -109
l112 109l128 -125l-128 -120l-112 101l-112 -101zM907 1027l131 120l128 -120l-128 -126zM404 612q-49 0 -117 -13q-64 -12 -107 -64q6 42 25 68q21 29 43 44q-71 38 -71 98q0 30 17 59q17 30 41 52q26 24 56 37q33 14 64 14q28 0 52 -13q22 -12 22 -37q0 -17 -6 -27
l-30 -63q-6 -11 -8 -11q-3 -3 -3 0q-8 0 -11 7q-3 8 -8 14t-16 14q-8 6 -36 6q-16 0 -35 -5q-22 -6 -38 -16q31 -45 91 -54q61 -9 122 -9q16 0 16 -11q0 -8 -3 -11z" />
    <glyph glyph-name="noonyehhmzf" unicode="&#xfee8;&#xfe8a;" horiz-adv-x="1512" 
d="M724 -71q-18 7 -35 15t-17 31q0 24 2 39q4 30 7 45q1 7 3.5 21t4.5 22q5 23 10 29q17 33 61 82q41 45 106 97q60 48 128 82t128 34q74 0 126 -66l109 -142h156v-218h-183q-30 0 -42 15q-4 5 -12 14.5t-12 14.5l-117 153q-12 20 -36 28q-21 7 -46 7q-37 0 -77 -15
q-49 -18 -79 -35q-40 -22 -71 -45q-25 -18 -52 -41q56 -15 116 -22q18 -2 130 -18q64 -9 107 -27t43 -54q0 -15 -9 -51q-8 -31 -25 -74q-18 -44 -30 -70q-15 -31 -23 -39q-43 -43 -102 -76q-60 -34 -136 -60q-78 -27 -155 -41q-83 -15 -161 -15t-151 17q-71 17 -125 54
t-86 99q-32 61 -32 147q0 89 35 200t97 229q7 16 27 16q11 0 11 -11q0 -14 -6 -21q-26 -62 -47 -136q-18 -65 -18 -118q0 -71 30 -122q29 -50 79 -80q51 -31 115 -44q68 -14 139 -14q123 0 246 33q124 33 202 82q-132 15 -183 20q-88 9 -150 29zM893 956l142 128l142 -128
l-142 -131zM404 612q-49 0 -117 -13q-64 -12 -107 -64q6 42 25 68q21 29 43 44q-71 38 -71 98q0 30 17 59q17 30 41 52q26 24 56 37q33 14 64 14q28 0 52 -13q22 -12 22 -37q0 -17 -6 -27l-30 -63q-6 -11 -8 -11q-3 -3 -3 0q-8 0 -11 7q-3 8 -8 14t-16 14q-8 6 -36 6
q-16 0 -35 -5q-22 -6 -38 -16q31 -45 91 -54q61 -9 122 -9q16 0 16 -11q0 -8 -3 -11z" />
    <glyph glyph-name="yehyehhmzf" unicode="&#xfef4;&#xfe8a;" horiz-adv-x="1512" 
d="M724 -71q-18 7 -35 15t-17 31q0 24 2 39q4 30 7 45q1 7 3.5 21t4.5 22q5 23 10 29q17 33 61 82q41 45 106 97q60 48 128 82t128 34q74 0 126 -66l109 -142h156v-218h-183q-30 0 -42 15q-4 5 -12 14.5t-12 14.5l-117 153q-12 20 -36 28q-21 7 -46 7q-37 0 -77 -15
q-49 -18 -79 -35q-40 -22 -71 -45q-25 -18 -52 -41q56 -15 116 -22q18 -2 130 -18q64 -9 107 -27t43 -54q0 -15 -9 -51q-8 -31 -25 -74q-18 -44 -30 -70q-15 -31 -23 -39q-43 -43 -102 -76q-60 -34 -136 -60q-78 -27 -155 -41q-83 -15 -161 -15t-151 17q-71 17 -125 54
t-86 99q-32 61 -32 147q0 89 35 200t97 229q7 16 27 16q11 0 11 -11q0 -14 -6 -21q-26 -62 -47 -136q-18 -65 -18 -118q0 -71 30 -122q29 -50 79 -80q51 -31 115 -44q68 -14 139 -14q123 0 246 33q124 33 202 82q-132 15 -183 20q-88 9 -150 29zM404 612q-49 0 -117 -13
q-64 -12 -107 -64q6 42 25 68q21 29 43 44q-71 38 -71 98q0 30 17 59q17 30 41 52q26 24 56 37q33 14 64 14q28 0 52 -13q22 -12 22 -37q0 -17 -6 -27l-30 -63q-6 -11 -8 -11q-3 -3 -3 0q-8 0 -11 7q-3 8 -8 14t-16 14q-8 6 -36 6q-16 0 -35 -5q-22 -6 -38 -16
q31 -45 91 -54q61 -9 122 -9q16 0 16 -11q0 -8 -3 -11zM1191 -483l103 101l-103 103l131 129l128 -129l-104 -103l104 -101l-128 -131z" />
    <glyph glyph-name="ttehyehhmzf" unicode="&#xfb69;&#xfe8a;" horiz-adv-x="1512" 
d="M724 -71q-18 7 -35 15t-17 31q0 24 2 39q4 30 7 45q1 7 3.5 21t4.5 22q5 23 10 29q17 33 61 82q41 45 106 97q60 48 128 82t128 34q74 0 126 -66l109 -142h156v-218h-183q-30 0 -42 15q-4 5 -12 14.5t-12 14.5l-117 153q-12 20 -36 28q-21 7 -46 7q-37 0 -77 -15
q-49 -18 -79 -35q-40 -22 -71 -45q-25 -18 -52 -41q56 -15 116 -22q18 -2 130 -18q64 -9 107 -27t43 -54q0 -15 -9 -51q-8 -31 -25 -74q-18 -44 -30 -70q-15 -31 -23 -39q-43 -43 -102 -76q-60 -34 -136 -60q-78 -27 -155 -41q-83 -15 -161 -15t-151 17q-71 17 -125 54
t-86 99q-32 61 -32 147q0 89 35 200t97 229q7 16 27 16q11 0 11 -11q0 -14 -6 -21q-26 -62 -47 -136q-18 -65 -18 -118q0 -71 30 -122q29 -50 79 -80q51 -31 115 -44q68 -14 139 -14q123 0 246 33q124 33 202 82q-132 15 -183 20q-88 9 -150 29zM991 784l-33 215
q-19 10 -19 28l39 79q17 -36 41 -47q25 -11 35 -24q0 -4 -11 -34q-15 -41 -16 -43l-14 9q3 -33 7 -48q4 -16 4 -53v-36q0 -19 -5 -30l106 68q28 17 52 17q21 0 40 -11q17 -10 30 -26q10 -12 17 -30q6 -15 6 -21t-10 -24q-6 -11 -20 -33q-4 -6 -11.5 -16t-9.5 -14l-9 -14
q-1 -1 -3.5 -3t-3.5 -3.5t-2 -2.5q-3 -4 -16 -4h-197q-35 0 -50 2q-21 3 -45 17l-74 46q-8 3 -8 14q0 8 14 8q7 0 32 -5q30 -6 96 -6zM1010 759h200q-10 21 -32 40q-20 17 -48 17q-19 0 -38 -10zM404 612q-49 0 -117 -13q-64 -12 -107 -64q6 42 25 68q21 29 43 44
q-71 38 -71 98q0 30 17 59q17 30 41 52q26 24 56 37q33 14 64 14q28 0 52 -13q22 -12 22 -37q0 -17 -6 -27l-30 -63q-6 -11 -8 -11q-3 -3 -3 0q-8 0 -11 7q-3 8 -8 14t-16 14q-8 6 -36 6q-16 0 -35 -5q-22 -6 -38 -16q31 -45 91 -54q61 -9 122 -9q16 0 16 -11q0 -8 -3 -11z
" />
    <glyph glyph-name="pehyehhmzf" unicode="&#xfb59;&#xfe8a;" horiz-adv-x="1512" 
d="M724 -71q-18 7 -35 15t-17 31q0 24 2 39q4 30 7 45q1 7 3.5 21t4.5 22q5 23 10 29q17 33 61 82q41 45 106 97q60 48 128 82t128 34q74 0 126 -66l109 -142h156v-218h-183q-30 0 -42 15q-4 5 -12 14.5t-12 14.5l-117 153q-12 20 -36 28q-21 7 -46 7q-37 0 -77 -15
q-49 -18 -79 -35q-40 -22 -71 -45q-25 -18 -52 -41q56 -15 116 -22q18 -2 130 -18q64 -9 107 -27t43 -54q0 -15 -9 -51q-8 -31 -25 -74q-18 -44 -30 -70q-15 -31 -23 -39q-43 -43 -102 -76q-60 -34 -136 -60q-78 -27 -155 -41q-83 -15 -161 -15t-151 17q-71 17 -125 54
t-86 99q-32 61 -32 147q0 89 35 200t97 229q7 16 27 16q11 0 11 -11q0 -14 -6 -21q-26 -62 -47 -136q-18 -65 -18 -118q0 -71 30 -122q29 -50 79 -80q51 -31 115 -44q68 -14 139 -14q123 0 246 33q124 33 202 82q-132 15 -183 20q-88 9 -150 29zM404 612q-49 0 -117 -13
q-64 -12 -107 -64q6 42 25 68q21 29 43 44q-71 38 -71 98q0 30 17 59q17 30 41 52q26 24 56 37q33 14 64 14q28 0 52 -13q22 -12 22 -37q0 -17 -6 -27l-30 -63q-6 -11 -8 -11q-3 -3 -3 0q-8 0 -11 7q-3 8 -8 14t-16 14q-8 6 -36 6q-16 0 -35 -5q-22 -6 -38 -16
q31 -45 91 -54q61 -9 122 -9q16 0 16 -11q0 -8 -3 -11zM1185 -628l101 98l101 -98l115 112l-115 106l-101 -92l-101 92l-115 -106zM1286 -437l115 109l-115 110l-115 -110z" />
    <glyph glyph-name="sheenyeh" unicode="&#xfeb7;&#xfef2;" horiz-adv-x="2135" 
d="M1330 0q-31 0 -43 15q-16 20 -23 29l-117 153q-12 20 -36 28q-21 7 -46 7q-37 0 -77 -15q-49 -18 -79 -35q-40 -22 -71 -45q-25 -18 -52 -41q56 -15 116 -22q18 -2 130 -18q64 -9 107 -27t43 -54q0 -15 -9 -51q-8 -31 -25 -74q-18 -44 -30 -70q-15 -31 -23 -39
q-43 -43 -102 -76q-60 -34 -136 -60q-78 -27 -155 -41q-83 -15 -161 -15t-151 17q-71 17 -125 54t-86 99q-32 61 -32 147q0 89 35 200t97 229q7 16 27 16q11 0 11 -11q0 -14 -6 -21q-26 -62 -47 -136q-18 -65 -18 -118q0 -71 30 -122q29 -50 79 -80q51 -31 115 -44
q68 -14 139 -14q123 0 246 33q124 33 202 82q-81 10 -131 14q-70 6 -125 15q-56 9 -92 25q-37 16 -37 41q0 24 2 39q4 30 7 45q1 7 3.5 21t4.5 22q5 23 10 29q17 33 61 82q41 45 106 97q60 48 128 82t128 34q74 0 126 -66l109 -142h240l20 153l128 148q10 13 22 13
q13 0 13 -13l-1 -6q0 -2 -1 -6t-2 -12l-2 -16q-2 -15 -17 -90q-6 -32 -31 -171h256q-2 9 -6 32.5t-6 32.5q-8 41 -18 64l50 177q8 25 19 25t22 -25q13 -29 19 -58q6 -25 13 -74q6 -39 6 -73q0 -78 -19 -131l-58 -158q-6 -16 -17 -23t-24 -7h-87q-74 0 -113 33q-40 34 -56 84
l-17 -90q-3 -12 -12 -20q-8 -7 -40 -7h-308zM315 -677l123 114l105 -97l106 97l123 -114l-123 -113l-106 97l-105 -97zM1371 814l128 125l112 -109l112 109l128 -125l-128 -120l-112 101l-112 -101zM1480 1027l131 120l128 -120l-128 -126z" />
    <glyph glyph-name="sheenyehf" unicode="&#xfeb8;&#xfef2;" horiz-adv-x="2323" 
d="M1330 0q-25 0 -40 15q-15 16 -26 29l-117 153q-12 20 -36 28q-21 7 -46 7q-37 0 -77 -15q-49 -18 -79 -35q-40 -22 -71 -45q-25 -18 -52 -41q56 -15 116 -22q18 -2 130 -18q64 -9 107 -27t43 -54q0 -15 -9 -51q-8 -31 -25 -74q-18 -44 -30 -70q-15 -31 -23 -39
q-43 -43 -102 -76q-60 -34 -136 -60q-78 -27 -155 -41q-83 -15 -161 -15t-151 17q-71 17 -125 54t-86 99q-32 61 -32 147q0 89 35 200t97 229q7 16 27 16q11 0 11 -11q0 -14 -6 -21q-26 -62 -47 -136q-18 -65 -18 -118q0 -71 30 -122q29 -50 79 -80q51 -31 115 -44
q68 -14 139 -14q123 0 246 33q124 33 202 82q-81 10 -131 14q-70 6 -125 15q-56 9 -92 25q-37 16 -37 41q0 24 2 39q4 30 7 45q1 7 3.5 21t4.5 22q5 23 10 29q17 33 61 82q41 45 106 97q60 48 128 82t128 34q74 0 126 -66l109 -142h243l17 153l131 151q7 13 21 13
q17 0 17 -19q0 -1 -1 -5.5t-3 -16.5l-4 -24q-2 -14 -19 -97q-2 -12 -6.5 -33t-8 -37t-5.5 -30q-8 -50 -10 -55h229l-16 140l117 164q7 13 22 13q16 0 16 -22v-295h227v-218h-118q-65 0 -92 30q-28 31 -50 87l-51 -117h-153q-76 0 -110 40t-41 77l-21 -117h-358zM315 -677
l123 114l105 -97l106 97l123 -114l-123 -113l-106 97l-105 -97zM1488 814l129 125l111 -109l112 109l129 -125l-129 -120l-112 101l-111 -101zM1597 1027l131 120l129 -120l-129 -126z" />
    <glyph glyph-name="sheenyehhmz" unicode="&#xfeb7;&#xfe8a;" horiz-adv-x="2135" 
d="M1330 0q-31 0 -43 15q-16 20 -23 29l-117 153q-12 20 -36 28q-21 7 -46 7q-37 0 -77 -15q-49 -18 -79 -35q-40 -22 -71 -45q-25 -18 -52 -41q56 -15 116 -22q18 -2 130 -18q64 -9 107 -27t43 -54q0 -15 -9 -51q-8 -31 -25 -74q-18 -44 -30 -70q-15 -31 -23 -39
q-43 -43 -102 -76q-60 -34 -136 -60q-78 -27 -155 -41q-83 -15 -161 -15t-151 17q-71 17 -125 54t-86 99q-32 61 -32 147q0 89 35 200t97 229q7 16 27 16q11 0 11 -11q0 -14 -6 -21q-26 -62 -47 -136q-18 -65 -18 -118q0 -71 30 -122q29 -50 79 -80q51 -31 115 -44
q68 -14 139 -14q123 0 246 33q124 33 202 82q-81 10 -131 14q-70 6 -125 15q-56 9 -92 25q-37 16 -37 41q0 24 2 39q4 30 7 45q1 7 3.5 21t4.5 22q5 23 10 29q17 33 61 82q41 45 106 97q60 48 128 82t128 34q74 0 126 -66l109 -142h240l20 153l128 148q10 13 22 13
q13 0 13 -13l-1 -6q0 -2 -1 -6t-2 -12l-2 -16q-2 -15 -17 -90q-6 -32 -31 -171h256q-2 9 -6 32.5t-6 32.5q-8 41 -18 64l50 177q8 25 19 25t22 -25q13 -29 19 -58q6 -25 13 -74q6 -39 6 -73q0 -78 -19 -131l-58 -158q-6 -16 -17 -23t-24 -7h-87q-74 0 -113 33q-40 34 -56 84
l-17 -90q-3 -12 -12 -20q-8 -7 -40 -7h-308zM355 612q-49 0 -117 -13q-64 -12 -107 -64q6 42 25 68q21 29 43 44q-71 38 -71 98q0 30 17 59q17 30 41 52q26 24 56 37q33 14 64 14q28 0 52 -13q22 -12 22 -37q0 -17 -6 -27l-30 -63q-6 -11 -8 -11q-3 -3 -3 0q-8 0 -11 7
q-3 8 -8 14t-16 14q-8 6 -36 6q-16 0 -35 -5q-24 -6 -39 -16q31 -45 92 -54q62 -9 121 -9q17 0 17 -11q0 -8 -3 -11zM1371 814l128 125l112 -109l112 109l128 -125l-128 -120l-112 101l-112 -101zM1480 1027l131 120l128 -120l-128 -126z" />
    <glyph glyph-name="sheenyehhmzf" unicode="&#xfeb8;&#xfe8a;" horiz-adv-x="2323" 
d="M1330 0q-25 0 -40 15q-15 16 -26 29l-117 153q-12 20 -36 28q-21 7 -46 7q-37 0 -77 -15q-49 -18 -79 -35q-40 -22 -71 -45q-25 -18 -52 -41q56 -15 116 -22q18 -2 130 -18q64 -9 107 -27t43 -54q0 -15 -9 -51q-8 -31 -25 -74q-18 -44 -30 -70q-15 -31 -23 -39
q-43 -43 -102 -76q-60 -34 -136 -60q-78 -27 -155 -41q-83 -15 -161 -15t-151 17q-71 17 -125 54t-86 99q-32 61 -32 147q0 89 35 200t97 229q7 16 27 16q11 0 11 -11q0 -14 -6 -21q-26 -62 -47 -136q-18 -65 -18 -118q0 -71 30 -122q29 -50 79 -80q51 -31 115 -44
q68 -14 139 -14q123 0 246 33q124 33 202 82q-81 10 -131 14q-70 6 -125 15q-56 9 -92 25q-37 16 -37 41q0 24 2 39q4 30 7 45q1 7 3.5 21t4.5 22q5 23 10 29q17 33 61 82q41 45 106 97q60 48 128 82t128 34q74 0 126 -66l109 -142h243l17 153l131 151q7 13 21 13
q17 0 17 -19q0 -1 -1 -5.5t-3 -16.5l-4 -24q-2 -14 -19 -97q-2 -12 -6.5 -33t-8 -37t-5.5 -30q-8 -50 -10 -55h229l-16 140l117 164q7 13 22 13q16 0 16 -22v-295h227v-218h-118q-65 0 -92 30q-28 31 -50 87l-51 -117h-153q-76 0 -110 40t-41 77l-21 -117h-358zM355 612
q-49 0 -117 -13q-64 -12 -107 -64q6 42 25 68q21 29 43 44q-71 38 -71 98q0 30 17 59q17 30 41 52q26 24 56 37q33 14 64 14q28 0 52 -13q22 -12 22 -37q0 -17 -6 -27l-30 -63q-6 -11 -8 -11q-3 -3 -3 0q-8 0 -11 7q-3 8 -8 14t-16 14q-8 6 -36 6q-16 0 -35 -5
q-24 -6 -39 -16q31 -45 92 -54q62 -9 121 -9q17 0 17 -11q0 -8 -3 -11zM1483 814l128 125l112 -109l112 109l128 -125l-128 -120l-112 101l-112 -101zM1592 1027l131 120l128 -120l-128 -126z" />
    <glyph glyph-name="hmzjeem" unicode="&#xfe8b;&#xfe9e;" horiz-adv-x="1204" 
d="M1024 369q-67 8 -139 8q-127 0 -232 -49q-107 -50 -183 -127q-77 -78 -120 -175q-44 -99 -44 -193q0 -72 29 -142q28 -67 91 -118q62 -50 160 -82q99 -32 236 -32q60 0 136 9q54 6 112 17q23 4 81 18q34 8 42 8q25 0 25 -19t-17 -30q-17 -12 -50.5 -36t-48.5 -35
q-30 -21 -107 -72q-49 -32 -103 -56q-50 -22 -95 -22q-185 0 -300 37q-120 38 -186 99q-69 63 -94 146q-26 86 -26 177q0 104 32 215q32 112 79 207q45 91 101 173q53 77 99 117q-2 0 -10 0.5t-24.5 1t-33.5 0.5q-21 1 -63 1.5t-64 0.5q-67 1 -121 6q-55 5 -55 9q0 3 3 7
q2 3 13 25q3 7 15.5 28t19.5 35q18 33 66 118q56 3 125 14q64 10 124 42q61 32 115 86t95 145q2 6 8.5 20.5t9.5 23.5q8 20 23 46q13 21 30 37q16 15 41 15q63 0 93 -80q30 -81 30 -201q0 -33 -19 -33q-8 0 -16 17q-3 6 -11 19t-10 17q-11 19 -29 37q-17 17 -38 17
q-30 0 -53 -28q-28 -33 -52 -69q-27 -40 -68 -95q-35 -48 -100 -101q74 -7 153 -15q64 -6 158 -6q67 0 110 6q50 7 109 7q22 0 22 -13l-2 -5q-3 -9 -8 -21q-2 -5 -5 -13t-8 -20.5t-9 -21.5q-5 -13 -19.5 -48t-22.5 -54zM885 1240q-50 0 -118 -13q-63 -12 -106 -64
q7 45 24 69q18 25 44 43q-71 38 -71 99q0 30 16 58q17 30 41 52q26 24 56 37q33 14 65 14q27 0 51 -13q22 -12 22 -37q0 -18 -5 -27l-30 -63q-6 -11 -8 -11q-3 -3 -3 0q-8 0 -11 7q-3 8 -8 14q-3 4 -17 14q-8 6 -35 6q-17 0 -36 -5q-22 -6 -38 -16q31 -45 92 -54t121 -9
q17 0 17 -11q0 -8 -3 -11zM603 -137l142 129l142 -129l-142 -131z" />
    <glyph glyph-name="behjeem" unicode="&#xfe91;&#xfe9e;" horiz-adv-x="1204" 
d="M1024 369q-67 8 -139 8q-127 0 -232 -49q-107 -50 -183 -127q-77 -78 -120 -175q-44 -99 -44 -193q0 -72 29 -142q28 -67 91 -118q62 -50 160 -82q99 -32 236 -32q60 0 136 9q54 6 112 17q23 4 81 18q34 8 42 8q25 0 25 -19t-17 -30q-17 -12 -50.5 -36t-48.5 -35
q-30 -21 -107 -72q-49 -32 -103 -56q-50 -22 -95 -22q-185 0 -300 37q-120 38 -186 99q-69 63 -94 146q-26 86 -26 177q0 104 32 215q32 112 79 207q45 91 101 173q53 77 99 117q-2 0 -10 0.5t-24.5 1t-33.5 0.5q-21 1 -63 1.5t-64 0.5q-67 1 -121 6q-55 5 -55 9q0 3 3 7
q2 3 13 25q3 7 15.5 28t19.5 35q18 33 66 118q56 3 125 14q64 10 124 42q61 32 115 86t95 145q2 6 8.5 20.5t9.5 23.5q8 20 23 46q13 21 30 37q16 15 41 15q63 0 93 -80q30 -81 30 -201q0 -33 -19 -33q-8 0 -16 17q-3 6 -11 19t-10 17q-11 19 -29 37q-17 17 -38 17
q-30 0 -53 -28q-28 -33 -52 -69q-27 -40 -68 -95q-35 -48 -100 -101q74 -7 153 -15q64 -6 158 -6q67 0 110 6q50 7 109 7q22 0 22 -13l-2 -5q-3 -9 -8 -21q-2 -5 -5 -13t-8 -20.5t-9 -21.5q-5 -13 -19.5 -48t-22.5 -54zM829 63l135 128l135 -128l-135 -131zM560 -227
l142 129l142 -129l-142 -131z" />
    <glyph glyph-name="tehjeem" unicode="&#xfe97;&#xfe9e;" horiz-adv-x="1204" 
d="M1024 369q-67 8 -139 8q-127 0 -232 -49q-107 -50 -183 -127q-77 -78 -120 -175q-44 -99 -44 -193q0 -72 29 -142q28 -67 91 -118q62 -50 160 -82q99 -32 236 -32q60 0 136 9q54 6 112 17q23 4 81 18q34 8 42 8q25 0 25 -19t-17 -30q-17 -12 -50.5 -36t-48.5 -35
q-30 -21 -107 -72q-49 -32 -103 -56q-50 -22 -95 -22q-185 0 -300 37q-120 38 -186 99q-69 63 -94 146q-26 86 -26 177q0 104 32 215q32 112 79 207q45 91 101 173q53 77 99 117q-2 0 -10 0.5t-24.5 1t-33.5 0.5q-21 1 -63 1.5t-64 0.5q-67 1 -121 6q-55 5 -55 9q0 3 3 7
q2 3 13 25q3 7 15.5 28t19.5 35q18 33 66 118q56 3 125 14q64 10 124 42q61 32 115 86t95 145q2 6 8.5 20.5t9.5 23.5q8 20 23 46q13 21 30 37q16 15 41 15q63 0 93 -80q30 -81 30 -201q0 -33 -19 -33q-8 0 -16 17q-3 6 -11 19t-10 17q-11 19 -29 37q-17 17 -38 17
q-30 0 -53 -28q-28 -33 -52 -69q-27 -40 -68 -95q-35 -48 -100 -101q74 -7 153 -15q64 -6 158 -6q67 0 110 6q50 7 109 7q22 0 22 -13l-2 -5q-3 -9 -8 -21q-2 -5 -5 -13t-8 -20.5t-9 -21.5q-5 -13 -19.5 -48t-22.5 -54zM541 1303l136 133l118 -114l117 114l137 -133
l-137 -134l-117 114l-118 -114zM603 -137l142 129l142 -129l-142 -131z" />
    <glyph glyph-name="thehjeem" unicode="&#xfe9b;&#xfe9e;" horiz-adv-x="1204" 
d="M1024 369q-67 8 -139 8q-127 0 -232 -49q-107 -50 -183 -127q-77 -78 -120 -175q-44 -99 -44 -193q0 -72 29 -142q28 -67 91 -118q62 -50 160 -82q99 -32 236 -32q60 0 136 9q54 6 112 17q23 4 81 18q34 8 42 8q25 0 25 -19t-17 -30q-17 -12 -50.5 -36t-48.5 -35
q-30 -21 -107 -72q-49 -32 -103 -56q-50 -22 -95 -22q-185 0 -300 37q-120 38 -186 99q-69 63 -94 146q-26 86 -26 177q0 104 32 215q32 112 79 207q45 91 101 173q53 77 99 117q-2 0 -10 0.5t-24.5 1t-33.5 0.5q-21 1 -63 1.5t-64 0.5q-67 1 -121 6q-55 5 -55 9q0 3 3 7
q2 3 13 25q3 7 15.5 28t19.5 35q18 33 66 118q56 3 125 14q64 10 124 42q61 32 115 86t95 145q2 6 8.5 20.5t9.5 23.5q8 20 23 46q13 21 30 37q16 15 41 15q63 0 93 -80q30 -81 30 -201q0 -33 -19 -33q-8 0 -16 17q-3 6 -11 19t-10 17q-11 19 -29 37q-17 17 -38 17
q-30 0 -53 -28q-28 -33 -52 -69q-27 -40 -68 -95q-35 -48 -100 -101q74 -7 153 -15q64 -6 158 -6q67 0 110 6q50 7 109 7q22 0 22 -13l-2 -5q-3 -9 -8 -21q-2 -5 -5 -13t-8 -20.5t-9 -21.5q-5 -13 -19.5 -48t-22.5 -54zM554 1272l129 107l112 -93l112 93l128 -107l-128 -102
l-112 86l-112 -86zM664 1453l131 102l128 -102l-128 -107zM603 -137l142 129l142 -129l-142 -131z" />
    <glyph glyph-name="noonjeem" unicode="&#xfee7;&#xfe9e;" horiz-adv-x="1204" 
d="M1024 369q-67 8 -139 8q-127 0 -232 -49q-107 -50 -183 -127q-77 -78 -120 -175q-44 -99 -44 -193q0 -72 29 -142q28 -67 91 -118q62 -50 160 -82q99 -32 236 -32q60 0 136 9q54 6 112 17q23 4 81 18q34 8 42 8q25 0 25 -19t-17 -30q-17 -12 -50.5 -36t-48.5 -35
q-30 -21 -107 -72q-49 -32 -103 -56q-50 -22 -95 -22q-185 0 -300 37q-120 38 -186 99q-69 63 -94 146q-26 86 -26 177q0 104 32 215q32 112 79 207q45 91 101 173q53 77 99 117q-2 0 -10 0.5t-24.5 1t-33.5 0.5q-21 1 -63 1.5t-64 0.5q-67 1 -121 6q-55 5 -55 9q0 3 3 7
q2 3 13 25q3 7 15.5 28t19.5 35q18 33 66 118q56 3 125 14q64 10 124 42q61 32 115 86t95 145q2 6 8.5 20.5t9.5 23.5q8 20 23 46q13 21 30 37q16 15 41 15q63 0 93 -80q30 -81 30 -201q0 -33 -19 -33q-8 0 -16 17q-3 6 -11 19t-10 17q-11 19 -29 37q-17 17 -38 17
q-30 0 -53 -28q-28 -33 -52 -69q-27 -40 -68 -95q-35 -48 -100 -101q74 -7 153 -15q64 -6 158 -6q67 0 110 6q50 7 109 7q22 0 22 -13l-2 -5q-3 -9 -8 -21q-2 -5 -5 -13t-8 -20.5t-9 -21.5q-5 -13 -19.5 -48t-22.5 -54zM634 1338l142 128l142 -128l-142 -131zM603 -137
l142 129l142 -129l-142 -131z" />
    <glyph glyph-name="yehjeem" unicode="&#xfef3;&#xfe9e;" horiz-adv-x="1204" 
d="M1024 369q-67 8 -139 8q-127 0 -232 -49q-107 -50 -183 -127q-77 -78 -120 -175q-44 -99 -44 -193q0 -72 29 -142q28 -67 91 -118q62 -50 160 -82q99 -32 236 -32q60 0 136 9q54 6 112 17q23 4 81 18q34 8 42 8q25 0 25 -19t-17 -30q-17 -12 -50.5 -36t-48.5 -35
q-30 -21 -107 -72q-49 -32 -103 -56q-50 -22 -95 -22q-185 0 -300 37q-120 38 -186 99q-69 63 -94 146q-26 86 -26 177q0 104 32 215q32 112 79 207q45 91 101 173q53 77 99 117q-2 0 -10 0.5t-24.5 1t-33.5 0.5q-21 1 -63 1.5t-64 0.5q-67 1 -121 6q-55 5 -55 9q0 3 3 7
q2 3 13 25q3 7 15.5 28t19.5 35q18 33 66 118q56 3 125 14q64 10 124 42q61 32 115 86t95 145q2 6 8.5 20.5t9.5 23.5q8 20 23 46q13 21 30 37q16 15 41 15q63 0 93 -80q30 -81 30 -201q0 -33 -19 -33q-8 0 -16 17q-3 6 -11 19t-10 17q-11 19 -29 37q-17 17 -38 17
q-30 0 -53 -28q-28 -33 -52 -69q-27 -40 -68 -95q-35 -48 -100 -101q74 -7 153 -15q64 -6 158 -6q67 0 110 6q50 7 109 7q22 0 22 -13l-2 -5q-3 -9 -8 -21q-2 -5 -5 -13t-8 -20.5t-9 -21.5q-5 -13 -19.5 -48t-22.5 -54zM500 -188l142 128l142 -128l-142 -131zM901 -38
l104 101l-104 104l131 128l129 -128l-104 -104l104 -101l-129 -131z" />
    <glyph glyph-name="uni0626062E.isol" unicode="&#xfe8b;&#xfea6;" horiz-adv-x="1204" 
d="M1024 369q-67 8 -139 8q-127 0 -232 -49q-107 -50 -183 -127q-77 -78 -120 -175q-44 -99 -44 -193q0 -72 29 -142q28 -67 91 -118q62 -50 160 -82q99 -32 236 -32q60 0 136 9q54 6 112 17q23 4 81 18q34 8 42 8q25 0 25 -19t-17 -30q-17 -12 -50.5 -36t-48.5 -35
q-30 -21 -107 -72q-49 -32 -103 -56q-50 -22 -95 -22q-185 0 -300 37q-120 38 -186 99q-69 63 -94 146q-26 86 -26 177q0 104 32 215q32 112 79 207q45 91 101 173q53 77 99 117q-2 0 -10 0.5t-24.5 1t-33.5 0.5q-21 1 -63 1.5t-64 0.5q-67 1 -121 6q-55 5 -55 9q0 3 3 7
q2 3 13 25q3 7 15.5 28t19.5 35q18 33 66 118q56 3 125 14q64 10 124 42q61 32 115 86t95 145q2 6 8.5 20.5t9.5 23.5q8 20 23 46q13 21 30 37q16 15 41 15q63 0 93 -80q30 -81 30 -201q0 -33 -19 -33q-8 0 -16 17q-3 6 -11 19t-10 17q-11 19 -29 37q-17 17 -38 17
q-30 0 -53 -28q-28 -33 -52 -69q-27 -40 -68 -95q-35 -48 -100 -101q74 -7 153 -15q64 -6 158 -6q67 0 110 6q50 7 109 7q22 0 22 -13l-2 -5q-3 -9 -8 -21q-2 -5 -5 -13t-8 -20.5t-9 -21.5q-5 -13 -19.5 -48t-22.5 -54zM123 1092l142 129l142 -129l-142 -131zM-63 0v0v0v0z
M-63 0v0v0v0v0v0zM-63 0v0v0zM-63 0v0v0zM-63 0zM-63 0zM-63 0zM-63 0v0v0v0zM-63 0v0v0v0v0v0zM-63 0v0v0v0v0v0zM-63 0v0v0v0v0zM-63 0v0v0v0zM-63 0zM-63 0zM-63 0zM-63 0zM-63 0zM-63 0zM-63 0zM-63 0v0v0v0zM-63 0v0v0v0v0v0zM-63 0v0v0zM-63 0v0v0zM-63 0zM-63 0z
M-63 0zM-63 0v0v0v0zM-63 0v0v0v0v0v0zM-63 0v0v0v0v0v0zM-63 0v0v0v0v0zM-63 0v0v0v0zM-63 0zM-63 0zM-63 0zM-63 0zM-63 0zM-63 0zM-63 0zM-30 0v0v0v0zM-30 0v0v0v0v0v0zM-30 0v0v0zM-30 0v0v0zM-30 0zM-30 0zM-30 0zM-30 0v0v0v0zM-30 0v0v0v0v0v0zM-30 0v0v0v0v0v0z
M-30 0v0v0v0v0zM-30 0v0v0v0zM-30 0zM-30 0zM-30 0zM-30 0zM-30 0zM-30 0zM-30 0zM885 1240q-50 0 -118 -13q-63 -12 -106 -64q7 45 24 69q18 25 44 43q-71 38 -71 99q0 30 16 58q17 30 41 52q26 24 56 37q33 14 65 14q27 0 51 -13q22 -12 22 -37q0 -18 -5 -27l-30 -63
q-6 -11 -8 -11q-3 -3 -3 0q-8 0 -11 7q-3 8 -8 14q-3 4 -17 14q-8 6 -35 6q-17 0 -36 -5q-22 -6 -38 -16q31 -45 92 -54t121 -9q17 0 17 -11q0 -8 -3 -11z" />
    <glyph glyph-name="behkhah" unicode="&#xfe91;&#xfea6;" horiz-adv-x="1204" 
d="M1024 369q-67 8 -139 8q-127 0 -232 -49q-107 -50 -183 -127q-77 -78 -120 -175q-44 -99 -44 -193q0 -72 29 -142q28 -67 91 -118q62 -50 160 -82q99 -32 236 -32q60 0 136 9q54 6 112 17q23 4 81 18q34 8 42 8q25 0 25 -19t-17 -30q-17 -12 -50.5 -36t-48.5 -35
q-30 -21 -107 -72q-49 -32 -103 -56q-50 -22 -95 -22q-185 0 -300 37q-120 38 -186 99q-69 63 -94 146q-26 86 -26 177q0 104 32 215q32 112 79 207q45 91 101 173q53 77 99 117q-2 0 -10 0.5t-24.5 1t-33.5 0.5q-21 1 -63 1.5t-64 0.5q-67 1 -121 6q-55 5 -55 9q0 3 3 7
q2 3 13 25q3 7 15.5 28t19.5 35q18 33 66 118q56 3 125 14q64 10 124 42q61 32 115 86t95 145q2 6 8.5 20.5t9.5 23.5q8 20 23 46q13 21 30 37q16 15 41 15q63 0 93 -80q30 -81 30 -201q0 -33 -19 -33q-8 0 -16 17q-3 6 -11 19t-10 17q-11 19 -29 37q-17 17 -38 17
q-30 0 -53 -28q-28 -33 -52 -69q-27 -40 -68 -95q-35 -48 -100 -101q74 -7 153 -15q64 -6 158 -6q67 0 110 6q50 7 109 7q22 0 22 -13l-2 -5q-3 -9 -8 -21q-2 -5 -5 -13t-8 -20.5t-9 -21.5q-5 -13 -19.5 -48t-22.5 -54zM829 63l135 128l135 -128l-135 -131zM123 1092
l142 129l142 -129l-142 -131z" />
    <glyph glyph-name="tehkhah" unicode="&#xfe97;&#xfea6;" horiz-adv-x="1204" 
d="M1024 369q-67 8 -139 8q-127 0 -232 -49q-107 -50 -183 -127q-77 -78 -120 -175q-44 -99 -44 -193q0 -72 29 -142q28 -67 91 -118q62 -50 160 -82q99 -32 236 -32q60 0 136 9q54 6 112 17q23 4 81 18q34 8 42 8q25 0 25 -19t-17 -30q-17 -12 -50.5 -36t-48.5 -35
q-30 -21 -107 -72q-49 -32 -103 -56q-50 -22 -95 -22q-185 0 -300 37q-120 38 -186 99q-69 63 -94 146q-26 86 -26 177q0 104 32 215q32 112 79 207q45 91 101 173q53 77 99 117q-2 0 -10 0.5t-24.5 1t-33.5 0.5q-21 1 -63 1.5t-64 0.5q-67 1 -121 6q-55 5 -55 9q0 3 3 7
q2 3 13 25q3 7 15.5 28t19.5 35q18 33 66 118q56 3 125 14q64 10 124 42q61 32 115 86t95 145q2 6 8.5 20.5t9.5 23.5q8 20 23 46q13 21 30 37q16 15 41 15q63 0 93 -80q30 -81 30 -201q0 -33 -19 -33q-8 0 -16 17q-3 6 -11 19t-10 17q-11 19 -29 37q-17 17 -38 17
q-30 0 -53 -28q-28 -33 -52 -69q-27 -40 -68 -95q-35 -48 -100 -101q74 -7 153 -15q64 -6 158 -6q67 0 110 6q50 7 109 7q22 0 22 -13l-2 -5q-3 -9 -8 -21q-2 -5 -5 -13t-8 -20.5t-9 -21.5q-5 -13 -19.5 -48t-22.5 -54zM541 1303l136 133l118 -114l117 114l137 -133
l-137 -134l-117 114l-118 -114zM123 1092l142 129l142 -129l-142 -131z" />
    <glyph glyph-name="thehkhah" unicode="&#xfe9b;&#xfea6;" horiz-adv-x="1204" 
d="M1024 369q-67 8 -139 8q-127 0 -232 -49q-107 -50 -183 -127q-77 -78 -120 -175q-44 -99 -44 -193q0 -72 29 -142q28 -67 91 -118q62 -50 160 -82q99 -32 236 -32q60 0 136 9q54 6 112 17q23 4 81 18q34 8 42 8q25 0 25 -19t-17 -30q-17 -12 -50.5 -36t-48.5 -35
q-30 -21 -107 -72q-49 -32 -103 -56q-50 -22 -95 -22q-185 0 -300 37q-120 38 -186 99q-69 63 -94 146q-26 86 -26 177q0 104 32 215q32 112 79 207q45 91 101 173q53 77 99 117q-2 0 -10 0.5t-24.5 1t-33.5 0.5q-21 1 -63 1.5t-64 0.5q-67 1 -121 6q-55 5 -55 9q0 3 3 7
q2 3 13 25q3 7 15.5 28t19.5 35q18 33 66 118q56 3 125 14q64 10 124 42q61 32 115 86t95 145q2 6 8.5 20.5t9.5 23.5q8 20 23 46q13 21 30 37q16 15 41 15q63 0 93 -80q30 -81 30 -201q0 -33 -19 -33q-8 0 -16 17q-3 6 -11 19t-10 17q-11 19 -29 37q-17 17 -38 17
q-30 0 -53 -28q-28 -33 -52 -69q-27 -40 -68 -95q-35 -48 -100 -101q74 -7 153 -15q64 -6 158 -6q67 0 110 6q50 7 109 7q22 0 22 -13l-2 -5q-3 -9 -8 -21q-2 -5 -5 -13t-8 -20.5t-9 -21.5q-5 -13 -19.5 -48t-22.5 -54zM554 1272l129 107l112 -93l112 93l128 -107l-128 -102
l-112 86l-112 -86zM664 1453l131 102l128 -102l-128 -107zM123 1092l142 129l142 -129l-142 -131z" />
    <glyph glyph-name="noonkhah" unicode="&#xfee7;&#xfea6;" horiz-adv-x="1204" 
d="M1024 369q-67 8 -139 8q-127 0 -232 -49q-107 -50 -183 -127q-77 -78 -120 -175q-44 -99 -44 -193q0 -72 29 -142q28 -67 91 -118q62 -50 160 -82q99 -32 236 -32q60 0 136 9q54 6 112 17q23 4 81 18q34 8 42 8q25 0 25 -19t-17 -30q-17 -12 -50.5 -36t-48.5 -35
q-30 -21 -107 -72q-49 -32 -103 -56q-50 -22 -95 -22q-185 0 -300 37q-120 38 -186 99q-69 63 -94 146q-26 86 -26 177q0 104 32 215q32 112 79 207q45 91 101 173q53 77 99 117q-2 0 -10 0.5t-24.5 1t-33.5 0.5q-21 1 -63 1.5t-64 0.5q-67 1 -121 6q-55 5 -55 9q0 3 3 7
q2 3 13 25q3 7 15.5 28t19.5 35q18 33 66 118q56 3 125 14q64 10 124 42q61 32 115 86t95 145q2 6 8.5 20.5t9.5 23.5q8 20 23 46q13 21 30 37q16 15 41 15q63 0 93 -80q30 -81 30 -201q0 -33 -19 -33q-8 0 -16 17q-3 6 -11 19t-10 17q-11 19 -29 37q-17 17 -38 17
q-30 0 -53 -28q-28 -33 -52 -69q-27 -40 -68 -95q-35 -48 -100 -101q74 -7 153 -15q64 -6 158 -6q67 0 110 6q50 7 109 7q22 0 22 -13l-2 -5q-3 -9 -8 -21q-2 -5 -5 -13t-8 -20.5t-9 -21.5q-5 -13 -19.5 -48t-22.5 -54zM634 1338l142 128l142 -128l-142 -131zM123 1092
l142 129l142 -129l-142 -131z" />
    <glyph glyph-name="yehkhah" unicode="&#xfef3;&#xfea6;" horiz-adv-x="1204" 
d="M1024 369q-67 8 -139 8q-127 0 -232 -49q-107 -50 -183 -127q-77 -78 -120 -175q-44 -99 -44 -193q0 -72 29 -142q28 -67 91 -118q62 -50 160 -82q99 -32 236 -32q60 0 136 9q54 6 112 17q23 4 81 18q34 8 42 8q25 0 25 -19t-17 -30q-17 -12 -50.5 -36t-48.5 -35
q-30 -21 -107 -72q-49 -32 -103 -56q-50 -22 -95 -22q-185 0 -300 37q-120 38 -186 99q-69 63 -94 146q-26 86 -26 177q0 104 32 215q32 112 79 207q45 91 101 173q53 77 99 117q-2 0 -10 0.5t-24.5 1t-33.5 0.5q-21 1 -63 1.5t-64 0.5q-67 1 -121 6q-55 5 -55 9q0 3 3 7
q2 3 13 25q3 7 15.5 28t19.5 35q18 33 66 118q56 3 125 14q64 10 124 42q61 32 115 86t95 145q2 6 8.5 20.5t9.5 23.5q8 20 23 46q13 21 30 37q16 15 41 15q63 0 93 -80q30 -81 30 -201q0 -33 -19 -33q-8 0 -16 17q-3 6 -11 19t-10 17q-11 19 -29 37q-17 17 -38 17
q-30 0 -53 -28q-28 -33 -52 -69q-27 -40 -68 -95q-35 -48 -100 -101q74 -7 153 -15q64 -6 158 -6q67 0 110 6q50 7 109 7q22 0 22 -13l-2 -5q-3 -9 -8 -21q-2 -5 -5 -13t-8 -20.5t-9 -21.5q-5 -13 -19.5 -48t-22.5 -54zM661 68l136 134l118 -115l117 115l137 -134l-137 -134
l-117 115l-118 -115zM123 1092l142 129l142 -129l-142 -131z" />
    <glyph glyph-name="hmznoonf" unicode="&#xfe8c;&#xfee6;" horiz-adv-x="1747" 
d="M983 456l15 -48q2 -7 4 -15l4.5 -18t3.5 -15q61 -8 115 -8q130 0 251 41l-5 55l65 180q6 14 17 14q10 0 16 -14l52 -410h227v-218h-293q-15 0 -23 5q-9 6 -12 28l-33 267q-30 -81 -117 -116q-83 -33 -230 -39q0 -87 -12 -171q-12 -82 -59 -184q-84 -72 -209 -116
q-128 -45 -255 -45q-194 0 -282 91q-89 92 -89 225q0 181 136 369q11 14 22 14q17 0 17 -14q0 -8 -3 -11q-63 -109 -63 -210q0 -112 83 -179t239 -67q106 0 211 31q104 31 174 78q-7 88 -27 175q-22 94 -63 191l60 175q8 27 25 27q12 0 19 -19l8 -19q7 -18 11 -30zM1505 830
q-55 0 -118 -12t-106 -64q6 44 24 68q20 27 44 44q-71 38 -71 98q0 31 16 59q17 30 41 52t56 36q33 14 64 14q29 0 52 -12q22 -12 22 -37q0 -18 -5 -27l-30 -63q-6 -11 -9 -11q-2 -2 -2 0q-8 0 -11 7q-2 6 -8 13q-3 4 -17 14q-10 7 -35 7q-14 0 -36 -6t-38 -16
q30 -44 91 -53q68 -10 122 -10q16 0 16 -11q0 -9 -2 -11zM489 819l142 129l142 -129l-142 -131z" />
    <glyph glyph-name="behnoonf" unicode="&#xfe92;&#xfee6;" horiz-adv-x="1747" 
d="M983 456l15 -48q2 -7 4 -15l4.5 -18t3.5 -15q61 -8 115 -8q130 0 251 41l-5 55l65 180q6 14 17 14q10 0 16 -14l52 -410h227v-218h-293q-15 0 -23 5q-9 6 -12 28l-33 267q-30 -81 -117 -116q-83 -33 -230 -39q0 -87 -12 -171q-12 -82 -59 -184q-84 -72 -209 -116
q-128 -45 -255 -45q-194 0 -282 91q-89 92 -89 225q0 181 136 369q11 14 22 14q17 0 17 -14q0 -8 -3 -11q-63 -109 -63 -210q0 -112 83 -179t239 -67q106 0 211 31q104 31 174 78q-7 88 -27 175q-22 94 -63 191l60 175q8 27 25 27q12 0 19 -19l8 -19q7 -18 11 -30z
M1300 -341l142 128l142 -128l-142 -131zM489 819l142 129l142 -129l-142 -131z" />
    <glyph glyph-name="tehnoonf" unicode="&#xfe98;&#xfee6;" horiz-adv-x="1747" 
d="M983 456l15 -48q2 -7 4 -15l4.5 -18t3.5 -15q61 -8 115 -8q130 0 251 41l-5 55l65 180q6 14 17 14q10 0 16 -14l52 -410h227v-218h-293q-15 0 -23 5q-9 6 -12 28l-33 267q-30 -81 -117 -116q-83 -33 -230 -39q0 -87 -12 -171q-12 -82 -59 -184q-84 -72 -209 -116
q-128 -45 -255 -45q-194 0 -282 91q-89 92 -89 225q0 181 136 369q11 14 22 14q17 0 17 -14q0 -8 -3 -11q-63 -109 -63 -210q0 -112 83 -179t239 -67q106 0 211 31q104 31 174 78q-7 88 -27 175q-22 94 -63 191l60 175q8 27 25 27q12 0 19 -19l8 -19q7 -18 11 -30zM1185 961
l137 134l117 -115l117 115l137 -134l-137 -134l-117 115l-117 -115zM489 819l142 129l142 -129l-142 -131z" />
    <glyph glyph-name="thehnoonf" unicode="&#xfe9c;&#xfee6;" horiz-adv-x="1747" 
d="M983 456l15 -48q2 -7 4 -15l4.5 -18t3.5 -15q61 -8 115 -8q130 0 251 41l-5 55l65 180q6 14 17 14q10 0 16 -14l52 -410h227v-218h-293q-15 0 -23 5q-9 6 -12 28l-33 267q-30 -81 -117 -116q-83 -33 -230 -39q0 -87 -12 -171q-12 -82 -59 -184q-84 -72 -209 -116
q-128 -45 -255 -45q-194 0 -282 91q-89 92 -89 225q0 181 136 369q11 14 22 14q17 0 17 -14q0 -8 -3 -11q-63 -109 -63 -210q0 -112 83 -179t239 -67q106 0 211 31q104 31 174 78q-7 88 -27 175q-22 94 -63 191l60 175q8 27 25 27q12 0 19 -19l8 -19q7 -18 11 -30zM489 819
l142 129l142 -129l-142 -131zM1204 868l129 126l112 -109l111 109l129 -126l-129 -120l-111 101l-112 -101zM1313 1081l132 120l128 -120l-128 -125z" />
    <glyph glyph-name="noonnoonf" unicode="&#xfee8;&#xfee6;" horiz-adv-x="1747" 
d="M983 456l15 -48q2 -7 4 -15l4.5 -18t3.5 -15q61 -8 115 -8q130 0 251 41l-5 55l65 180q6 14 17 14q10 0 16 -14l52 -410h227v-218h-293q-15 0 -23 5q-9 6 -12 28l-33 267q-30 -81 -117 -116q-83 -33 -230 -39q0 -87 -12 -171q-12 -82 -59 -184q-84 -72 -209 -116
q-128 -45 -255 -45q-194 0 -282 91q-89 92 -89 225q0 181 136 369q11 14 22 14q17 0 17 -14q0 -8 -3 -11q-63 -109 -63 -210q0 -112 83 -179t239 -67q106 0 211 31q104 31 174 78q-7 88 -27 175q-22 94 -63 191l60 175q8 27 25 27q12 0 19 -19l8 -19q7 -18 11 -30zM1297 956
l142 128l142 -128l-142 -131zM489 819l142 129l142 -129l-142 -131z" />
    <glyph glyph-name="yehnoonf" unicode="&#xfef4;&#xfee6;" horiz-adv-x="1747" 
d="M983 456l15 -48q2 -7 4 -15l4.5 -18t3.5 -15q61 -8 115 -8q130 0 251 41l-5 55l65 180q6 14 17 14q10 0 16 -14l52 -410h227v-218h-293q-15 0 -23 5q-9 6 -12 28l-33 267q-30 -81 -117 -116q-83 -33 -230 -39q0 -87 -12 -171q-12 -82 -59 -184q-84 -72 -209 -116
q-128 -45 -255 -45q-194 0 -282 91q-89 92 -89 225q0 181 136 369q11 14 22 14q17 0 17 -14q0 -8 -3 -11q-63 -109 -63 -210q0 -112 83 -179t239 -67q106 0 211 31q104 31 174 78q-7 88 -27 175q-22 94 -63 191l60 175q8 27 25 27q12 0 19 -19l8 -19q7 -18 11 -30z
M1163 -336l137 134l117 -115l118 115l136 -134l-136 -134l-118 115l-117 -115zM489 819l142 129l142 -129l-142 -131z" />
    <glyph glyph-name="ttehnoonf" unicode="&#xfb69;&#xfee6;" horiz-adv-x="1747" 
d="M983 456l15 -48q2 -7 4 -15l4.5 -18t3.5 -15q61 -8 115 -8q130 0 251 41l-5 55l65 180q6 14 17 14q10 0 16 -14l52 -410h227v-218h-293q-15 0 -23 5q-9 6 -12 28l-33 267q-30 -81 -117 -116q-83 -33 -230 -39q0 -87 -12 -171q-12 -82 -59 -184q-84 -72 -209 -116
q-128 -45 -255 -45q-194 0 -282 91q-89 92 -89 225q0 181 136 369q11 14 22 14q17 0 17 -14q0 -8 -3 -11q-63 -109 -63 -210q0 -112 83 -179t239 -67q106 0 211 31q104 31 174 78q-7 88 -27 175q-22 94 -63 191l60 175q8 27 25 27q12 0 19 -19l8 -19q7 -18 11 -30zM1349 920
l-33 216q-19 10 -19 27l38 79q16 -35 41 -46t36 -25q0 -4 -11 -34q-8 -22 -17 -42l-13 8q3 -33 7 -48q4 -16 4 -53v-35q0 -17 -6 -30l107 68q26 16 52 16q20 0 39 -11q17 -10 30 -26q12 -15 18 -30q5 -13 5 -20q0 -8 -9 -25q-3 -6 -11 -17.5t-10 -14.5q-3 -5 -6.5 -10
t-7.5 -11l-6 -9l-10 -14q-4 -4 -8 -10q-3 -4 -16 -4h-197q-28 0 -50 3q-24 3 -45 16l-74 47q-8 3 -8 13q0 9 13 9q3 0 33 -6q25 -5 96 -5zM1368 896h199q-10 21 -31 39t-48 18q-18 0 -38 -11zM489 819l142 129l142 -129l-142 -131z" />
    <glyph glyph-name="hmzyeh" unicode="&#xfe8b;&#xfef2;" horiz-adv-x="1206" 
d="M1087 57q-8 1 -62 7q-72 8 -95 11q-19 3 -56 7.5t-53 6.5q-67 9 -103 16t-76 19q-30 9 -30 21q0 7 2 11l69 144q30 0 72 6q48 7 87 16q41 10 88 28q43 17 72 40q-14 43 -48 103q-35 63 -97 132l33 191q6 20 17 20q7 0 21 -14q74 -86 118 -169q46 -86 46 -178
q0 -19 -4 -46q-5 -32 -16 -64q-12 -33 -33 -67q-20 -32 -51 -55q76 -12 134 -23q47 -9 47 -59q0 -73 -26 -145q-24 -66 -67 -133q-41 -38 -104 -71q-68 -36 -135 -58q-75 -25 -152 -38q-82 -14 -155 -14q-77 0 -150 17q-72 17 -126 56t-86 101q-31 61 -31 151q0 99 35 204
q37 111 98 220q10 13 22 13q14 0 14 -16q0 -8 -3 -11q-68 -151 -68 -260q0 -67 30 -117t80 -79q52 -30 119 -45q69 -15 145 -15q63 0 130 9q58 8 129 28q64 18 119 42q58 25 100 57zM983 978q-49 0 -117 -13q-64 -12 -107 -64q6 42 25 68q21 29 43 44q-71 38 -71 98
q0 30 17 59q17 30 41 52q26 24 56 37t64 13q30 0 52 -12t22 -37q0 -17 -6 -27l-30 -63q-6 -11 -8 -11q-3 -3 -3 0q-8 0 -11 7q-3 8 -8 14q-3 4 -16 13q-10 7 -36 7q-16 0 -35 -5q-21 -6 -39 -17q30 -44 92 -53t121 -9q17 0 17 -11q0 -8 -3 -11zM298 -557l123 114l106 -97
l106 97l123 -114l-123 -113l-106 97l-106 -97z" />
    <glyph glyph-name="behyeh" unicode="&#xfe91;&#xfef2;" horiz-adv-x="1206" 
d="M1087 57q-8 1 -62 7q-72 8 -95 11q-19 3 -56 7.5t-53 6.5q-67 9 -103 16t-76 19q-30 9 -30 21q0 7 2 11l69 144q30 0 72 6q48 7 87 16q41 10 88 28q43 17 72 40q-14 43 -48 103q-35 63 -97 132l33 191q6 20 17 20q7 0 21 -14q74 -86 118 -169q46 -86 46 -178
q0 -19 -4 -46q-5 -32 -16 -64q-12 -33 -33 -67q-20 -32 -51 -55q76 -12 134 -23q47 -9 47 -59q0 -73 -26 -145q-24 -66 -67 -133q-41 -38 -104 -71q-68 -36 -135 -58q-75 -25 -152 -38q-82 -14 -155 -14q-77 0 -150 17q-72 17 -126 56t-86 101q-31 61 -31 151q0 99 35 204
q37 111 98 220q10 13 22 13q14 0 14 -16q0 -8 -3 -11q-68 -151 -68 -260q0 -67 30 -117t80 -79q52 -30 119 -45q69 -15 145 -15q63 0 130 9q58 8 129 28q64 18 119 42q58 25 100 57zM983 -437l142 128l142 -128l-142 -131zM298 -557l123 114l106 -97l106 97l123 -114
l-123 -113l-106 97l-106 -97z" />
    <glyph glyph-name="tehyeh" unicode="&#xfe97;&#xfef2;" horiz-adv-x="1206" 
d="M1087 57q-8 1 -62 7q-72 8 -95 11q-19 3 -56 7.5t-53 6.5q-67 9 -103 16t-76 19q-30 9 -30 21q0 7 2 11l69 144q30 0 72 6q48 7 87 16q41 10 88 28q43 17 72 40q-14 43 -48 103q-35 63 -97 132l33 191q6 20 17 20q7 0 21 -14q74 -86 118 -169q46 -86 46 -178
q0 -19 -4 -46q-5 -32 -16 -64q-12 -33 -33 -67q-20 -32 -51 -55q76 -12 134 -23q47 -9 47 -59q0 -73 -26 -145q-24 -66 -67 -133q-41 -38 -104 -71q-68 -36 -135 -58q-75 -25 -152 -38q-82 -14 -155 -14q-77 0 -150 17q-72 17 -126 56t-86 101q-31 61 -31 151q0 99 35 204
q37 111 98 220q10 13 22 13q14 0 14 -16q0 -8 -3 -11q-68 -151 -68 -260q0 -67 30 -117t80 -79q52 -30 119 -45q69 -15 145 -15q63 0 130 9q58 8 129 28q64 18 119 42q58 25 100 57zM666 1098l137 134l117 -115l118 115l136 -134l-136 -134l-118 115l-117 -115zM298 -557
l123 114l106 -97l106 97l123 -114l-123 -113l-106 97l-106 -97z" />
    <glyph glyph-name="thehyeh" unicode="&#xfe9b;&#xfef2;" horiz-adv-x="1206" 
d="M1087 57q-8 1 -62 7q-72 8 -95 11q-19 3 -56 7.5t-53 6.5q-67 9 -103 16t-76 19q-30 9 -30 21q0 7 2 11l69 144q30 0 72 6q48 7 87 16q41 10 88 28q43 17 72 40q-14 43 -48 103q-35 63 -97 132l33 191q6 20 17 20q7 0 21 -14q74 -86 118 -169q46 -86 46 -178
q0 -19 -4 -46q-5 -32 -16 -64q-12 -33 -33 -67q-20 -32 -51 -55q76 -12 134 -23q47 -9 47 -59q0 -73 -26 -145q-24 -66 -67 -133q-41 -38 -104 -71q-68 -36 -135 -58q-75 -25 -152 -38q-82 -14 -155 -14q-77 0 -150 17q-72 17 -126 56t-86 101q-31 61 -31 151q0 99 35 204
q37 111 98 220q10 13 22 13q14 0 14 -16q0 -8 -3 -11q-68 -151 -68 -260q0 -67 30 -117t80 -79q52 -30 119 -45q69 -15 145 -15q63 0 130 9q58 8 129 28q64 18 119 42q58 25 100 57zM680 1087l128 125l112 -109l112 109l129 -125l-129 -120l-112 101l-112 -101zM789 1300
l131 120l129 -120l-129 -126zM298 -557l123 114l106 -97l106 97l123 -114l-123 -113l-106 97l-106 -97z" />
    <glyph glyph-name="noonyeh" unicode="&#xfee7;&#xfef2;" horiz-adv-x="1206" 
d="M1087 57q-8 1 -62 7q-72 8 -95 11q-19 3 -56 7.5t-53 6.5q-67 9 -103 16t-76 19q-30 9 -30 21q0 7 2 11l69 144q30 0 72 6q48 7 87 16q41 10 88 28q43 17 72 40q-14 43 -48 103q-35 63 -97 132l33 191q6 20 17 20q7 0 21 -14q74 -86 118 -169q46 -86 46 -178
q0 -19 -4 -46q-5 -32 -16 -64q-12 -33 -33 -67q-20 -32 -51 -55q76 -12 134 -23q47 -9 47 -59q0 -73 -26 -145q-24 -66 -67 -133q-41 -38 -104 -71q-68 -36 -135 -58q-75 -25 -152 -38q-82 -14 -155 -14q-77 0 -150 17q-72 17 -126 56t-86 101q-31 61 -31 151q0 99 35 204
q37 111 98 220q10 13 22 13q14 0 14 -16q0 -8 -3 -11q-68 -151 -68 -260q0 -67 30 -117t80 -79q52 -30 119 -45q69 -15 145 -15q63 0 130 9q58 8 129 28q64 18 119 42q58 25 100 57zM724 1092l142 129l142 -129l-142 -131zM298 -557l123 114l106 -97l106 97l123 -114
l-123 -113l-106 97l-106 -97z" />
    <glyph glyph-name="yehyeh" unicode="&#xfef3;&#xfef2;" horiz-adv-x="1206" 
d="M1087 57q-8 1 -62 7q-72 8 -95 11q-19 3 -56 7.5t-53 6.5q-67 9 -103 16t-76 19q-30 9 -30 21q0 7 2 11l69 144q30 0 72 6q48 7 87 16q41 10 88 28q43 17 72 40q-14 43 -48 103q-35 63 -97 132l33 191q6 20 17 20q7 0 21 -14q74 -86 118 -169q46 -86 46 -178
q0 -19 -4 -46q-5 -32 -16 -64q-12 -33 -33 -67q-20 -32 -51 -55q76 -12 134 -23q47 -9 47 -59q0 -73 -26 -145q-24 -66 -67 -133q-41 -38 -104 -71q-68 -36 -135 -58q-75 -25 -152 -38q-82 -14 -155 -14q-77 0 -150 17q-72 17 -126 56t-86 101q-31 61 -31 151q0 99 35 204
q37 111 98 220q10 13 22 13q14 0 14 -16q0 -8 -3 -11q-68 -151 -68 -260q0 -67 30 -117t80 -79q52 -30 119 -45q69 -15 145 -15q63 0 130 9q58 8 129 28q64 18 119 42q58 25 100 57zM803 -486l136 134l118 -115l117 115l137 -134l-137 -134l-117 115l-118 -115zM244 -557
l123 114l105 -97l106 97l123 -114l-123 -113l-106 97l-105 -97z" />
    <glyph glyph-name="ttehyeh" unicode="&#xfb68;&#xfef2;" horiz-adv-x="1206" 
d="M1087 57q-8 1 -62 7q-72 8 -95 11q-19 3 -56 7.5t-53 6.5q-67 9 -103 16t-76 19q-30 9 -30 21q0 7 2 11l69 144q30 0 72 6q48 7 87 16q41 10 88 28q43 17 72 40q-14 43 -48 103q-35 63 -97 132l33 191q6 20 17 20q7 0 21 -14q74 -86 118 -169q46 -86 46 -178
q0 -19 -4 -46q-5 -32 -16 -64q-12 -33 -33 -67q-20 -32 -51 -55q76 -12 134 -23q47 -9 47 -59q0 -73 -26 -145q-24 -66 -67 -133q-41 -38 -104 -71q-68 -36 -135 -58q-75 -25 -152 -38q-82 -14 -155 -14q-77 0 -150 17q-72 17 -126 56t-86 101q-31 61 -31 151q0 99 35 204
q37 111 98 220q10 13 22 13q14 0 14 -16q0 -8 -3 -11q-68 -151 -68 -260q0 -67 30 -117t80 -79q52 -30 119 -45q69 -15 145 -15q63 0 130 9q58 8 129 28q64 18 119 42q58 25 100 57zM838 1057l-32 215q-20 11 -20 28l39 79q16 -35 41 -46q24 -10 35 -25q0 -4 -11 -34
q-13 -35 -16 -42l-14 8q3 -33 7 -48q4 -16 4 -53v-36q0 -19 -5 -30l106 68q28 17 52 17q21 0 40 -11q17 -10 30 -26q10 -12 17 -30q6 -15 6 -21t-10 -24q-6 -11 -20 -33q-4 -6 -11.5 -16t-9.5 -14l-9 -14q-6 -6 -8 -9q-3 -4 -17 -4h-196q-36 0 -51 2q-21 3 -45 17l-74 46
q-8 3 -8 14q0 8 14 8q8 0 33 -5q30 -6 95 -6zM857 1032h200q-10 21 -32 40q-21 18 -47 18q-19 0 -39 -11zM298 -557l123 114l106 -97l106 97l123 -114l-123 -113l-106 97l-106 -97z" />
    <glyph glyph-name="pehyeh" unicode="&#xfb58;&#xfef2;" horiz-adv-x="1206" 
d="M1087 57q-8 1 -62 7q-72 8 -95 11q-19 3 -56 7.5t-53 6.5q-67 9 -103 16t-76 19q-30 9 -30 21q0 7 2 11l69 144q30 0 72 6q48 7 87 16q41 10 88 28q43 17 72 40q-14 43 -48 103q-35 63 -97 132l33 191q6 20 17 20q7 0 21 -14q74 -86 118 -169q46 -86 46 -178
q0 -19 -4 -46q-5 -32 -16 -64q-12 -33 -33 -67q-20 -32 -51 -55q76 -12 134 -23q47 -9 47 -59q0 -73 -26 -145q-24 -66 -67 -133q-41 -38 -104 -71q-68 -36 -135 -58q-75 -25 -152 -38q-82 -14 -155 -14q-77 0 -150 17q-72 17 -126 56t-86 101q-31 61 -31 151q0 99 35 204
q37 111 98 220q10 13 22 13q14 0 14 -16q0 -8 -3 -11q-68 -151 -68 -260q0 -67 30 -117t80 -79q52 -30 119 -45q69 -15 145 -15q63 0 130 9q58 8 129 28q64 18 119 42q58 25 100 57zM963 -366l91 -93l91 93l103 -106l-103 -101l-91 88l-91 -88l-103 101zM1054 -547l103 -104
l-103 -104l-103 104zM244 -584l123 114l105 -98l106 98l123 -114l-123 -114l-106 98l-105 -98z" />
    <glyph glyph-name="hmzyehhmz" unicode="&#xfe8b;&#xfe8a;" horiz-adv-x="1206" 
d="M1087 57q-8 1 -62 7q-72 8 -95 11q-19 3 -56 7.5t-53 6.5q-67 9 -103 16t-76 19q-30 9 -30 21q0 7 2 11l69 144q30 0 72 6q48 7 87 16q41 10 88 28q43 17 72 40q-14 43 -48 103q-35 63 -97 132l33 191q6 20 17 20q7 0 21 -14q74 -86 118 -169q46 -86 46 -178
q0 -19 -4 -46q-5 -32 -16 -64q-12 -33 -33 -67q-20 -32 -51 -55q76 -12 134 -23q47 -9 47 -59q0 -73 -26 -145q-24 -66 -67 -133q-41 -38 -104 -71q-68 -36 -135 -58q-75 -25 -152 -38q-82 -14 -155 -14q-77 0 -150 17q-72 17 -126 56t-86 101q-31 61 -31 151q0 99 35 204
q37 111 98 220q10 13 22 13q14 0 14 -16q0 -8 -3 -11q-68 -151 -68 -260q0 -67 30 -117t80 -79q52 -30 119 -45q69 -15 145 -15q63 0 130 9q58 8 129 28q64 18 119 42q58 25 100 57zM983 978q-49 0 -117 -13q-64 -12 -107 -64q6 42 25 68q21 29 43 44q-71 38 -71 98
q0 30 17 59q17 30 41 52q26 24 56 37t64 13q30 0 52 -12t22 -37q0 -17 -6 -27l-30 -63q-6 -11 -8 -11q-3 -3 -3 0q-8 0 -11 7q-3 8 -8 14q-3 4 -16 13q-10 7 -36 7q-16 0 -35 -5q-21 -6 -39 -17q30 -44 92 -53t121 -9q17 0 17 -11q0 -8 -3 -11zM355 612q-49 0 -117 -13
q-64 -12 -107 -64q6 42 25 68q21 29 43 44q-71 38 -71 98q0 30 17 59q17 30 41 52q26 24 56 37q33 14 64 14q28 0 52 -13q22 -12 22 -37q0 -17 -6 -27l-30 -63q-6 -11 -8 -11q-3 -3 -3 0q-8 0 -11 7q-3 8 -8 14t-16 14q-8 6 -36 6q-16 0 -35 -5q-24 -6 -39 -16
q31 -45 92 -54q62 -9 121 -9q17 0 17 -11q0 -8 -3 -11z" />
    <glyph glyph-name="behyehhmz" unicode="&#xfe91;&#xfe8a;" horiz-adv-x="1206" 
d="M1087 57q-8 1 -62 7q-72 8 -95 11q-19 3 -56 7.5t-53 6.5q-67 9 -103 16t-76 19q-30 9 -30 21q0 7 2 11l69 144q30 0 72 6q48 7 87 16q41 10 88 28q43 17 72 40q-14 43 -48 103q-35 63 -97 132l33 191q6 20 17 20q7 0 21 -14q74 -86 118 -169q46 -86 46 -178
q0 -19 -4 -46q-5 -32 -16 -64q-12 -33 -33 -67q-20 -32 -51 -55q76 -12 134 -23q47 -9 47 -59q0 -73 -26 -145q-24 -66 -67 -133q-41 -38 -104 -71q-68 -36 -135 -58q-75 -25 -152 -38q-82 -14 -155 -14q-77 0 -150 17q-72 17 -126 56t-86 101q-31 61 -31 151q0 99 35 204
q37 111 98 220q10 13 22 13q14 0 14 -16q0 -8 -3 -11q-68 -151 -68 -260q0 -67 30 -117t80 -79q52 -30 119 -45q69 -15 145 -15q63 0 130 9q58 8 129 28q64 18 119 42q58 25 100 57zM983 -437l142 128l142 -128l-142 -131zM355 612q-49 0 -117 -13q-64 -12 -107 -64
q6 42 25 68q21 29 43 44q-71 38 -71 98q0 30 17 59q17 30 41 52q26 24 56 37q33 14 64 14q28 0 52 -13q22 -12 22 -37q0 -17 -6 -27l-30 -63q-6 -11 -8 -11q-3 -3 -3 0q-8 0 -11 7q-3 8 -8 14t-16 14q-8 6 -36 6q-16 0 -35 -5q-24 -6 -39 -16q31 -45 92 -54q62 -9 121 -9
q17 0 17 -11q0 -8 -3 -11z" />
    <glyph glyph-name="tehyehhmz" unicode="&#xfe97;&#xfe8a;" horiz-adv-x="1206" 
d="M1087 57q-8 1 -62 7q-72 8 -95 11q-19 3 -56 7.5t-53 6.5q-67 9 -103 16t-76 19q-30 9 -30 21q0 7 2 11l69 144q30 0 72 6q48 7 87 16q41 10 88 28q43 17 72 40q-14 43 -48 103q-35 63 -97 132l33 191q6 20 17 20q7 0 21 -14q74 -86 118 -169q46 -86 46 -178
q0 -19 -4 -46q-5 -32 -16 -64q-12 -33 -33 -67q-20 -32 -51 -55q76 -12 134 -23q47 -9 47 -59q0 -73 -26 -145q-24 -66 -67 -133q-41 -38 -104 -71q-68 -36 -135 -58q-75 -25 -152 -38q-82 -14 -155 -14q-77 0 -150 17q-72 17 -126 56t-86 101q-31 61 -31 151q0 99 35 204
q37 111 98 220q10 13 22 13q14 0 14 -16q0 -8 -3 -11q-68 -151 -68 -260q0 -67 30 -117t80 -79q52 -30 119 -45q69 -15 145 -15q63 0 130 9q58 8 129 28q64 18 119 42q58 25 100 57zM666 1098l137 134l117 -115l118 115l136 -134l-136 -134l-118 115l-117 -115zM355 612
q-49 0 -117 -13q-64 -12 -107 -64q6 42 25 68q21 29 43 44q-71 38 -71 98q0 30 17 59q17 30 41 52q26 24 56 37q33 14 64 14q28 0 52 -13q22 -12 22 -37q0 -17 -6 -27l-30 -63q-6 -11 -8 -11q-3 -3 -3 0q-8 0 -11 7q-3 8 -8 14t-16 14q-8 6 -36 6q-16 0 -35 -5
q-24 -6 -39 -16q31 -45 92 -54q62 -9 121 -9q17 0 17 -11q0 -8 -3 -11z" />
    <glyph glyph-name="thehyehhmz" unicode="&#xfe9b;&#xfe8a;" horiz-adv-x="1206" 
d="M1087 57q-8 1 -62 7q-72 8 -95 11q-19 3 -56 7.5t-53 6.5q-67 9 -103 16t-76 19q-30 9 -30 21q0 7 2 11l69 144q30 0 72 6q48 7 87 16q41 10 88 28q43 17 72 40q-14 43 -48 103q-35 63 -97 132l33 191q6 20 17 20q7 0 21 -14q74 -86 118 -169q46 -86 46 -178
q0 -19 -4 -46q-5 -32 -16 -64q-12 -33 -33 -67q-20 -32 -51 -55q76 -12 134 -23q47 -9 47 -59q0 -73 -26 -145q-24 -66 -67 -133q-41 -38 -104 -71q-68 -36 -135 -58q-75 -25 -152 -38q-82 -14 -155 -14q-77 0 -150 17q-72 17 -126 56t-86 101q-31 61 -31 151q0 99 35 204
q37 111 98 220q10 13 22 13q14 0 14 -16q0 -8 -3 -11q-68 -151 -68 -260q0 -67 30 -117t80 -79q52 -30 119 -45q69 -15 145 -15q63 0 130 9q58 8 129 28q64 18 119 42q58 25 100 57zM680 1087l128 125l112 -109l112 109l129 -125l-129 -120l-112 101l-112 -101zM789 1300
l131 120l129 -120l-129 -126zM355 612q-49 0 -117 -13q-64 -12 -107 -64q6 42 25 68q21 29 43 44q-71 38 -71 98q0 30 17 59q17 30 41 52q26 24 56 37q33 14 64 14q28 0 52 -13q22 -12 22 -37q0 -17 -6 -27l-30 -63q-6 -11 -8 -11q-3 -3 -3 0q-8 0 -11 7q-3 8 -8 14t-16 14
q-8 6 -36 6q-16 0 -35 -5q-24 -6 -39 -16q31 -45 92 -54q62 -9 121 -9q17 0 17 -11q0 -8 -3 -11z" />
    <glyph glyph-name="noonyehhmz" unicode="&#xfee7;&#xfe8a;" horiz-adv-x="1206" 
d="M1087 57q-8 1 -62 7q-72 8 -95 11q-19 3 -56 7.5t-53 6.5q-67 9 -103 16t-76 19q-30 9 -30 21q0 7 2 11l69 144q30 0 72 6q48 7 87 16q41 10 88 28q43 17 72 40q-14 43 -48 103q-35 63 -97 132l33 191q6 20 17 20q7 0 21 -14q74 -86 118 -169q46 -86 46 -178
q0 -19 -4 -46q-5 -32 -16 -64q-12 -33 -33 -67q-20 -32 -51 -55q76 -12 134 -23q47 -9 47 -59q0 -73 -26 -145q-24 -66 -67 -133q-41 -38 -104 -71q-68 -36 -135 -58q-75 -25 -152 -38q-82 -14 -155 -14q-77 0 -150 17q-72 17 -126 56t-86 101q-31 61 -31 151q0 99 35 204
q37 111 98 220q10 13 22 13q14 0 14 -16q0 -8 -3 -11q-68 -151 -68 -260q0 -67 30 -117t80 -79q52 -30 119 -45q69 -15 145 -15q63 0 130 9q58 8 129 28q64 18 119 42q58 25 100 57zM724 1092l142 129l142 -129l-142 -131zM355 612q-49 0 -117 -13q-64 -12 -107 -64
q6 42 25 68q21 29 43 44q-71 38 -71 98q0 30 17 59q17 30 41 52q26 24 56 37q33 14 64 14q28 0 52 -13q22 -12 22 -37q0 -17 -6 -27l-30 -63q-6 -11 -8 -11q-3 -3 -3 0q-8 0 -11 7q-3 8 -8 14t-16 14q-8 6 -36 6q-16 0 -35 -5q-24 -6 -39 -16q31 -45 92 -54q62 -9 121 -9
q17 0 17 -11q0 -8 -3 -11z" />
    <glyph glyph-name="yehyehhmz" unicode="&#xfef3;&#xfe8a;" horiz-adv-x="1206" 
d="M1087 57q-8 1 -62 7q-72 8 -95 11q-19 3 -56 7.5t-53 6.5q-67 9 -103 16t-76 19q-30 9 -30 21q0 7 2 11l69 144q30 0 72 6q48 7 87 16q41 10 88 28q43 17 72 40q-14 43 -48 103q-35 63 -97 132l33 191q6 20 17 20q7 0 21 -14q74 -86 118 -169q46 -86 46 -178
q0 -19 -4 -46q-5 -32 -16 -64q-12 -33 -33 -67q-20 -32 -51 -55q76 -12 134 -23q47 -9 47 -59q0 -73 -26 -145q-24 -66 -67 -133q-41 -38 -104 -71q-68 -36 -135 -58q-75 -25 -152 -38q-82 -14 -155 -14q-77 0 -150 17q-72 17 -126 56t-86 101q-31 61 -31 151q0 99 35 204
q37 111 98 220q10 13 22 13q14 0 14 -16q0 -8 -3 -11q-68 -151 -68 -260q0 -67 30 -117t80 -79q52 -30 119 -45q69 -15 145 -15q63 0 130 9q58 8 129 28q64 18 119 42q58 25 100 57zM803 -486l136 134l118 -115l117 115l137 -134l-137 -134l-117 115l-118 -115zM355 612
q-49 0 -117 -13q-64 -12 -107 -64q6 42 25 68q21 29 43 44q-71 38 -71 98q0 30 17 59q17 30 41 52q26 24 56 37q33 14 64 14q28 0 52 -13q22 -12 22 -37q0 -17 -6 -27l-30 -63q-6 -11 -8 -11q-3 -3 -3 0q-8 0 -11 7q-3 8 -8 14t-16 14q-8 6 -36 6q-16 0 -35 -5
q-24 -6 -39 -16q31 -45 92 -54q62 -9 121 -9q17 0 17 -11q0 -8 -3 -11z" />
    <glyph glyph-name="ttehyehhmz" unicode="&#xfb68;&#xfe8a;" horiz-adv-x="1206" 
d="M1087 57q-8 1 -62 7q-72 8 -95 11q-19 3 -56 7.5t-53 6.5q-67 9 -103 16t-76 19q-30 9 -30 21q0 7 2 11l69 144q30 0 72 6q48 7 87 16q41 10 88 28q43 17 72 40q-14 43 -48 103q-35 63 -97 132l33 191q6 20 17 20q7 0 21 -14q74 -86 118 -169q46 -86 46 -178
q0 -19 -4 -46q-5 -32 -16 -64q-12 -33 -33 -67q-20 -32 -51 -55q76 -12 134 -23q47 -9 47 -59q0 -73 -26 -145q-24 -66 -67 -133q-41 -38 -104 -71q-68 -36 -135 -58q-75 -25 -152 -38q-82 -14 -155 -14q-77 0 -150 17q-72 17 -126 56t-86 101q-31 61 -31 151q0 99 35 204
q37 111 98 220q10 13 22 13q14 0 14 -16q0 -8 -3 -11q-68 -151 -68 -260q0 -67 30 -117t80 -79q52 -30 119 -45q69 -15 145 -15q63 0 130 9q58 8 129 28q64 18 119 42q58 25 100 57zM838 1057l-32 215q-20 11 -20 28l39 79q16 -35 41 -46q24 -10 35 -25q0 -4 -11 -34
q-13 -35 -16 -42l-14 8q3 -33 7 -48q4 -16 4 -53v-36q0 -19 -5 -30l106 68q28 17 52 17q21 0 40 -11q17 -10 30 -26q10 -12 17 -30q6 -15 6 -21t-10 -24q-6 -11 -20 -33q-4 -6 -11.5 -16t-9.5 -14l-9 -14q-6 -6 -8 -9q-3 -4 -17 -4h-196q-36 0 -51 2q-21 3 -45 17l-74 46
q-8 3 -8 14q0 8 14 8q8 0 33 -5q30 -6 95 -6zM857 1032h200q-10 21 -32 40q-21 18 -47 18q-19 0 -39 -11zM355 612q-49 0 -117 -13q-64 -12 -107 -64q6 42 25 68q21 29 43 44q-71 38 -71 98q0 30 17 59q17 30 41 52q26 24 56 37q33 14 64 14q28 0 52 -13q22 -12 22 -37
q0 -17 -6 -27l-30 -63q-6 -11 -8 -11q-3 -3 -3 0q-8 0 -11 7q-3 8 -8 14t-16 14q-8 6 -36 6q-16 0 -35 -5q-24 -6 -39 -16q31 -45 92 -54q62 -9 121 -9q17 0 17 -11q0 -8 -3 -11z" />
    <glyph glyph-name="pehyehhmz" unicode="&#xfb58;&#xfe8a;" horiz-adv-x="1206" 
d="M1087 57q-8 1 -62 7q-72 8 -95 11q-19 3 -56 7.5t-53 6.5q-67 9 -103 16t-76 19q-30 9 -30 21q0 7 2 11l69 144q30 0 72 6q48 7 87 16q41 10 88 28q43 17 72 40q-14 43 -48 103q-35 63 -97 132l33 191q6 20 17 20q7 0 21 -14q74 -86 118 -169q46 -86 46 -178
q0 -19 -4 -46q-5 -32 -16 -64q-12 -33 -33 -67q-20 -32 -51 -55q76 -12 134 -23q47 -9 47 -59q0 -73 -26 -145q-24 -66 -67 -133q-41 -38 -104 -71q-68 -36 -135 -58q-75 -25 -152 -38q-82 -14 -155 -14q-77 0 -150 17q-72 17 -126 56t-86 101q-31 61 -31 151q0 99 35 204
q37 111 98 220q10 13 22 13q14 0 14 -16q0 -8 -3 -11q-68 -151 -68 -260q0 -67 30 -117t80 -79q52 -30 119 -45q69 -15 145 -15q63 0 130 9q58 8 129 28q64 18 119 42q58 25 100 57zM963 -366l91 -93l91 93l103 -106l-103 -101l-91 88l-91 -88l-103 101zM1054 -547l103 -104
l-103 -104l-103 104z" />
    <glyph glyph-name="hmzmaksura" unicode="&#xfe8b;&#xfbfd;" horiz-adv-x="1206" 
d="M1087 57q-8 1 -62 7q-72 8 -95 11q-19 3 -56 7.5t-53 6.5q-67 9 -103 16t-76 19q-30 9 -30 21q0 7 2 11l69 144q30 0 72 6q48 7 87 16q41 10 88 28q43 17 72 40q-14 43 -48 103q-35 63 -97 132l33 191q6 20 17 20q7 0 21 -14q74 -86 118 -169q46 -86 46 -178
q0 -19 -4 -46q-5 -32 -16 -64q-12 -33 -33 -67q-20 -32 -51 -55q76 -12 134 -23q47 -9 47 -59q0 -73 -26 -145q-24 -66 -67 -133q-41 -38 -104 -71q-68 -36 -135 -58q-75 -25 -152 -38q-82 -14 -155 -14q-77 0 -150 17q-72 17 -126 56t-86 101q-31 61 -31 151q0 99 35 204
q37 111 98 220q10 13 22 13q14 0 14 -16q0 -8 -3 -11q-68 -151 -68 -260q0 -67 30 -117t80 -79q52 -30 119 -45q69 -15 145 -15q63 0 130 9q58 8 129 28q64 18 119 42q58 25 100 57zM983 978q-49 0 -117 -13q-64 -12 -107 -64q6 42 25 68q21 29 43 44q-71 38 -71 98
q0 30 17 59q17 30 41 52q26 24 56 37t64 13q30 0 52 -12t22 -37q0 -17 -6 -27l-30 -63q-6 -11 -8 -11q-3 -3 -3 0q-8 0 -11 7q-3 8 -8 14q-3 4 -16 13q-10 7 -36 7q-16 0 -35 -5q-21 -6 -39 -17q30 -44 92 -53t121 -9q17 0 17 -11q0 -8 -3 -11z" />
    <glyph glyph-name="behmaksura" unicode="&#xfe91;&#xfbfd;" horiz-adv-x="1206" 
d="M1087 57q-8 1 -62 7q-72 8 -95 11q-19 3 -56 7.5t-53 6.5q-67 9 -103 16t-76 19q-30 9 -30 21q0 7 2 11l69 144q30 0 72 6q48 7 87 16q41 10 88 28q43 17 72 40q-14 43 -48 103q-35 63 -97 132l33 191q6 20 17 20q7 0 21 -14q74 -86 118 -169q46 -86 46 -178
q0 -19 -4 -46q-5 -32 -16 -64q-12 -33 -33 -67q-20 -32 -51 -55q76 -12 134 -23q47 -9 47 -59q0 -73 -26 -145q-24 -66 -67 -133q-41 -38 -104 -71q-68 -36 -135 -58q-75 -25 -152 -38q-82 -14 -155 -14q-77 0 -150 17q-72 17 -126 56t-86 101q-31 61 -31 151q0 99 35 204
q37 111 98 220q10 13 22 13q14 0 14 -16q0 -8 -3 -11q-68 -151 -68 -260q0 -67 30 -117t80 -79q52 -30 119 -45q69 -15 145 -15q63 0 130 9q58 8 129 28q64 18 119 42q58 25 100 57zM983 -437l142 128l142 -128l-142 -131z" />
    <glyph glyph-name="tehmaksura" unicode="&#xfe97;&#xfbfd;" horiz-adv-x="1206" 
d="M1087 57q-8 1 -62 7q-72 8 -95 11q-19 3 -56 7.5t-53 6.5q-67 9 -103 16t-76 19q-30 9 -30 21q0 7 2 11l69 144q30 0 72 6q48 7 87 16q41 10 88 28q43 17 72 40q-14 43 -48 103q-35 63 -97 132l33 191q6 20 17 20q7 0 21 -14q74 -86 118 -169q46 -86 46 -178
q0 -19 -4 -46q-5 -32 -16 -64q-12 -33 -33 -67q-20 -32 -51 -55q76 -12 134 -23q47 -9 47 -59q0 -73 -26 -145q-24 -66 -67 -133q-41 -38 -104 -71q-68 -36 -135 -58q-75 -25 -152 -38q-82 -14 -155 -14q-77 0 -150 17q-72 17 -126 56t-86 101q-31 61 -31 151q0 99 35 204
q37 111 98 220q10 13 22 13q14 0 14 -16q0 -8 -3 -11q-68 -151 -68 -260q0 -67 30 -117t80 -79q52 -30 119 -45q69 -15 145 -15q63 0 130 9q58 8 129 28q64 18 119 42q58 25 100 57zM666 1098l137 134l117 -115l118 115l136 -134l-136 -134l-118 115l-117 -115z" />
    <glyph glyph-name="thehmaksura" unicode="&#xfe9b;&#xfbfd;" horiz-adv-x="1206" 
d="M1087 57q-8 1 -62 7q-72 8 -95 11q-19 3 -56 7.5t-53 6.5q-67 9 -103 16t-76 19q-30 9 -30 21q0 7 2 11l69 144q30 0 72 6q48 7 87 16q41 10 88 28q43 17 72 40q-14 43 -48 103q-35 63 -97 132l33 191q6 20 17 20q7 0 21 -14q74 -86 118 -169q46 -86 46 -178
q0 -19 -4 -46q-5 -32 -16 -64q-12 -33 -33 -67q-20 -32 -51 -55q76 -12 134 -23q47 -9 47 -59q0 -73 -26 -145q-24 -66 -67 -133q-41 -38 -104 -71q-68 -36 -135 -58q-75 -25 -152 -38q-82 -14 -155 -14q-77 0 -150 17q-72 17 -126 56t-86 101q-31 61 -31 151q0 99 35 204
q37 111 98 220q10 13 22 13q14 0 14 -16q0 -8 -3 -11q-68 -151 -68 -260q0 -67 30 -117t80 -79q52 -30 119 -45q69 -15 145 -15q63 0 130 9q58 8 129 28q64 18 119 42q58 25 100 57zM680 1087l128 125l112 -109l112 109l129 -125l-129 -120l-112 101l-112 -101zM789 1300
l131 120l129 -120l-129 -126z" />
    <glyph glyph-name="noonmaksura" unicode="&#xfee7;&#xfbfd;" horiz-adv-x="1206" 
d="M1087 57q-8 1 -62 7q-72 8 -95 11q-19 3 -56 7.5t-53 6.5q-67 9 -103 16t-76 19q-30 9 -30 21q0 7 2 11l69 144q30 0 72 6q48 7 87 16q41 10 88 28q43 17 72 40q-14 43 -48 103q-35 63 -97 132l33 191q6 20 17 20q7 0 21 -14q74 -86 118 -169q46 -86 46 -178
q0 -19 -4 -46q-5 -32 -16 -64q-12 -33 -33 -67q-20 -32 -51 -55q76 -12 134 -23q47 -9 47 -59q0 -73 -26 -145q-24 -66 -67 -133q-41 -38 -104 -71q-68 -36 -135 -58q-75 -25 -152 -38q-82 -14 -155 -14q-77 0 -150 17q-72 17 -126 56t-86 101q-31 61 -31 151q0 99 35 204
q37 111 98 220q10 13 22 13q14 0 14 -16q0 -8 -3 -11q-68 -151 -68 -260q0 -67 30 -117t80 -79q52 -30 119 -45q69 -15 145 -15q63 0 130 9q58 8 129 28q64 18 119 42q58 25 100 57zM724 1092l142 129l142 -129l-142 -131z" />
    <glyph glyph-name="yehmaksura" unicode="&#xfef3;&#xfbfd;" horiz-adv-x="1206" 
d="M1087 57q-8 1 -62 7q-72 8 -95 11q-19 3 -56 7.5t-53 6.5q-67 9 -103 16t-76 19q-30 9 -30 21q0 7 2 11l69 144q30 0 72 6q48 7 87 16q41 10 88 28q43 17 72 40q-14 43 -48 103q-35 63 -97 132l33 191q6 20 17 20q7 0 21 -14q74 -86 118 -169q46 -86 46 -178
q0 -19 -4 -46q-5 -32 -16 -64q-12 -33 -33 -67q-20 -32 -51 -55q76 -12 134 -23q47 -9 47 -59q0 -73 -26 -145q-24 -66 -67 -133q-41 -38 -104 -71q-68 -36 -135 -58q-75 -25 -152 -38q-82 -14 -155 -14q-77 0 -150 17q-72 17 -126 56t-86 101q-31 61 -31 151q0 99 35 204
q37 111 98 220q10 13 22 13q14 0 14 -16q0 -8 -3 -11q-68 -151 -68 -260q0 -67 30 -117t80 -79q52 -30 119 -45q69 -15 145 -15q63 0 130 9q58 8 129 28q64 18 119 42q58 25 100 57zM803 -486l136 134l118 -115l117 115l137 -134l-137 -134l-117 115l-118 -115z" />
    <glyph glyph-name="ttehmaksura" unicode="&#xfb68;&#xfbfd;" horiz-adv-x="1206" 
d="M1087 57q-8 1 -62 7q-72 8 -95 11q-19 3 -56 7.5t-53 6.5q-67 9 -103 16t-76 19q-30 9 -30 21q0 7 2 11l69 144q30 0 72 6q48 7 87 16q41 10 88 28q43 17 72 40q-14 43 -48 103q-35 63 -97 132l33 191q6 20 17 20q7 0 21 -14q74 -86 118 -169q46 -86 46 -178
q0 -19 -4 -46q-5 -32 -16 -64q-12 -33 -33 -67q-20 -32 -51 -55q76 -12 134 -23q47 -9 47 -59q0 -73 -26 -145q-24 -66 -67 -133q-41 -38 -104 -71q-68 -36 -135 -58q-75 -25 -152 -38q-82 -14 -155 -14q-77 0 -150 17q-72 17 -126 56t-86 101q-31 61 -31 151q0 99 35 204
q37 111 98 220q10 13 22 13q14 0 14 -16q0 -8 -3 -11q-68 -151 -68 -260q0 -67 30 -117t80 -79q52 -30 119 -45q69 -15 145 -15q63 0 130 9q58 8 129 28q64 18 119 42q58 25 100 57zM838 1057l-32 215q-20 11 -20 28l39 79q16 -35 41 -46q24 -10 35 -25q0 -4 -11 -34
q-13 -35 -16 -42l-14 8q3 -33 7 -48q4 -16 4 -53v-36q0 -19 -5 -30l106 68q28 17 52 17q21 0 40 -11q17 -10 30 -26q10 -12 17 -30q6 -15 6 -21t-10 -24q-6 -11 -20 -33q-4 -6 -11.5 -16t-9.5 -14l-9 -14q-6 -6 -8 -9q-3 -4 -17 -4h-196q-36 0 -51 2q-21 3 -45 17l-74 46
q-8 3 -8 14q0 8 14 8q8 0 33 -5q30 -6 95 -6zM857 1032h200q-10 21 -32 40q-21 18 -47 18q-19 0 -39 -11z" />
    <glyph glyph-name="pehmaksura" unicode="&#xfb58;&#xfbfd;" horiz-adv-x="1206" 
d="M1087 57q-8 1 -62 7q-72 8 -95 11q-19 3 -56 7.5t-53 6.5q-67 9 -103 16t-76 19q-30 9 -30 21q0 7 2 11l69 144q30 0 72 6q48 7 87 16q41 10 88 28q43 17 72 40q-14 43 -48 103q-35 63 -97 132l33 191q6 20 17 20q7 0 21 -14q74 -86 118 -169q46 -86 46 -178
q0 -19 -4 -46q-5 -32 -16 -64q-12 -33 -33 -67q-20 -32 -51 -55q76 -12 134 -23q47 -9 47 -59q0 -73 -26 -145q-24 -66 -67 -133q-41 -38 -104 -71q-68 -36 -135 -58q-75 -25 -152 -38q-82 -14 -155 -14q-77 0 -150 17q-72 17 -126 56t-86 101q-31 61 -31 151q0 99 35 204
q37 111 98 220q10 13 22 13q14 0 14 -16q0 -8 -3 -11q-68 -151 -68 -260q0 -67 30 -117t80 -79q52 -30 119 -45q69 -15 145 -15q63 0 130 9q58 8 129 28q64 18 119 42q58 25 100 57zM963 -366l91 -93l91 93l103 -106l-103 -101l-91 88l-91 -88l-103 101zM1054 -547l103 -104
l-103 -104l-103 104z" />
    <glyph glyph-name="jeemyeh" unicode="&#xfe9f;&#xfef2;" horiz-adv-x="1764" 
d="M1633 300q-29 4 -89 10q-40 4 -94 4q-130 0 -274 -23q-136 -22 -258 -64l193 -33q40 -6 54 -22q15 -17 15 -38q0 -15 -10 -62q-9 -42 -24 -87q-14 -42 -32 -83q-17 -39 -30 -52q-43 -39 -101 -73q-58 -33 -132 -58q-79 -26 -153 -40q-81 -15 -157 -15q-79 0 -153 18
q-75 18 -129 56q-54 37 -87 101q-33 63 -33 153q0 99 37 207q38 112 97 213q6 14 22 14q14 0 14 -14q0 -1 -2 -5q-1 -2 -1 -6q-68 -142 -68 -256q0 -75 28 -125q27 -49 78 -81q50 -32 115 -45q68 -14 139 -14q140 0 276 42q134 41 216 100q-90 15 -145 23q-69 10 -156 26
q-72 13 -124 27q-51 13 -51 28q0 8 3 11l82 163q103 52 218 84q105 29 279 53q-84 32 -141 52q-69 24 -143 24q-50 0 -68 -6q-21 -7 -28 -7q-19 0 -19 19q0 5 17 33q25 41 38 60q24 38 57 87q13 19 30 36q16 16 50 16q51 0 105 -40q56 -42 129 -86q78 -48 189 -86
q112 -39 284 -39q6 0 13 -3q9 -4 9 -11q0 -8 -3 -14zM1333 -74l142 129l142 -129l-142 -131zM298 -584l123 114l106 -98l106 98l123 -114l-123 -114l-106 98l-106 -98z" />
    <glyph glyph-name="khahyeh" unicode="&#xfea7;&#xfef2;" horiz-adv-x="1764" 
d="M1633 300q-29 4 -89 10q-40 4 -94 4q-130 0 -274 -23q-136 -22 -258 -64l193 -33q40 -6 54 -22q15 -17 15 -38q0 -15 -10 -62q-9 -42 -24 -87q-14 -42 -32 -83q-17 -39 -30 -52q-43 -39 -101 -73q-58 -33 -132 -58q-79 -26 -153 -40q-81 -15 -157 -15q-79 0 -153 18
q-75 18 -129 56q-54 37 -87 101q-33 63 -33 153q0 99 37 207q38 112 97 213q6 14 22 14q14 0 14 -14q0 -1 -2 -5q-1 -2 -1 -6q-68 -142 -68 -256q0 -75 28 -125q27 -49 78 -81q50 -32 115 -45q68 -14 139 -14q140 0 276 42q134 41 216 100q-90 15 -145 23q-69 10 -156 26
q-72 13 -124 27q-51 13 -51 28q0 8 3 11l82 163q103 52 218 84q105 29 279 53q-84 32 -141 52q-69 24 -143 24q-50 0 -68 -6q-21 -7 -28 -7q-19 0 -19 19q0 5 17 33q25 41 38 60q24 38 57 87q13 19 30 36q16 16 50 16q51 0 105 -40q56 -42 129 -86q78 -48 189 -86
q112 -39 284 -39q6 0 13 -3q9 -4 9 -11q0 -8 -3 -14zM298 -584l123 114l106 -98l106 98l123 -114l-123 -114l-106 98l-106 -98zM904 1092l142 129l142 -129l-142 -131z" />
    <glyph glyph-name="jeemyehhmz" unicode="&#xfe9f;&#xfe8a;" horiz-adv-x="1764" 
d="M1633 300q-29 4 -89 10q-40 4 -94 4q-130 0 -274 -23q-136 -22 -258 -64l193 -33q40 -6 54 -22q15 -17 15 -38q0 -15 -10 -62q-9 -42 -24 -87q-14 -42 -32 -83q-17 -39 -30 -52q-43 -39 -101 -73q-58 -33 -132 -58q-79 -26 -153 -40q-81 -15 -157 -15q-79 0 -153 18
q-75 18 -129 56q-54 37 -87 101q-33 63 -33 153q0 99 37 207q38 112 97 213q6 14 22 14q14 0 14 -14q0 -1 -2 -5q-1 -2 -1 -6q-68 -142 -68 -256q0 -75 28 -125q27 -49 78 -81q50 -32 115 -45q68 -14 139 -14q140 0 276 42q134 41 216 100q-90 15 -145 23q-69 10 -156 26
q-72 13 -124 27q-51 13 -51 28q0 8 3 11l82 163q103 52 218 84q105 29 279 53q-84 32 -141 52q-69 24 -143 24q-50 0 -68 -6q-21 -7 -28 -7q-19 0 -19 19q0 5 17 33q25 41 38 60q24 38 57 87q13 19 30 36q16 16 50 16q51 0 105 -40q56 -42 129 -86q78 -48 189 -86
q112 -39 284 -39q6 0 13 -3q9 -4 9 -11q0 -8 -3 -14zM314 612q-49 0 -117 -13q-64 -12 -107 -64q6 42 25 68q21 29 43 44q-71 38 -71 98q0 30 17 59q17 30 41 52q26 24 56 37q33 14 64 14q28 0 52 -13q22 -12 22 -37q0 -17 -6 -27l-30 -63q-6 -11 -8 -11q-3 -3 -3 0
q-8 0 -11 7q-3 8 -8 14t-16 14q-8 6 -36 6q-16 0 -35 -5q-24 -6 -39 -16q31 -45 92 -54q62 -9 121 -9q17 0 17 -11q0 -8 -3 -11zM1333 -128l142 128l142 -128l-142 -131z" />
    <glyph glyph-name="khahyehhmz" unicode="&#xfea7;&#xfe8a;" horiz-adv-x="1764" 
d="M1633 300q-29 4 -89 10q-40 4 -94 4q-130 0 -274 -23q-136 -22 -258 -64l193 -33q40 -6 54 -22q15 -17 15 -38q0 -15 -10 -62q-9 -42 -24 -87q-14 -42 -32 -83q-17 -39 -30 -52q-43 -39 -101 -73q-58 -33 -132 -58q-79 -26 -153 -40q-81 -15 -157 -15q-79 0 -153 18
q-75 18 -129 56q-54 37 -87 101q-33 63 -33 153q0 99 37 207q38 112 97 213q6 14 22 14q14 0 14 -14q0 -1 -2 -5q-1 -2 -1 -6q-68 -142 -68 -256q0 -75 28 -125q27 -49 78 -81q50 -32 115 -45q68 -14 139 -14q140 0 276 42q134 41 216 100q-90 15 -145 23q-69 10 -156 26
q-72 13 -124 27q-51 13 -51 28q0 8 3 11l82 163q103 52 218 84q105 29 279 53q-84 32 -141 52q-69 24 -143 24q-50 0 -68 -6q-21 -7 -28 -7q-19 0 -19 19q0 5 17 33q25 41 38 60q24 38 57 87q13 19 30 36q16 16 50 16q51 0 105 -40q56 -42 129 -86q78 -48 189 -86
q112 -39 284 -39q6 0 13 -3q9 -4 9 -11q0 -8 -3 -14zM314 612q-49 0 -117 -13q-64 -12 -107 -64q6 42 25 68q21 29 43 44q-71 38 -71 98q0 30 17 59q17 30 41 52q26 24 56 37q33 14 64 14q28 0 52 -13q22 -12 22 -37q0 -17 -6 -27l-30 -63q-6 -11 -8 -11q-3 -3 -3 0
q-8 0 -11 7q-3 8 -8 14t-16 14q-8 6 -36 6q-16 0 -35 -5q-24 -6 -39 -16q31 -45 92 -54q62 -9 121 -9q17 0 17 -11q0 -8 -3 -11zM904 1092l142 129l142 -129l-142 -131z" />
    <glyph glyph-name="chayeh" unicode="&#xfb7c;&#xfef2;" horiz-adv-x="1764" 
d="M1633 300q-29 4 -89 10q-40 4 -94 4q-130 0 -274 -23q-136 -22 -258 -64l193 -33q40 -6 54 -22q15 -17 15 -38q0 -15 -10 -62q-9 -42 -24 -87q-14 -42 -32 -83q-17 -39 -30 -52q-43 -39 -101 -73q-58 -33 -132 -58q-79 -26 -153 -40q-81 -15 -157 -15q-79 0 -153 18
q-75 18 -129 56q-54 37 -87 101q-33 63 -33 153q0 99 37 207q38 112 97 213q6 14 22 14q14 0 14 -14q0 -1 -2 -5q-1 -2 -1 -6q-68 -142 -68 -256q0 -75 28 -125q27 -49 78 -81q50 -32 115 -45q68 -14 139 -14q140 0 276 42q134 41 216 100q-90 15 -145 23q-69 10 -156 26
q-72 13 -124 27q-51 13 -51 28q0 8 3 11l82 163q103 52 218 84q105 29 279 53q-84 32 -141 52q-69 24 -143 24q-50 0 -68 -6q-21 -7 -28 -7q-19 0 -19 19q0 5 17 33q25 41 38 60q24 38 57 87q13 19 30 36q16 16 50 16q51 0 105 -40q56 -42 129 -86q78 -48 189 -86
q112 -39 284 -39q6 0 13 -3q9 -4 9 -11q0 -8 -3 -14zM1234 -330l129 113l112 -98l112 98l128 -113l-128 -108l-112 91l-112 -91zM1343 -138l132 108l128 -108l-128 -113zM298 -584l123 114l106 -98l106 98l123 -114l-123 -114l-106 98l-106 -98z" />
    <glyph glyph-name="chayehhmz" unicode="&#xfb7c;&#xfe8a;" horiz-adv-x="1764" 
d="M1633 300q-29 4 -89 10q-40 4 -94 4q-130 0 -274 -23q-136 -22 -258 -64l193 -33q40 -6 54 -22q15 -17 15 -38q0 -15 -10 -62q-9 -42 -24 -87q-14 -42 -32 -83q-17 -39 -30 -52q-43 -39 -101 -73q-58 -33 -132 -58q-79 -26 -153 -40q-81 -15 -157 -15q-79 0 -153 18
q-75 18 -129 56q-54 37 -87 101q-33 63 -33 153q0 99 37 207q38 112 97 213q6 14 22 14q14 0 14 -14q0 -1 -2 -5q-1 -2 -1 -6q-68 -142 -68 -256q0 -75 28 -125q27 -49 78 -81q50 -32 115 -45q68 -14 139 -14q140 0 276 42q134 41 216 100q-90 15 -145 23q-69 10 -156 26
q-72 13 -124 27q-51 13 -51 28q0 8 3 11l82 163q103 52 218 84q105 29 279 53q-84 32 -141 52q-69 24 -143 24q-50 0 -68 -6q-21 -7 -28 -7q-19 0 -19 19q0 5 17 33q25 41 38 60q24 38 57 87q13 19 30 36q16 16 50 16q51 0 105 -40q56 -42 129 -86q78 -48 189 -86
q112 -39 284 -39q6 0 13 -3q9 -4 9 -11q0 -8 -3 -14zM314 612q-49 0 -117 -13q-64 -12 -107 -64q6 42 25 68q21 29 43 44q-71 38 -71 98q0 30 17 59q17 30 41 52q26 24 56 37q33 14 64 14q28 0 52 -13q22 -12 22 -37q0 -17 -6 -27l-30 -63q-6 -11 -8 -11q-3 -3 -3 0
q-8 0 -11 7q-3 8 -8 14t-16 14q-8 6 -36 6q-16 0 -35 -5q-24 -6 -39 -16q31 -45 92 -54q62 -9 121 -9q17 0 17 -11q0 -8 -3 -11zM1234 -330l129 113l112 -98l112 98l128 -113l-128 -108l-112 91l-112 -91zM1343 -138l132 108l128 -108l-128 -113z" />
    <glyph glyph-name="jeemmaksuraf" unicode="&#xfea0;&#xfbfd;" horiz-adv-x="1873" 
d="M1638 336q-27 5 -64 7q-23 1 -94 1q3 -45 36 -85q33 -41 106 -41h251v-218h-292q-88 0 -130 63t-42 145q0 73 27 136q-135 -7 -281 -41q-139 -32 -257 -71l213 -38q40 -6 54 -22q15 -17 15 -38q0 -15 -10 -62q-9 -42 -24 -87q-14 -42 -32 -83q-17 -39 -30 -52
q-43 -39 -101 -73q-58 -33 -132 -58q-78 -26 -152 -40q-79 -15 -156 -15q-79 0 -151 18t-127 56t-88 101q-32 61 -32 153q0 99 37 207q38 112 97 213q8 11 16 11q16 0 16 -22q-68 -142 -68 -256q0 -71 30 -122q29 -50 79 -80q51 -31 115 -44q68 -14 136 -14q66 0 141 11
q72 10 138 30q64 19 122 44q55 24 94 55q-90 15 -145 23q-83 12 -156 24q-65 11 -125 26q-52 13 -52 30q0 8 3 11l76 161q97 49 234 97q126 44 293 67q-84 32 -153 56q-84 29 -156 29q-47 0 -68 -7t-27 -7q-19 0 -19 19q0 7 16 33q25 41 38 60q16 25 58 88q11 16 30 35
q16 16 49 16q47 0 101 -39q57 -41 135 -86q85 -49 194 -86q117 -40 277 -40q7 0 14 -3q8 -3 8 -10q0 -8 -3 -14zM1387 -287l142 129l142 -129l-142 -131z" />
    <glyph glyph-name="khahmaksuraf" unicode="&#xfea8;&#xfbfd;" horiz-adv-x="1873" 
d="M1638 336q-27 5 -64 7q-23 1 -94 1q3 -45 36 -85q33 -41 106 -41h251v-218h-292q-88 0 -130 63t-42 145q0 73 27 136q-135 -7 -281 -41q-139 -32 -257 -71l213 -38q40 -6 54 -22q15 -17 15 -38q0 -15 -10 -62q-9 -42 -24 -87q-14 -42 -32 -83q-17 -39 -30 -52
q-43 -39 -101 -73q-58 -33 -132 -58q-78 -26 -152 -40q-79 -15 -156 -15q-79 0 -151 18t-127 56t-88 101q-32 61 -32 153q0 99 37 207q38 112 97 213q8 11 16 11q16 0 16 -22q-68 -142 -68 -256q0 -71 30 -122q29 -50 79 -80q51 -31 115 -44q68 -14 136 -14q66 0 141 11
q72 10 138 30q64 19 122 44q55 24 94 55q-90 15 -145 23q-83 12 -156 24q-65 11 -125 26q-52 13 -52 30q0 8 3 11l76 161q97 49 234 97q126 44 293 67q-84 32 -153 56q-84 29 -156 29q-47 0 -68 -7t-27 -7q-19 0 -19 19q0 7 16 33q25 41 38 60q16 25 58 88q11 16 30 35
q16 16 49 16q47 0 101 -39q57 -41 135 -86q85 -49 194 -86q117 -40 277 -40q7 0 14 -3q8 -3 8 -10q0 -8 -3 -14zM904 1092l142 129l142 -129l-142 -131z" />
    <glyph glyph-name="jeemyehf" unicode="&#xfea0;&#xfef2;" horiz-adv-x="1873" 
d="M1638 336q-27 5 -64 7q-23 1 -94 1q3 -45 36 -85q33 -41 106 -41h251v-218h-292q-88 0 -130 63t-42 145q0 73 27 136q-135 -7 -281 -41q-139 -32 -257 -71l213 -38q40 -6 54 -22q15 -17 15 -38q0 -15 -10 -62q-9 -42 -24 -87q-14 -42 -32 -83q-17 -39 -30 -52
q-43 -39 -101 -73q-58 -33 -132 -58q-78 -26 -152 -40q-79 -15 -156 -15q-79 0 -151 18t-127 56t-88 101q-32 61 -32 153q0 99 37 207q38 112 97 213q8 11 16 11q16 0 16 -22q-68 -142 -68 -256q0 -71 30 -122q29 -50 79 -80q51 -31 115 -44q68 -14 136 -14q66 0 141 11
q72 10 138 30q64 19 122 44q55 24 94 55q-90 15 -145 23q-83 12 -156 24q-65 11 -125 26q-52 13 -52 30q0 8 3 11l76 161q97 49 234 97q126 44 293 67q-84 32 -153 56q-84 29 -156 29q-47 0 -68 -7t-27 -7q-19 0 -19 19q0 7 16 33q25 41 38 60q16 25 58 88q11 16 30 35
q16 16 49 16q47 0 101 -39q57 -41 135 -86q85 -49 194 -86q117 -40 277 -40q7 0 14 -3q8 -3 8 -10q0 -8 -3 -14zM1387 -287l142 129l142 -129l-142 -131zM298 -584l123 114l106 -98l106 98l123 -114l-123 -114l-106 98l-106 -98z" />
    <glyph glyph-name="khahyehf" unicode="&#xfea8;&#xfef2;" horiz-adv-x="1873" 
d="M1638 336q-27 5 -64 7q-23 1 -94 1q3 -45 36 -85q33 -41 106 -41h251v-218h-292q-88 0 -130 63t-42 145q0 73 27 136q-135 -7 -281 -41q-139 -32 -257 -71l213 -38q40 -6 54 -22q15 -17 15 -38q0 -15 -10 -62q-9 -42 -24 -87q-14 -42 -32 -83q-17 -39 -30 -52
q-43 -39 -101 -73q-58 -33 -132 -58q-78 -26 -152 -40q-79 -15 -156 -15q-79 0 -151 18t-127 56t-88 101q-32 61 -32 153q0 99 37 207q38 112 97 213q8 11 16 11q16 0 16 -22q-68 -142 -68 -256q0 -71 30 -122q29 -50 79 -80q51 -31 115 -44q68 -14 136 -14q66 0 141 11
q72 10 138 30q64 19 122 44q55 24 94 55q-90 15 -145 23q-83 12 -156 24q-65 11 -125 26q-52 13 -52 30q0 8 3 11l76 161q97 49 234 97q126 44 293 67q-84 32 -153 56q-84 29 -156 29q-47 0 -68 -7t-27 -7q-19 0 -19 19q0 7 16 33q25 41 38 60q16 25 58 88q11 16 30 35
q16 16 49 16q47 0 101 -39q57 -41 135 -86q85 -49 194 -86q117 -40 277 -40q7 0 14 -3q8 -3 8 -10q0 -8 -3 -14zM298 -584l123 114l106 -98l106 98l123 -114l-123 -114l-106 98l-106 -98zM904 1092l142 129l142 -129l-142 -131z" />
    <glyph glyph-name="jeemyehhmzf" unicode="&#xfea0;&#xfe8a;" horiz-adv-x="1873" 
d="M1638 336q-27 5 -64 7q-23 1 -94 1q3 -45 36 -85q33 -41 106 -41h251v-218h-292q-88 0 -130 63t-42 145q0 73 27 136q-135 -7 -281 -41q-139 -32 -257 -71l213 -38q40 -6 54 -22q15 -17 15 -38q0 -15 -10 -62q-9 -42 -24 -87q-14 -42 -32 -83q-17 -39 -30 -52
q-43 -39 -101 -73q-58 -33 -132 -58q-78 -26 -152 -40q-79 -15 -156 -15q-79 0 -151 18t-127 56t-88 101q-32 61 -32 153q0 99 37 207q38 112 97 213q8 11 16 11q16 0 16 -22q-68 -142 -68 -256q0 -71 30 -122q29 -50 79 -80q51 -31 115 -44q68 -14 136 -14q66 0 141 11
q72 10 138 30q64 19 122 44q55 24 94 55q-90 15 -145 23q-83 12 -156 24q-65 11 -125 26q-52 13 -52 30q0 8 3 11l76 161q97 49 234 97q126 44 293 67q-84 32 -153 56q-84 29 -156 29q-47 0 -68 -7t-27 -7q-19 0 -19 19q0 7 16 33q25 41 38 60q16 25 58 88q11 16 30 35
q16 16 49 16q47 0 101 -39q57 -41 135 -86q85 -49 194 -86q117 -40 277 -40q7 0 14 -3q8 -3 8 -10q0 -8 -3 -14zM369 612q-50 0 -118 -13q-63 -12 -106 -64q6 44 24 68q20 27 44 44q-71 38 -71 98q0 31 16 59q17 30 41 52q26 24 56 37q33 14 64 14q28 0 52 -13
q22 -12 22 -37q0 -18 -5 -27l-30 -63q-6 -11 -8 -11q-3 -3 -3 0q-8 0 -11 7q-3 8 -8 14q-3 4 -17 14q-8 6 -35 6q-17 0 -36 -5t-38 -17q30 -44 92 -53q61 -9 121 -9q16 0 16 -11q0 -9 -2 -11zM1387 -287l142 129l142 -129l-142 -131z" />
    <glyph glyph-name="khahyehhmzf" unicode="&#xfea8;&#xfe8a;" horiz-adv-x="1873" 
d="M1638 336q-27 5 -64 7q-23 1 -94 1q3 -45 36 -85q33 -41 106 -41h251v-218h-292q-88 0 -130 63t-42 145q0 73 27 136q-135 -7 -281 -41q-139 -32 -257 -71l213 -38q40 -6 54 -22q15 -17 15 -38q0 -15 -10 -62q-9 -42 -24 -87q-14 -42 -32 -83q-17 -39 -30 -52
q-43 -39 -101 -73q-58 -33 -132 -58q-78 -26 -152 -40q-79 -15 -156 -15q-79 0 -151 18t-127 56t-88 101q-32 61 -32 153q0 99 37 207q38 112 97 213q8 11 16 11q16 0 16 -22q-68 -142 -68 -256q0 -71 30 -122q29 -50 79 -80q51 -31 115 -44q68 -14 136 -14q66 0 141 11
q72 10 138 30q64 19 122 44q55 24 94 55q-90 15 -145 23q-83 12 -156 24q-65 11 -125 26q-52 13 -52 30q0 8 3 11l76 161q97 49 234 97q126 44 293 67q-84 32 -153 56q-84 29 -156 29q-47 0 -68 -7t-27 -7q-19 0 -19 19q0 7 16 33q25 41 38 60q16 25 58 88q11 16 30 35
q16 16 49 16q47 0 101 -39q57 -41 135 -86q85 -49 194 -86q117 -40 277 -40q7 0 14 -3q8 -3 8 -10q0 -8 -3 -14zM369 612q-50 0 -118 -13q-63 -12 -106 -64q6 44 24 68q20 27 44 44q-71 38 -71 98q0 31 16 59q17 30 41 52q26 24 56 37q33 14 64 14q28 0 52 -13
q22 -12 22 -37q0 -18 -5 -27l-30 -63q-6 -11 -8 -11q-3 -3 -3 0q-8 0 -11 7q-3 8 -8 14q-3 4 -17 14q-8 6 -35 6q-17 0 -36 -5t-38 -17q30 -44 92 -53q61 -9 121 -9q16 0 16 -11q0 -9 -2 -11zM904 1092l142 129l142 -129l-142 -131z" />
    <glyph glyph-name="chamaksuraf" unicode="&#xfb7d;&#xfbfd;" horiz-adv-x="1873" 
d="M1638 336q-27 5 -64 7q-23 1 -94 1q3 -45 36 -85q33 -41 106 -41h251v-218h-292q-88 0 -130 63t-42 145q0 73 27 136q-135 -7 -281 -41q-139 -32 -257 -71l213 -38q40 -6 54 -22q15 -17 15 -38q0 -15 -10 -62q-9 -42 -24 -87q-14 -42 -32 -83q-17 -39 -30 -52
q-43 -39 -101 -73q-58 -33 -132 -58q-78 -26 -152 -40q-79 -15 -156 -15q-79 0 -151 18t-127 56t-88 101q-32 61 -32 153q0 99 37 207q38 112 97 213q8 11 16 11q16 0 16 -22q-68 -142 -68 -256q0 -71 30 -122q29 -50 79 -80q51 -31 115 -44q68 -14 136 -14q66 0 141 11
q72 10 138 30q64 19 122 44q55 24 94 55q-90 15 -145 23q-83 12 -156 24q-65 11 -125 26q-52 13 -52 30q0 8 3 11l76 161q97 49 234 97q126 44 293 67q-84 32 -153 56q-84 29 -156 29q-47 0 -68 -7t-27 -7q-19 0 -19 19q0 7 16 33q25 41 38 60q16 25 58 88q11 16 30 35
q16 16 49 16q47 0 101 -39q57 -41 135 -86q85 -49 194 -86q117 -40 277 -40q7 0 14 -3q8 -3 8 -10q0 -8 -3 -14zM1428 -134l101 -98l101 98l115 -112l-115 -106l-101 93l-101 -93l-115 106zM1529 -325l115 -109l-115 -109l-115 109z" />
    <glyph glyph-name="chayehf" unicode="&#xfb7d;&#xfef2;" horiz-adv-x="1873" 
d="M1638 336q-27 5 -64 7q-23 1 -94 1q3 -45 36 -85q33 -41 106 -41h251v-218h-292q-88 0 -130 63t-42 145q0 73 27 136q-135 -7 -281 -41q-139 -32 -257 -71l213 -38q40 -6 54 -22q15 -17 15 -38q0 -15 -10 -62q-9 -42 -24 -87q-14 -42 -32 -83q-17 -39 -30 -52
q-43 -39 -101 -73q-58 -33 -132 -58q-78 -26 -152 -40q-79 -15 -156 -15q-79 0 -151 18t-127 56t-88 101q-32 61 -32 153q0 99 37 207q38 112 97 213q8 11 16 11q16 0 16 -22q-68 -142 -68 -256q0 -71 30 -122q29 -50 79 -80q51 -31 115 -44q68 -14 136 -14q66 0 141 11
q72 10 138 30q64 19 122 44q55 24 94 55q-90 15 -145 23q-83 12 -156 24q-65 11 -125 26q-52 13 -52 30q0 8 3 11l76 161q97 49 234 97q126 44 293 67q-84 32 -153 56q-84 29 -156 29q-47 0 -68 -7t-27 -7q-19 0 -19 19q0 7 16 33q25 41 38 60q16 25 58 88q11 16 30 35
q16 16 49 16q47 0 101 -39q57 -41 135 -86q85 -49 194 -86q117 -40 277 -40q7 0 14 -3q8 -3 8 -10q0 -8 -3 -14zM1428 -134l101 -98l101 98l115 -112l-115 -106l-101 93l-101 -93l-115 106zM1529 -325l115 -109l-115 -109l-115 109zM298 -584l123 114l106 -98l106 98
l123 -114l-123 -114l-106 98l-106 -98z" />
    <glyph glyph-name="chayehhmzf" unicode="&#xfb7d;&#xfe8a;" horiz-adv-x="1873" 
d="M1638 336q-27 5 -64 7q-23 1 -94 1q3 -45 36 -85q33 -41 106 -41h251v-218h-292q-88 0 -130 63t-42 145q0 73 27 136q-135 -7 -281 -41q-139 -32 -257 -71l213 -38q40 -6 54 -22q15 -17 15 -38q0 -15 -10 -62q-9 -42 -24 -87q-14 -42 -32 -83q-17 -39 -30 -52
q-43 -39 -101 -73q-58 -33 -132 -58q-78 -26 -152 -40q-79 -15 -156 -15q-79 0 -151 18t-127 56t-88 101q-32 61 -32 153q0 99 37 207q38 112 97 213q8 11 16 11q16 0 16 -22q-68 -142 -68 -256q0 -71 30 -122q29 -50 79 -80q51 -31 115 -44q68 -14 136 -14q66 0 141 11
q72 10 138 30q64 19 122 44q55 24 94 55q-90 15 -145 23q-83 12 -156 24q-65 11 -125 26q-52 13 -52 30q0 8 3 11l76 161q97 49 234 97q126 44 293 67q-84 32 -153 56q-84 29 -156 29q-47 0 -68 -7t-27 -7q-19 0 -19 19q0 7 16 33q25 41 38 60q16 25 58 88q11 16 30 35
q16 16 49 16q47 0 101 -39q57 -41 135 -86q85 -49 194 -86q117 -40 277 -40q7 0 14 -3q8 -3 8 -10q0 -8 -3 -14zM369 612q-50 0 -118 -13q-63 -12 -106 -64q6 44 24 68q20 27 44 44q-71 38 -71 98q0 31 16 59q17 30 41 52q26 24 56 37q33 14 64 14q28 0 52 -13
q22 -12 22 -37q0 -18 -5 -27l-30 -63q-6 -11 -8 -11q-3 -3 -3 0q-8 0 -11 7q-3 8 -8 14q-3 4 -17 14q-8 6 -35 6q-17 0 -36 -5t-38 -17q30 -44 92 -53q61 -9 121 -9q16 0 16 -11q0 -9 -2 -11zM1428 -134l101 -98l101 98l115 -112l-115 -106l-101 93l-101 -93l-115 106z
M1529 -325l115 -109l-115 -109l-115 109z" />
    <glyph glyph-name="dadmaksura" unicode="&#xfebf;&#xfbfd;" horiz-adv-x="2509" 
d="M724 -71q-18 7 -35 15t-17 31q0 24 2 39q4 30 7 45q1 7 3.5 21t4.5 22q5 23 10 29q17 33 61 82q41 45 106 97q60 48 128 82t128 34q74 0 126 -66l109 -142h109l596 334q70 38 128 38q54 0 106 -27q51 -26 92 -67q40 -40 64 -88q25 -50 25 -89q0 -19 -21 -65
q-8 -17 -23.5 -51t-21.5 -47q-30 -60 -63 -129q-10 -21 -21 -24t-31 -3h-966q-30 0 -42 15q-4 5 -12 14.5t-12 14.5l-117 153q-12 20 -36 28q-21 7 -46 7q-37 0 -77 -15q-49 -18 -79 -35q-40 -22 -71 -45q-25 -18 -52 -41q56 -15 116 -22q18 -2 130 -18q64 -9 107 -27
t43 -54q0 -15 -9 -51q-8 -31 -25 -74q-18 -44 -30 -70q-15 -31 -23 -39q-43 -43 -102 -76q-60 -34 -136 -60q-78 -27 -155 -41q-83 -15 -161 -15t-151 17q-71 17 -125 54t-86 99q-32 61 -32 147q0 89 35 200t97 229q7 16 27 16q11 0 11 -11q0 -14 -6 -21q-26 -62 -47 -136
q-18 -65 -18 -118q0 -71 30 -122q29 -50 79 -80q51 -31 115 -44q68 -14 139 -14q123 0 246 33q124 33 202 82q-132 15 -183 20q-88 9 -150 29zM1647 218h671q-35 75 -99 126q-69 55 -149 55q-49 0 -88 -19zM1543 956l142 128l142 -128l-142 -131z" />
    <glyph glyph-name="dadyeh" unicode="&#xfebf;&#xfef2;" horiz-adv-x="2509" 
d="M724 -71q-18 7 -35 15t-17 31q0 24 2 39q4 30 7 45q1 7 3.5 21t4.5 22q5 23 10 29q17 33 61 82q41 45 106 97q60 48 128 82t128 34q74 0 126 -66l109 -142h109l596 334q70 38 128 38q54 0 106 -27q51 -26 92 -67q40 -40 64 -88q25 -50 25 -89q0 -19 -21 -65
q-8 -17 -23.5 -51t-21.5 -47q-30 -60 -63 -129q-10 -21 -21 -24t-31 -3h-966q-30 0 -42 15q-4 5 -12 14.5t-12 14.5l-117 153q-12 20 -36 28q-21 7 -46 7q-37 0 -77 -15q-49 -18 -79 -35q-40 -22 -71 -45q-25 -18 -52 -41q56 -15 116 -22q18 -2 130 -18q64 -9 107 -27
t43 -54q0 -15 -9 -51q-8 -31 -25 -74q-18 -44 -30 -70q-15 -31 -23 -39q-43 -43 -102 -76q-60 -34 -136 -60q-78 -27 -155 -41q-83 -15 -161 -15t-151 17q-71 17 -125 54t-86 99q-32 61 -32 147q0 89 35 200t97 229q7 16 27 16q11 0 11 -11q0 -14 -6 -21q-26 -62 -47 -136
q-18 -65 -18 -118q0 -71 30 -122q29 -50 79 -80q51 -31 115 -44q68 -14 139 -14q123 0 246 33q124 33 202 82q-132 15 -183 20q-88 9 -150 29zM1647 218h671q-35 75 -99 126q-69 55 -149 55q-49 0 -88 -19zM312 -704l123 114l106 -98l105 98l123 -114l-123 -114l-105 98
l-106 -98zM1543 956l142 128l142 -128l-142 -131z" />
    <glyph glyph-name="dadyehhmz" unicode="&#xfebf;&#xfe8a;" horiz-adv-x="2509" 
d="M724 -71q-18 7 -35 15t-17 31q0 24 2 39q4 30 7 45q1 7 3.5 21t4.5 22q5 23 10 29q17 33 61 82q41 45 106 97q60 48 128 82t128 34q74 0 126 -66l109 -142h109l596 334q70 38 128 38q54 0 106 -27q51 -26 92 -67q40 -40 64 -88q25 -50 25 -89q0 -19 -21 -65
q-8 -17 -23.5 -51t-21.5 -47q-30 -60 -63 -129q-10 -21 -21 -24t-31 -3h-966q-30 0 -42 15q-4 5 -12 14.5t-12 14.5l-117 153q-12 20 -36 28q-21 7 -46 7q-37 0 -77 -15q-49 -18 -79 -35q-40 -22 -71 -45q-25 -18 -52 -41q56 -15 116 -22q18 -2 130 -18q64 -9 107 -27
t43 -54q0 -15 -9 -51q-8 -31 -25 -74q-18 -44 -30 -70q-15 -31 -23 -39q-43 -43 -102 -76q-60 -34 -136 -60q-78 -27 -155 -41q-83 -15 -161 -15t-151 17q-71 17 -125 54t-86 99q-32 61 -32 147q0 89 35 200t97 229q7 16 27 16q11 0 11 -11q0 -14 -6 -21q-26 -62 -47 -136
q-18 -65 -18 -118q0 -71 30 -122q29 -50 79 -80q51 -31 115 -44q68 -14 139 -14q123 0 246 33q124 33 202 82q-132 15 -183 20q-88 9 -150 29zM1647 218h671q-35 75 -99 126q-69 55 -149 55q-49 0 -88 -19zM1543 956l142 128l142 -128l-142 -131zM355 612q-49 0 -117 -13
q-64 -12 -107 -64q6 42 25 68q21 29 43 44q-71 38 -71 98q0 30 17 59q17 30 41 52q26 24 56 37q33 14 64 14q28 0 52 -13q22 -12 22 -37q0 -17 -6 -27l-30 -63q-6 -11 -8 -11q-3 -3 -3 0q-8 0 -11 7q-3 8 -8 14t-16 14q-8 6 -36 6q-16 0 -35 -5q-24 -6 -39 -16
q31 -45 92 -54q62 -9 121 -9q17 0 17 -11q0 -8 -3 -11z" />
    <glyph glyph-name="dadmaksuraf" unicode="&#xfec0;&#xfbfd;" horiz-adv-x="2555" 
d="M724 -71q-18 7 -35 15t-17 31q0 24 2 39q4 30 7 45q1 7 3.5 21t4.5 22q5 23 10 29q17 33 61 82q41 45 106 97q60 48 128 82t128 34q74 0 126 -66l109 -142h88l587 331q70 41 136 41q63 0 118 -25q51 -23 87 -58q35 -33 53 -70q18 -36 18 -57q0 -23 -21 -65
q-23 -45 -80 -97h213v-218h-1226q-30 0 -42 15q-4 5 -12 14.5t-12 14.5l-117 153q-12 20 -36 28q-21 7 -46 7q-37 0 -77 -15q-49 -18 -79 -35q-40 -22 -71 -45q-25 -18 -52 -41q56 -15 116 -22q18 -2 130 -18q64 -9 107 -27t43 -54q0 -15 -9 -51q-8 -31 -25 -74
q-18 -44 -30 -70q-15 -31 -23 -39q-43 -43 -102 -76q-60 -34 -136 -60q-78 -27 -155 -41q-83 -15 -161 -15t-151 17q-71 17 -125 54t-86 99q-32 61 -32 147q0 89 35 200t97 229q7 16 27 16q11 0 11 -11q0 -14 -6 -21q-26 -62 -47 -136q-18 -65 -18 -118q0 -71 30 -122
q29 -50 79 -80q51 -31 115 -44q68 -14 139 -14q123 0 246 33q124 33 202 82q-132 15 -183 20q-88 9 -150 29zM1622 218h453q50 0 104 18q58 19 98 40q-37 55 -97 89q-61 34 -132 34q-49 0 -104 -25zM1543 956l142 128l142 -128l-142 -131z" />
    <glyph glyph-name="dadyehf" unicode="&#xfec0;&#xfef2;" horiz-adv-x="2555" 
d="M724 -71q-18 7 -35 15t-17 31q0 24 2 39q4 30 7 45q1 7 3.5 21t4.5 22q5 23 10 29q17 33 61 82q41 45 106 97q60 48 128 82t128 34q74 0 126 -66l109 -142h88l587 331q70 41 136 41q63 0 118 -25q51 -23 87 -58q35 -33 53 -70q18 -36 18 -57q0 -23 -21 -65
q-23 -45 -80 -97h213v-218h-1226q-30 0 -42 15q-4 5 -12 14.5t-12 14.5l-117 153q-12 20 -36 28q-21 7 -46 7q-37 0 -77 -15q-49 -18 -79 -35q-40 -22 -71 -45q-25 -18 -52 -41q56 -15 116 -22q18 -2 130 -18q64 -9 107 -27t43 -54q0 -15 -9 -51q-8 -31 -25 -74
q-18 -44 -30 -70q-15 -31 -23 -39q-43 -43 -102 -76q-60 -34 -136 -60q-78 -27 -155 -41q-83 -15 -161 -15t-151 17q-71 17 -125 54t-86 99q-32 61 -32 147q0 89 35 200t97 229q7 16 27 16q11 0 11 -11q0 -14 -6 -21q-26 -62 -47 -136q-18 -65 -18 -118q0 -71 30 -122
q29 -50 79 -80q51 -31 115 -44q68 -14 139 -14q123 0 246 33q124 33 202 82q-132 15 -183 20q-88 9 -150 29zM1622 218h453q50 0 104 18q58 19 98 40q-37 55 -97 89q-61 34 -132 34q-49 0 -104 -25zM399 -704l123 114l106 -98l106 98l123 -114l-123 -114l-106 98l-106 -98z
M1543 956l142 128l142 -128l-142 -131z" />
    <glyph glyph-name="dadyehhmzf" unicode="&#xfec0;&#xfe8a;" horiz-adv-x="2555" 
d="M724 -71q-18 7 -35 15t-17 31q0 24 2 39q4 30 7 45q1 7 3.5 21t4.5 22q5 23 10 29q17 33 61 82q41 45 106 97q60 48 128 82t128 34q74 0 126 -66l109 -142h88l587 331q70 41 136 41q63 0 118 -25q51 -23 87 -58q35 -33 53 -70q18 -36 18 -57q0 -23 -21 -65
q-23 -45 -80 -97h213v-218h-1226q-30 0 -42 15q-4 5 -12 14.5t-12 14.5l-117 153q-12 20 -36 28q-21 7 -46 7q-37 0 -77 -15q-49 -18 -79 -35q-40 -22 -71 -45q-25 -18 -52 -41q56 -15 116 -22q18 -2 130 -18q64 -9 107 -27t43 -54q0 -15 -9 -51q-8 -31 -25 -74
q-18 -44 -30 -70q-15 -31 -23 -39q-43 -43 -102 -76q-60 -34 -136 -60q-78 -27 -155 -41q-83 -15 -161 -15t-151 17q-71 17 -125 54t-86 99q-32 61 -32 147q0 89 35 200t97 229q7 16 27 16q11 0 11 -11q0 -14 -6 -21q-26 -62 -47 -136q-18 -65 -18 -118q0 -71 30 -122
q29 -50 79 -80q51 -31 115 -44q68 -14 139 -14q123 0 246 33q124 33 202 82q-132 15 -183 20q-88 9 -150 29zM1622 218h453q50 0 104 18q58 19 98 40q-37 55 -97 89q-61 34 -132 34q-49 0 -104 -25zM355 612q-49 0 -117 -13q-64 -12 -107 -64q6 42 25 68q21 29 43 44
q-71 38 -71 98q0 30 17 59q17 30 41 52q26 24 56 37q33 14 64 14q28 0 52 -13q22 -12 22 -37q0 -17 -6 -27l-30 -63q-6 -11 -8 -11q-3 -3 -3 0q-8 0 -11 7q-3 8 -8 14t-16 14q-8 6 -36 6q-16 0 -35 -5q-24 -6 -39 -16q31 -45 92 -54q62 -9 121 -9q17 0 17 -11q0 -8 -3 -11z
M1543 956l142 128l142 -128l-142 -131z" />
    <glyph glyph-name="fehyeh" unicode="&#xfed3;&#xfef2;" horiz-adv-x="1201" 
d="M298 421q-69 -144 -69 -246q0 -73 30 -124q30 -50 81 -82q52 -32 117 -45q70 -14 141 -14q132 0 269 38q133 37 217 101q-3 0 -56 7t-86 11q-68 7 -156 20q-56 8 -124 22q-50 10 -50 25q0 4 9 26q7 17 23 53l33 76q66 3 159 22q95 19 183 77q-3 34 -14 89q-8 40 -25 94
q-13 -63 -64 -94q-52 -32 -105 -32q-68 0 -124 47t-56 142q0 59 13 118q13 57 40 112q26 51 60 84q33 32 75 32q52 0 100 -39q49 -40 86 -105q39 -68 61 -151q24 -90 24 -174q0 -79 -18 -146t-84 -133q48 -6 96 -14q42 -7 55 -12q18 -7 24 -16t6 -26q0 -25 -7 -63
q-8 -44 -18 -82q-8 -31 -23 -76q-12 -36 -23 -47q-42 -45 -104 -82q-66 -39 -139 -65q-83 -29 -160 -43q-84 -15 -168 -15q-213 0 -303 96t-90 235q0 97 34 199q36 108 94 205q11 25 25 25q16 0 16 -14q0 -7 -5 -16zM691 677q24 -19 57 -27q35 -8 68 -8q62 0 112 27
q-32 44 -64 67q-35 26 -69 26q-63 0 -104 -85zM664 1242l142 129l142 -129l-142 -131zM298 -554l123 114l106 -98l106 98l123 -114l-123 -114l-106 98l-106 -98z" />
    <glyph glyph-name="qafyeh" unicode="&#xfed7;&#xfef2;" horiz-adv-x="1201" 
d="M298 421q-69 -144 -69 -246q0 -73 30 -124q30 -50 81 -82q52 -32 117 -45q70 -14 141 -14q132 0 269 38q133 37 217 101q-3 0 -56 7t-86 11q-68 7 -156 20q-56 8 -124 22q-50 10 -50 25q0 4 9 26q7 17 23 53l33 76q66 3 159 22q95 19 183 77q-3 34 -14 89q-8 40 -25 94
q-13 -63 -64 -94q-52 -32 -105 -32q-68 0 -124 47t-56 142q0 59 13 118q13 57 40 112q26 51 60 84q33 32 75 32q52 0 100 -39q49 -40 86 -105q39 -68 61 -151q24 -90 24 -174q0 -79 -18 -146t-84 -133q48 -6 96 -14q42 -7 55 -12q18 -7 24 -16t6 -26q0 -25 -7 -63
q-8 -44 -18 -82q-8 -31 -23 -76q-12 -36 -23 -47q-42 -45 -104 -82q-66 -39 -139 -65q-83 -29 -160 -43q-84 -15 -168 -15q-213 0 -303 96t-90 235q0 97 34 199q36 108 94 205q11 25 25 25q16 0 16 -14q0 -7 -5 -16zM691 677q24 -19 57 -27q35 -8 68 -8q62 0 112 27
q-32 44 -64 67q-35 26 -69 26q-63 0 -104 -85zM579 1207l136 134l118 -115l117 115l137 -134l-137 -134l-117 115l-118 -115zM298 -554l123 114l106 -98l106 98l123 -114l-123 -114l-106 98l-106 -98z" />
    <glyph glyph-name="fehyahhmz" unicode="&#xfed3;&#xfe8a;" horiz-adv-x="1201" 
d="M298 421q-69 -144 -69 -246q0 -73 30 -124q30 -50 81 -82q52 -32 117 -45q70 -14 141 -14q132 0 269 38q133 37 217 101q-3 0 -56 7t-86 11q-68 7 -156 20q-56 8 -124 22q-50 10 -50 25q0 4 9 26q7 17 23 53l33 76q66 3 159 22q95 19 183 77q-3 34 -14 89q-8 40 -25 94
q-13 -63 -64 -94q-52 -32 -105 -32q-68 0 -124 47t-56 142q0 59 13 118q13 57 40 112q26 51 60 84q33 32 75 32q52 0 100 -39q49 -40 86 -105q39 -68 61 -151q24 -90 24 -174q0 -79 -18 -146t-84 -133q48 -6 96 -14q42 -7 55 -12q18 -7 24 -16t6 -26q0 -25 -7 -63
q-8 -44 -18 -82q-8 -31 -23 -76q-12 -36 -23 -47q-42 -45 -104 -82q-66 -39 -139 -65q-83 -29 -160 -43q-84 -15 -168 -15q-213 0 -303 96t-90 235q0 97 34 199q36 108 94 205q11 25 25 25q16 0 16 -14q0 -7 -5 -16zM691 677q24 -19 57 -27q35 -8 68 -8q62 0 112 27
q-32 44 -64 67q-35 26 -69 26q-63 0 -104 -85zM314 612q-49 0 -117 -13q-64 -12 -107 -64q6 42 25 68q21 29 43 44q-71 38 -71 98q0 30 17 59q17 30 41 52q26 24 56 37q33 14 64 14q28 0 52 -13q22 -12 22 -37q0 -17 -6 -27l-30 -63q-6 -11 -8 -11q-3 -3 -3 0q-8 0 -11 7
q-3 8 -8 14t-16 14q-8 6 -36 6q-16 0 -35 -5q-24 -6 -39 -16q31 -45 92 -54q62 -9 121 -9q17 0 17 -11q0 -8 -3 -11zM664 1242l142 129l142 -129l-142 -131z" />
    <glyph glyph-name="qafyehhmz" unicode="&#xfed7;&#xfe8a;" horiz-adv-x="1201" 
d="M298 421q-69 -144 -69 -246q0 -73 30 -124q30 -50 81 -82q52 -32 117 -45q70 -14 141 -14q132 0 269 38q133 37 217 101q-3 0 -56 7t-86 11q-68 7 -156 20q-56 8 -124 22q-50 10 -50 25q0 4 9 26q7 17 23 53l33 76q66 3 159 22q95 19 183 77q-3 34 -14 89q-8 40 -25 94
q-13 -63 -64 -94q-52 -32 -105 -32q-68 0 -124 47t-56 142q0 59 13 118q13 57 40 112q26 51 60 84q33 32 75 32q52 0 100 -39q49 -40 86 -105q39 -68 61 -151q24 -90 24 -174q0 -79 -18 -146t-84 -133q48 -6 96 -14q42 -7 55 -12q18 -7 24 -16t6 -26q0 -25 -7 -63
q-8 -44 -18 -82q-8 -31 -23 -76q-12 -36 -23 -47q-42 -45 -104 -82q-66 -39 -139 -65q-83 -29 -160 -43q-84 -15 -168 -15q-213 0 -303 96t-90 235q0 97 34 199q36 108 94 205q11 25 25 25q16 0 16 -14q0 -7 -5 -16zM691 677q24 -19 57 -27q35 -8 68 -8q62 0 112 27
q-32 44 -64 67q-35 26 -69 26q-63 0 -104 -85zM314 612q-49 0 -117 -13q-64 -12 -107 -64q6 42 25 68q21 29 43 44q-71 38 -71 98q0 30 17 59q17 30 41 52q26 24 56 37q33 14 64 14q28 0 52 -13q22 -12 22 -37q0 -17 -6 -27l-30 -63q-6 -11 -8 -11q-3 -3 -3 0q-8 0 -11 7
q-3 8 -8 14t-16 14q-8 6 -36 6q-16 0 -35 -5q-24 -6 -39 -16q31 -45 92 -54q62 -9 121 -9q17 0 17 -11q0 -8 -3 -11zM579 1207l136 134l118 -115l117 115l137 -134l-137 -134l-117 115l-118 -115z" />
    <glyph glyph-name="vehyeh" unicode="&#xfb6c;&#xfef2;" horiz-adv-x="1201" 
d="M298 421q-69 -144 -69 -246q0 -73 30 -124q30 -50 81 -82q52 -32 117 -45q70 -14 141 -14q132 0 269 38q133 37 217 101q-3 0 -56 7t-86 11q-68 7 -156 20q-56 8 -124 22q-50 10 -50 25q0 4 9 26q7 17 23 53l33 76q66 3 159 22q95 19 183 77q-3 34 -14 89q-8 40 -25 94
q-13 -63 -64 -94q-52 -32 -105 -32q-68 0 -124 47t-56 142q0 59 13 118q13 57 40 112q26 51 60 84q33 32 75 32q52 0 100 -39q49 -40 86 -105q39 -68 61 -151q24 -90 24 -174q0 -79 -18 -146t-84 -133q48 -6 96 -14q42 -7 55 -12q18 -7 24 -16t6 -26q0 -25 -7 -63
q-8 -44 -18 -82q-8 -31 -23 -76q-12 -36 -23 -47q-42 -45 -104 -82q-66 -39 -139 -65q-83 -29 -160 -43q-84 -15 -168 -15q-213 0 -303 96t-90 235q0 97 34 199q36 108 94 205q11 25 25 25q16 0 16 -14q0 -7 -5 -16zM691 677q24 -19 57 -27q35 -8 68 -8q62 0 112 27
q-32 44 -64 67q-35 26 -69 26q-63 0 -104 -85zM593 1196l128 126l112 -110l112 110l128 -126l-128 -120l-112 101l-112 -101zM702 1409l131 120l128 -120l-128 -126zM298 -554l123 114l106 -98l106 98l123 -114l-123 -114l-106 98l-106 -98z" />
    </font>
</defs>
</svg>
