<?xml version="1.0" standalone="no"?>
<!DOCTYPE svg PUBLIC "-//W3C//DTD SVG 1.1//EN" "http://www.w3.org/Graphics/SVG/1.1/DTD/svg11.dtd" >
<svg xmlns="http://www.w3.org/2000/svg" xmlns:xlink="http://www.w3.org/1999/xlink" version="1.1">
<metadata>
Created by FontForge 20170731 at Tue Dec 29 15:42:32 2020
 By Aleksey,,,
Copyright (c) 2014 by AbdoFonts. All rights reserved.
</metadata>
<defs>
<font id="AbdoLine-Heavy" horiz-adv-x="0" >
  <font-face 
    font-family="AbdoLine-Heavy"
    font-weight="400"
    font-stretch="normal"
    units-per-em="2048"
    panose-1="2 0 5 0 3 0 0 2 0 4"
    ascent="1480"
    descent="-568"
    bbox="-505 -822 13683 2149"
    underline-thickness="150"
    underline-position="-275"
    unicode-range="U+0020-FEFA"
  />
<missing-glyph horiz-adv-x="1616" 
d="M295 997h-57v-129h-101v399h259v-399h-101v129zM1338 -109h-101v237h-57v-237h-101v237h-58v-237h-101v289h418v-289zM451 1267h101v-109h158v-290h-259v399zM1024 868h-259v290h158v109h101v-399zM1338 868h-259v290h259v-290zM642 319h-260v290h260v-290zM866 -109
h-260v289h260v-289zM956 319h-101v238h-58v-238h-101v290h260v-290zM292 180h260v-93h-101v41h-58v-185h58v41h101v-93h-260v289zM1322 557v-65h158v-173h-259v52h158v69h-158v169h259v-52h-158zM238 448v-129h-101v399h204v-52h-103v-166h103v-52h-103zM1111 557v-238h-101
v399h101v-109h69v-52h-69zM866 920h57v186h-57v-186zM483 371h58v186h-58v-186zM552 920h57v186h-57v-186zM707 -57h58v185h-58v-185zM1180 920h57v186h-57v-186zM238 1049h57v166h-57v-166zM238 -109h-101v79h101v-79z" />
    <glyph glyph-name="hmzyehf" unicode="&#xfe8c;&#xfef2;" horiz-adv-x="1512" 
d="M357 -677l127 116l109 -99l108 99l125 -116l-125 -118l-108 102l-109 -102zM1122 830q-54 0 -117 -12q-64 -12 -107 -64q6 42 25 68q20 27 44 44q-71 38 -71 98q0 31 16 59q17 30 41 52t56 36q33 14 64 14q29 0 52 -12q22 -12 22 -37q0 -16 -6 -27l-30 -63q-6 -11 -8 -11
q-3 -3 -3 0q-7 0 -10 7q-1 4 -9 13q-5 6 -16 14q-10 7 -36 7q-13 0 -35 -6t-38 -16q30 -44 91 -53q68 -10 122 -10q16 0 16 -11q0 -8 -3 -11zM726 -71q-15 5 -34 15q-18 9 -18 31q0 17 3 41q5 37 8 52q2 11 5.5 29.5t4.5 21.5q5 26 9 31q15 31 63 83q47 51 108 99
q60 47 129 82q67 34 124 34q72 0 125 -66l110 -142h150v-240h-183q-31 0 -43 15q-16 20 -23 29l-112 150q-33 41 -87 41q-35 0 -74 -14q-41 -15 -72 -31q-35 -18 -64 -40q-36 -27 -49 -38q47 -14 111 -21q80 -9 125 -16q58 -9 99 -27t41 -53q0 -17 -9 -55q-8 -33 -25 -79
q-17 -45 -30 -77q-14 -34 -23 -43q-43 -43 -102 -76q-57 -32 -136 -61q-74 -27 -155 -42q-83 -15 -161 -15q-84 0 -151 17q-70 18 -125 56t-88 101q-32 61 -32 153q0 93 34 207q35 116 108 236q7 16 27 16q11 0 11 -11q0 -14 -6 -22q-27 -64 -47 -135q-18 -65 -18 -119
q0 -73 30 -122q31 -51 79 -80q50 -30 115 -42q66 -12 136 -12q124 0 237 28q112 28 181 67q-96 11 -169 18q-82 8 -137 26z" />
    <glyph glyph-name="behyehf" unicode="&#xfe92;&#xfef2;" horiz-adv-x="1512" 
d="M1215 -273l148 131l144 -131l-144 -134zM357 -677l127 116l109 -99l108 99l125 -116l-125 -118l-108 102l-109 -102zM726 -71q-15 5 -34 15q-18 9 -18 31q0 17 3 41q5 37 8 52q2 11 5.5 29.5t4.5 21.5q5 25 10 31q17 33 62 83q47 51 108 99q60 47 129 82q67 34 124 34
q72 0 125 -66l110 -142h150v-240h-183q-31 0 -43 15q-16 20 -23 29l-112 150q-33 41 -87 41q-35 0 -74 -14q-41 -15 -72 -31q-35 -18 -64 -40q-36 -27 -49 -38q47 -14 111 -21q80 -9 125 -16q58 -9 99 -27t41 -53q0 -17 -9 -55q-8 -33 -25 -79q-17 -45 -30 -77
q-14 -34 -23 -43q-43 -43 -102 -76q-57 -32 -136 -61q-74 -27 -155 -42q-83 -15 -161 -15q-84 0 -151 17q-70 18 -125 56t-88 101q-32 61 -32 153q0 93 34 207q35 116 108 236q7 16 27 16q11 0 11 -11q0 -14 -6 -22q-27 -64 -47 -135q-18 -65 -18 -119q0 -73 30 -122
q31 -51 79 -80q50 -30 115 -42q66 -12 136 -12q124 0 237 28q112 28 181 67q-96 11 -169 18q-82 8 -137 26z" />
    <glyph glyph-name="tehyehf" unicode="&#xfe98;&#xfef2;" horiz-adv-x="1512" 
d="M781 961l142 137l120 -118l120 118l140 -137l-140 -139l-120 120l-120 -120zM357 -677l127 116l109 -99l108 99l125 -116l-125 -118l-108 102l-109 -102zM726 -71q-15 5 -34 15q-18 9 -18 31q0 17 3 41q5 37 8 52q2 11 5.5 29.5t4.5 21.5q5 25 10 31q17 33 62 83
q47 51 108 99q60 47 129 82q67 34 124 34q72 0 125 -66l110 -142h150v-240h-183q-31 0 -43 15q-16 20 -23 29l-112 150q-33 41 -87 41q-35 0 -74 -14q-41 -15 -72 -31q-35 -18 -64 -40q-36 -27 -49 -38q47 -14 111 -21q80 -9 125 -16q58 -9 99 -27t41 -53q0 -17 -9 -55
q-8 -33 -25 -79q-17 -45 -30 -77q-14 -34 -23 -43q-43 -43 -102 -76q-57 -32 -136 -61q-74 -27 -155 -42q-83 -15 -161 -15q-84 0 -151 17q-70 18 -125 56t-88 101q-32 61 -32 153q0 93 34 207q35 116 108 236q7 16 27 16q11 0 11 -11q0 -14 -6 -22q-27 -64 -47 -135
q-18 -65 -18 -119q0 -73 30 -122q31 -51 79 -80q50 -30 115 -42q66 -12 136 -12q124 0 237 28q112 28 181 67q-96 11 -169 18q-82 8 -137 26z" />
    <glyph glyph-name="thehyehf" unicode="&#xfe9c;&#xfef2;" horiz-adv-x="1512" 
d="M357 -677l127 116l109 -99l108 99l125 -116l-125 -118l-108 102l-109 -102zM784 811l134 128l114 -112l115 112l131 -128l-131 -123l-115 104l-114 -104zM898 1029l134 123l131 -123l-131 -128zM726 -71q-15 5 -34 15q-18 9 -18 31q0 17 3 41q5 37 8 52q2 11 5.5 29.5
t4.5 21.5q5 25 10 31q17 33 62 83q47 51 108 99q60 47 129 82q67 34 124 34q72 0 125 -66l110 -142h150v-240h-183q-31 0 -43 15q-16 20 -23 29l-112 150q-33 41 -87 41q-35 0 -74 -14q-41 -15 -72 -31q-35 -18 -64 -40q-36 -27 -49 -38q47 -14 111 -21q80 -9 125 -16
q58 -9 99 -27t41 -53q0 -17 -9 -55q-8 -33 -25 -79q-17 -45 -30 -77q-14 -34 -23 -43q-43 -43 -102 -76q-57 -32 -136 -61q-74 -27 -155 -42q-83 -15 -161 -15q-84 0 -151 17q-70 18 -125 56t-88 101q-32 61 -32 153q0 93 34 207q35 116 108 236q7 16 27 16q11 0 11 -11
q0 -14 -6 -22q-27 -64 -47 -135q-18 -65 -18 -119q0 -73 30 -122q31 -51 79 -80q50 -30 115 -42q66 -12 136 -12q124 0 237 28q112 28 181 67q-96 11 -169 18q-82 8 -137 26z" />
    <glyph glyph-name="noonyehf" unicode="&#xfee8;&#xfef2;" horiz-adv-x="1512" 
d="M896 956l147 131l145 -131l-145 -134zM357 -677l127 116l109 -99l108 99l125 -116l-125 -118l-108 102l-109 -102zM726 -71q-15 5 -34 15q-18 9 -18 31q0 17 3 41q5 37 8 52q2 11 5.5 29.5t4.5 21.5q5 25 10 31q17 33 62 83q47 51 108 99q60 47 129 82q67 34 124 34
q72 0 125 -66l110 -142h150v-240h-183q-31 0 -43 15q-16 20 -23 29l-112 150q-33 41 -87 41q-35 0 -74 -14q-41 -15 -72 -31q-35 -18 -64 -40q-36 -27 -49 -38q47 -14 111 -21q80 -9 125 -16q58 -9 99 -27t41 -53q0 -17 -9 -55q-8 -33 -25 -79q-17 -45 -30 -77
q-14 -34 -23 -43q-43 -43 -102 -76q-57 -32 -136 -61q-74 -27 -155 -42q-83 -15 -161 -15q-84 0 -151 17q-70 18 -125 56t-88 101q-32 61 -32 153q0 93 34 207q35 116 108 236q7 16 27 16q11 0 11 -11q0 -14 -6 -22q-27 -64 -47 -135q-18 -65 -18 -119q0 -73 30 -122
q31 -51 79 -80q50 -30 115 -42q66 -12 136 -12q124 0 237 28q112 28 181 67q-96 11 -169 18q-82 8 -137 26z" />
    <glyph glyph-name="yehyehf" unicode="&#xfef4;&#xfef2;" horiz-adv-x="1512" 
d="M357 -677l127 116l109 -99l108 99l125 -116l-125 -118l-108 102l-109 -102zM1188 -486l106 104l-106 106l134 131l131 -131l-107 -106l107 -104l-131 -134zM726 -71q-15 5 -34 15q-18 9 -18 31q0 17 3 41q5 37 8 52q2 11 5.5 29.5t4.5 21.5q5 25 10 31q17 33 62 83
q47 51 108 99q60 47 129 82q67 34 124 34q72 0 125 -66l110 -142h150v-240h-183q-31 0 -43 15q-16 20 -23 29l-112 150q-33 41 -87 41q-35 0 -74 -14q-41 -15 -72 -31q-35 -18 -64 -40q-36 -27 -49 -38q47 -14 111 -21q80 -9 125 -16q58 -9 99 -27t41 -53q0 -17 -9 -55
q-8 -33 -25 -79q-17 -45 -30 -77q-14 -34 -23 -43q-43 -43 -102 -76q-57 -32 -136 -61q-74 -27 -155 -42q-83 -15 -161 -15q-84 0 -151 17q-70 18 -125 56t-88 101q-32 61 -32 153q0 93 34 207q35 116 108 236q7 16 27 16q11 0 11 -11q0 -14 -6 -22q-27 -64 -47 -135
q-18 -65 -18 -119q0 -73 30 -122q31 -51 79 -80q50 -30 115 -42q66 -12 136 -12q124 0 237 28q112 28 181 67q-96 11 -169 18q-82 8 -137 26z" />
    <glyph glyph-name="ttehyehf" unicode="&#xfb69;&#xfef2;" horiz-adv-x="1512" 
d="M357 -677l127 116l109 -99l108 99l125 -116l-125 -118l-108 102l-109 -102zM991 784l-33 215q-19 10 -19 28l39 79q17 -36 41 -47q25 -11 35 -24q0 -4 -11 -34q-15 -41 -16 -43l-14 9q3 -33 7 -48q4 -16 4 -53v-36q0 -19 -5 -30l106 68q28 17 52 17q21 0 40 -11
q17 -10 30 -26q10 -12 17 -30q6 -15 6 -21t-10 -24q-6 -11 -20 -33q-4 -6 -11.5 -16t-9.5 -14l-9 -14q-1 -1 -3.5 -3t-3.5 -3.5t-2 -2.5q-3 -4 -16 -4h-196q-36 0 -51 2q-21 3 -45 17l-74 46q-8 3 -8 14q0 8 14 8q7 0 32 -5q30 -6 96 -6zM1010 759h200q-10 21 -32 40
q-20 17 -48 17q-19 0 -38 -10zM726 -71q-15 5 -34 15q-18 9 -18 31q0 17 3 41q5 37 8 52q2 11 5.5 29.5t4.5 21.5q5 25 10 31q17 33 62 83q47 51 108 99q60 47 129 82q67 34 124 34q72 0 125 -66l110 -142h150v-240h-183q-30 0 -42 15q-4 5 -12 14.5t-12 14.5l-112 150
q-33 41 -87 41q-35 0 -74 -14q-41 -15 -72 -31q-35 -18 -64 -40q-36 -27 -49 -38q47 -14 112 -21q77 -9 124 -16q58 -9 99 -27t41 -53q0 -17 -9 -55q-8 -33 -25 -79q-17 -45 -30 -77q-14 -34 -23 -43q-43 -43 -102 -76q-57 -32 -136 -61q-74 -27 -155 -42q-83 -15 -161 -15
q-84 0 -151 17q-70 18 -125 56t-88 101q-32 61 -32 153q0 93 34 207q35 116 108 236q7 16 27 16q11 0 11 -11q0 -14 -6 -22q-27 -64 -47 -135q-18 -65 -18 -119q0 -73 30 -122q31 -51 79 -80q50 -30 115 -42q66 -12 136 -12q124 0 237 28q112 28 181 67q-96 11 -169 18
q-82 8 -137 26z" />
    <glyph glyph-name="pehyehf" unicode="&#xfb59;&#xfef2;" horiz-adv-x="1512" 
d="M357 -677l127 116l109 -99l108 99l125 -116l-125 -118l-108 102l-109 -102zM1182 -634l104 102l104 -102l117 115l-117 109l-104 -95l-104 95l-117 -109zM1286 -437l118 112l-118 112l-117 -112zM726 -71q-15 5 -34 15q-18 9 -18 31q0 17 3 41q5 37 8 52q2 11 5.5 29.5
t4.5 21.5q5 25 10 31q17 33 62 83q47 51 108 99q60 47 129 82q67 34 124 34q72 0 125 -66l110 -142h150v-240h-183q-31 0 -43 15q-16 20 -23 29l-112 150q-33 41 -87 41q-35 0 -74 -14q-41 -15 -72 -31q-35 -18 -64 -40q-36 -27 -49 -38q47 -14 111 -21q80 -9 125 -16
q58 -9 99 -27t41 -53q0 -17 -9 -55q-8 -33 -25 -79q-17 -45 -30 -77q-14 -34 -23 -43q-43 -43 -102 -76q-57 -32 -136 -61q-74 -27 -155 -42q-83 -15 -161 -15q-84 0 -151 17q-70 18 -125 56t-88 101q-32 61 -32 153q0 93 34 207q35 116 108 236q7 16 27 16q11 0 11 -11
q0 -14 -6 -22q-27 -64 -47 -135q-18 -65 -18 -119q0 -73 30 -122q31 -51 79 -80q50 -30 115 -42q66 -12 136 -12q124 0 237 28q112 28 181 67q-96 11 -169 18q-82 8 -137 26z" />
    <glyph glyph-name="hmzyehhmzf" unicode="&#xfe8c;&#xfe8a;" horiz-adv-x="1512" 
d="M404 612q-49 0 -117 -13q-64 -12 -107 -64q6 42 25 68q21 29 43 44q-71 38 -71 98q0 30 17 59q17 30 41 52q26 24 56 37q33 14 64 14q28 0 52 -13q22 -12 22 -37q0 -17 -6 -27l-30 -63q-6 -11 -8 -11q-3 -3 -3 0q-8 0 -11 7q-3 8 -8 14t-16 14q-8 6 -36 6q-16 0 -35 -5
q-22 -6 -38 -16q31 -45 91 -54q61 -9 122 -9q16 0 16 -11q0 -8 -3 -11zM1117 830q-55 0 -118 -12t-106 -64q6 42 25 68q21 29 43 44q-71 38 -71 98q0 30 17 59q17 30 41 52t56 36q33 14 64 14q30 0 52 -12q21 -11 21 -37q0 -18 -5 -27l-30 -63q-6 -11 -8 -11q-3 -3 -3 0
q-8 0 -11 7q-2 6 -8 13q-3 4 -17 14q-10 7 -35 7q-14 0 -36 -6t-38 -16q30 -44 92 -53q68 -10 121 -10q17 0 17 -11q0 -8 -3 -11zM726 -71q-15 5 -34 15q-18 9 -18 31q0 17 3 41q5 37 8 52q2 11 5.5 29.5t4.5 21.5q5 26 9 31q15 31 63 83q47 51 108 99q60 47 129 82
q67 34 124 34q72 0 125 -66l110 -142h150v-240h-183q-31 0 -43 15q-16 20 -23 29l-112 150q-33 41 -87 41q-35 0 -74 -14q-41 -15 -72 -31q-35 -18 -64 -40q-36 -27 -49 -38q47 -14 111 -21q80 -9 125 -16q58 -9 99 -27t41 -53q0 -17 -9 -55q-8 -33 -25 -79q-17 -45 -30 -77
q-14 -34 -23 -43q-43 -43 -102 -76q-57 -32 -136 -61q-74 -27 -155 -42q-83 -15 -161 -15q-84 0 -151 17q-70 18 -125 56t-88 101q-32 61 -32 153q0 93 34 207q35 116 108 236q7 16 27 16q11 0 11 -11q0 -14 -6 -22q-27 -64 -47 -135q-18 -65 -18 -119q0 -73 30 -122
q31 -51 79 -80q50 -30 115 -42q66 -12 136 -12q124 0 237 28q112 28 181 67q-96 11 -169 18q-82 8 -137 26z" />
    <glyph glyph-name="behyehhmzf" unicode="&#xfe92;&#xfe8a;" horiz-adv-x="1512" 
d="M1188 -273l147 131l145 -131l-145 -134zM404 612q-49 0 -117 -13q-64 -12 -107 -64q6 42 25 68q21 29 43 44q-71 38 -71 98q0 30 17 59q17 30 41 52q26 24 56 37q33 14 64 14q28 0 52 -13q22 -12 22 -37q0 -17 -6 -27l-30 -63q-6 -11 -8 -11q-3 -3 -3 0q-8 0 -11 7
q-3 8 -8 14t-16 14q-8 6 -36 6q-16 0 -35 -5q-22 -6 -38 -16q31 -45 91 -54q61 -9 122 -9q16 0 16 -11q0 -8 -3 -11zM726 -71q-15 5 -34 15q-18 9 -18 31q0 17 3 41q5 37 8 52q2 11 5.5 29.5t4.5 21.5q5 25 10 31q17 33 62 83q47 51 108 99q60 47 129 82q67 34 124 34
q72 0 125 -66l110 -142h150v-240h-183q-31 0 -43 15q-16 20 -23 29l-112 150q-33 41 -87 41q-35 0 -74 -14q-41 -15 -72 -31q-35 -18 -64 -40q-36 -27 -49 -38q47 -14 111 -21q80 -9 125 -16q58 -9 99 -27t41 -53q0 -17 -9 -55q-8 -33 -25 -79q-17 -45 -30 -77
q-14 -34 -23 -43q-43 -43 -102 -76q-57 -32 -136 -61q-74 -27 -155 -42q-83 -15 -161 -15q-84 0 -151 17q-70 18 -125 56t-88 101q-32 61 -32 153q0 93 34 207q35 116 108 236q7 16 27 16q11 0 11 -11q0 -14 -6 -22q-27 -64 -47 -135q-18 -65 -18 -119q0 -73 30 -122
q31 -51 79 -80q50 -30 115 -42q66 -12 136 -12q124 0 237 28q112 28 181 67q-96 11 -169 18q-82 8 -137 26z" />
    <glyph glyph-name="tehyehhmzf" unicode="&#xfe98;&#xfe8a;" horiz-adv-x="1512" 
d="M784 961l142 137l120 -118l120 118l139 -137l-139 -139l-120 120l-120 -120zM404 612q-49 0 -117 -13q-64 -12 -107 -64q6 42 25 68q21 29 43 44q-71 38 -71 98q0 30 17 59q17 30 41 52q26 24 56 37q33 14 64 14q28 0 52 -13q22 -12 22 -37q0 -17 -6 -27l-30 -63
q-6 -11 -8 -11q-3 -3 -3 0q-8 0 -11 7q-3 8 -8 14t-16 14q-8 6 -36 6q-16 0 -35 -5q-22 -6 -38 -16q31 -45 91 -54q61 -9 122 -9q16 0 16 -11q0 -8 -3 -11zM726 -71q-15 5 -34 15q-18 9 -18 31q0 17 3 41q5 37 8 52q2 11 5.5 29.5t4.5 21.5q5 25 10 31q17 33 62 83
q47 51 108 99q60 47 129 82q67 34 124 34q72 0 125 -66l110 -142h150v-240h-183q-31 0 -43 15q-16 20 -23 29l-112 150q-33 41 -87 41q-35 0 -74 -14q-41 -15 -72 -31q-35 -18 -64 -40q-36 -27 -49 -38q47 -14 111 -21q80 -9 125 -16q58 -9 99 -27t41 -53q0 -17 -9 -55
q-8 -33 -25 -79q-17 -45 -30 -77q-14 -34 -23 -43q-43 -43 -102 -76q-57 -32 -136 -61q-74 -27 -155 -42q-83 -15 -161 -15q-84 0 -151 17q-70 18 -125 56t-88 101q-32 61 -32 153q0 93 34 207q35 116 108 236q7 16 27 16q11 0 11 -11q0 -14 -6 -22q-27 -64 -47 -135
q-18 -65 -18 -119q0 -73 30 -122q31 -51 79 -80q50 -30 115 -42q66 -12 136 -12q124 0 237 28q112 28 181 67q-96 11 -169 18q-82 8 -137 26z" />
    <glyph glyph-name="thehyehhmzf" unicode="&#xfe9c;&#xfe8a;" horiz-adv-x="1512" 
d="M789 811l134 128l115 -112l114 112l131 -128l-131 -123l-114 104l-115 -104zM904 1029l134 123l131 -123l-131 -128zM404 612q-49 0 -117 -13q-64 -12 -107 -64q6 42 25 68q21 29 43 44q-71 38 -71 98q0 30 17 59q17 30 41 52q26 24 56 37q33 14 64 14q28 0 52 -13
q22 -12 22 -37q0 -17 -6 -27l-30 -63q-6 -11 -8 -11q-3 -3 -3 0q-8 0 -11 7q-3 8 -8 14t-16 14q-8 6 -36 6q-16 0 -35 -5q-22 -6 -38 -16q31 -45 91 -54q61 -9 122 -9q16 0 16 -11q0 -8 -3 -11zM726 -71q-15 5 -34 15q-18 9 -18 31q0 17 3 41q5 37 8 52q2 11 5.5 29.5
t4.5 21.5q5 25 10 31q17 33 62 83q47 51 108 99q60 47 129 82q67 34 124 34q72 0 125 -66l110 -142h150v-240h-183q-31 0 -43 15q-16 20 -23 29l-112 150q-33 41 -87 41q-35 0 -74 -14q-41 -15 -72 -31q-35 -18 -64 -40q-36 -27 -49 -38q47 -14 111 -21q80 -9 125 -16
q58 -9 99 -27t41 -53q0 -17 -9 -55q-8 -33 -25 -79q-17 -45 -30 -77q-14 -34 -23 -43q-43 -43 -102 -76q-57 -32 -136 -61q-74 -27 -155 -42q-83 -15 -161 -15q-84 0 -151 17q-70 18 -125 56t-88 101q-32 61 -32 153q0 93 34 207q35 116 108 236q7 16 27 16q11 0 11 -11
q0 -14 -6 -22q-27 -64 -47 -135q-18 -65 -18 -119q0 -73 30 -122q31 -51 79 -80q50 -30 115 -42q66 -12 136 -12q124 0 237 28q112 28 181 67q-96 11 -169 18q-82 8 -137 26z" />
    <glyph glyph-name="noonyehhmzf" unicode="&#xfee8;&#xfe8a;" horiz-adv-x="1512" 
d="M887 956l148 131l145 -131l-145 -134zM404 612q-49 0 -117 -13q-64 -12 -107 -64q6 42 25 68q21 29 43 44q-71 38 -71 98q0 30 17 59q17 30 41 52q26 24 56 37q33 14 64 14q28 0 52 -13q22 -12 22 -37q0 -17 -6 -27l-30 -63q-6 -11 -8 -11q-3 -3 -3 0q-8 0 -11 7
q-3 8 -8 14t-16 14q-8 6 -36 6q-16 0 -35 -5q-22 -6 -38 -16q31 -45 91 -54q61 -9 122 -9q16 0 16 -11q0 -8 -3 -11zM726 -71q-15 5 -34 15q-18 9 -18 31q0 17 3 41q5 37 8 52q2 11 5.5 29.5t4.5 21.5q5 25 10 31q17 33 62 83q47 51 108 99q60 47 129 82q67 34 124 34
q72 0 125 -66l110 -142h150v-240h-183q-31 0 -43 15q-16 20 -23 29l-112 150q-33 41 -87 41q-35 0 -74 -14q-41 -15 -72 -31q-35 -18 -64 -40q-36 -27 -49 -38q47 -14 111 -21q80 -9 125 -16q58 -9 99 -27t41 -53q0 -17 -9 -55q-8 -33 -25 -79q-17 -45 -30 -77
q-14 -34 -23 -43q-43 -43 -102 -76q-57 -32 -136 -61q-74 -27 -155 -42q-83 -15 -161 -15q-84 0 -151 17q-70 18 -125 56t-88 101q-32 61 -32 153q0 93 34 207q35 116 108 236q7 16 27 16q11 0 11 -11q0 -14 -6 -22q-27 -64 -47 -135q-18 -65 -18 -119q0 -73 30 -122
q31 -51 79 -80q50 -30 115 -42q66 -12 136 -12q124 0 237 28q112 28 181 67q-96 11 -169 18q-82 8 -137 26z" />
    <glyph glyph-name="yehyehhmzf" unicode="&#xfef4;&#xfe8a;" horiz-adv-x="1512" 
d="M1188 -486l106 104l-106 106l134 131l131 -131l-107 -106l107 -104l-131 -134zM404 612q-49 0 -117 -13q-64 -12 -107 -64q6 42 25 68q21 29 43 44q-71 38 -71 98q0 30 17 59q17 30 41 52q26 24 56 37q33 14 64 14q28 0 52 -13q22 -12 22 -37q0 -17 -6 -27l-30 -63
q-6 -11 -8 -11q-3 -3 -3 0q-8 0 -11 7q-3 8 -8 14t-16 14q-8 6 -36 6q-16 0 -35 -5q-22 -6 -38 -16q31 -45 91 -54q61 -9 122 -9q16 0 16 -11q0 -8 -3 -11zM726 -71q-15 5 -34 15q-18 9 -18 31q0 17 3 41q5 37 8 52q2 11 5.5 29.5t4.5 21.5q5 25 10 31q17 33 62 83
q47 51 108 99q60 47 129 82q67 34 124 34q72 0 125 -66l110 -142h150v-240h-183q-31 0 -43 15q-16 20 -23 29l-112 150q-33 41 -87 41q-35 0 -74 -14q-41 -15 -72 -31q-35 -18 -64 -40q-36 -27 -49 -38q47 -14 111 -21q80 -9 125 -16q58 -9 99 -27t41 -53q0 -17 -9 -55
q-8 -33 -25 -79q-17 -45 -30 -77q-14 -34 -23 -43q-43 -43 -102 -76q-57 -32 -136 -61q-74 -27 -155 -42q-83 -15 -161 -15q-84 0 -151 17q-70 18 -125 56t-88 101q-32 61 -32 153q0 93 34 207q35 116 108 236q7 16 27 16q11 0 11 -11q0 -14 -6 -22q-27 -64 -47 -135
q-18 -65 -18 -119q0 -73 30 -122q31 -51 79 -80q50 -30 115 -42q66 -12 136 -12q124 0 237 28q112 28 181 67q-96 11 -169 18q-82 8 -137 26z" />
    <glyph glyph-name="ttehyehhmzf" unicode="&#xfb69;&#xfe8a;" horiz-adv-x="1512" 
d="M991 784l-33 215q-19 10 -19 28l39 79q17 -36 41 -47q25 -11 35 -24q0 -4 -11 -34q-15 -41 -16 -43l-14 9q3 -33 7 -48q4 -16 4 -53v-36q0 -19 -5 -30l106 68q28 17 52 17q21 0 40 -11q17 -10 30 -26q10 -12 17 -30q6 -15 6 -21t-10 -24q-6 -11 -20 -33q-4 -6 -11.5 -16
t-9.5 -14l-9 -14q-1 -1 -3.5 -3t-3.5 -3.5t-2 -2.5q-3 -4 -16 -4h-196q-36 0 -51 2q-21 3 -45 17l-74 46q-8 3 -8 14q0 8 14 8q7 0 32 -5q30 -6 96 -6zM1010 759h200q-10 21 -32 40q-20 17 -48 17q-19 0 -38 -10zM404 612q-49 0 -117 -13q-64 -12 -107 -64q6 42 25 68
q21 29 43 44q-71 38 -71 98q0 30 17 59q17 30 41 52q26 24 56 37q33 14 64 14q28 0 52 -13q22 -12 22 -37q0 -17 -6 -27l-30 -63q-6 -11 -8 -11q-3 -3 -3 0q-8 0 -11 7q-3 8 -8 14t-16 14q-8 6 -36 6q-16 0 -35 -5q-22 -6 -38 -16q31 -45 91 -54q61 -9 122 -9q16 0 16 -11
q0 -8 -3 -11zM726 -71q-15 5 -34 15q-18 9 -18 31q0 17 3 41q5 37 8 52q2 11 5.5 29.5t4.5 21.5q5 25 10 31q17 33 62 83q47 51 108 99q60 47 129 82q67 34 124 34q72 0 125 -66l110 -142h150v-240h-183q-31 0 -43 15q-16 20 -23 29l-112 150q-33 41 -87 41q-35 0 -74 -14
q-41 -15 -72 -31q-35 -18 -64 -40q-36 -27 -49 -38q47 -14 111 -21q80 -9 125 -16q58 -9 99 -27t41 -53q0 -17 -9 -55q-8 -33 -25 -79q-17 -45 -30 -77q-14 -34 -23 -43q-43 -43 -102 -76q-57 -32 -136 -61q-74 -27 -155 -42q-83 -15 -161 -15q-84 0 -151 17q-70 18 -125 56
t-88 101q-32 61 -32 153q0 93 34 207q35 116 108 236q7 16 27 16q11 0 11 -11q0 -14 -6 -22q-27 -64 -47 -135q-18 -65 -18 -119q0 -73 30 -122q31 -51 79 -80q50 -30 115 -42q66 -12 136 -12q124 0 237 28q112 28 181 67q-96 11 -169 18q-82 8 -137 26z" />
    <glyph glyph-name="pehyehhmzf" unicode="&#xfb59;&#xfe8a;" horiz-adv-x="1512" 
d="M1182 -634l104 102l104 -102l117 115l-117 109l-104 -95l-104 95l-117 -109zM1286 -437l118 112l-118 112l-117 -112zM404 612q-49 0 -117 -13q-64 -12 -107 -64q6 42 25 68q21 29 43 44q-71 38 -71 98q0 30 17 59q17 30 41 52q26 24 56 37q33 14 64 14q28 0 52 -13
q22 -12 22 -37q0 -17 -6 -27l-30 -63q-6 -11 -8 -11q-3 -3 -3 0q-8 0 -11 7q-3 8 -8 14t-16 14q-8 6 -36 6q-16 0 -35 -5q-22 -6 -38 -16q31 -45 91 -54q61 -9 122 -9q16 0 16 -11q0 -8 -3 -11zM726 -71q-15 5 -34 15q-18 9 -18 31q0 17 3 41q5 37 8 52q2 11 5.5 29.5
t4.5 21.5q5 25 10 31q17 33 62 83q47 51 108 99q60 47 129 82q67 34 124 34q72 0 125 -66l110 -142h150v-240h-183q-31 0 -43 15q-16 20 -23 29l-112 150q-33 41 -87 41q-35 0 -74 -14q-41 -15 -72 -31q-35 -18 -64 -40q-36 -27 -49 -38q47 -14 111 -21q80 -9 125 -16
q58 -9 99 -27t41 -53q0 -17 -9 -55q-8 -33 -25 -79q-17 -45 -30 -77q-14 -34 -23 -43q-43 -43 -102 -76q-57 -32 -136 -61q-74 -27 -155 -42q-83 -15 -161 -15q-84 0 -151 17q-70 18 -125 56t-88 101q-32 61 -32 153q0 93 34 207q35 116 108 236q7 16 27 16q11 0 11 -11
q0 -14 -6 -22q-27 -64 -47 -135q-18 -65 -18 -119q0 -73 30 -122q31 -51 79 -80q50 -30 115 -42q66 -12 136 -12q124 0 237 28q112 28 181 67q-96 11 -169 18q-82 8 -137 26z" />
    <glyph glyph-name="sheenyeh" unicode="&#xfeb7;&#xfef2;" horiz-adv-x="2135" 
d="M307 -677l128 116l108 -99l109 99l125 -116l-125 -118l-109 102l-108 -102zM1363 811l133 128l115 -112l115 112l131 -128l-131 -123l-115 104l-115 -104zM1477 1029l134 123l131 -123l-131 -128zM1330 0q-36 0 -64 37q-40 53 -58 80q-31 47 -62 81q-34 37 -81 37
q-35 0 -74 -14q-41 -15 -72 -31q-35 -18 -64 -40q-36 -27 -49 -38q47 -14 109 -21q78 -9 120 -17q56 -10 98 -29q41 -18 41 -50q0 -17 -9 -55q-6 -25 -22 -79q-11 -37 -26 -77q-13 -34 -22 -43q-41 -41 -102 -75q-62 -35 -136 -62t-155 -42q-83 -15 -161 -15q-84 0 -151 17
q-70 18 -125 56t-88 101q-32 61 -32 153t39 207q38 112 103 236q7 16 27 16q11 0 11 -11q0 -14 -6 -22q-27 -64 -47 -135q-18 -65 -18 -119q0 -73 30 -122q31 -51 79 -80q50 -30 115 -42q66 -12 136 -12q124 0 237 28q112 28 181 67q-87 9 -124 13q-70 8 -116 16
q-48 8 -85 25q-33 15 -33 39q0 14 3 40q4 36 8 52q1 6 10 49q5 25 10 31q17 33 62 83q47 51 108 99q60 47 129 82q67 34 124 34q72 0 125 -66l110 -142h229l16 134l145 167q10 13 22 13q14 0 14 -13l-6 -32q-11 -56 -14 -76q-3 -16 -8.5 -48.5t-8.5 -48.5q-3 -18 -9.5 -50
t-8.5 -46h240q-2 8 -9 49q-5 29 -15 52l54 208q8 24 19 24q14 0 25 -23q12 -26 19 -60q8 -38 12 -79q4 -37 4 -78q0 -36 -4 -64q-4 -30 -12 -53l-65 -186q-6 -15 -18 -23q-11 -7 -23 -7h-88q-74 0 -113 33q-40 34 -56 84l-16 -90q-2 -11 -13 -20q-8 -7 -39 -7h-306z" />
    <glyph glyph-name="sheenyehf" unicode="&#xfeb8;&#xfef2;" horiz-adv-x="2323" 
d="M307 -677l128 116l108 -99l109 99l125 -116l-125 -118l-109 102l-108 -102zM1480 811l134 128l115 -112l114 112l131 -128l-131 -123l-114 104l-115 -104zM1595 1029l134 123l131 -123l-131 -128zM1330 0q-36 0 -64 37q-40 53 -58 80q-31 47 -62 81q-34 37 -81 37
q-35 0 -74 -14q-41 -15 -72 -31q-35 -18 -64 -40q-36 -27 -49 -38q47 -14 109 -21q78 -9 120 -17q56 -10 98 -29q41 -18 41 -50q0 -17 -9 -55q-6 -25 -22 -79q-11 -37 -26 -77q-13 -34 -22 -43q-41 -41 -102 -75q-62 -35 -136 -62t-155 -42q-83 -15 -161 -15q-84 0 -151 17
q-70 18 -125 56t-88 101q-32 61 -32 153q0 90 39 213q38 120 103 230q7 16 27 16q11 0 11 -11q0 -14 -6 -22q-27 -64 -47 -135q-18 -65 -18 -119q0 -73 30 -122q31 -51 79 -80q50 -30 115 -42q66 -12 136 -12q124 0 237 28q112 28 181 67q-87 9 -124 13q-70 8 -116 16
q-48 8 -85 25q-33 15 -33 39q0 14 3 40q4 36 8 52q1 6 10 49q5 25 10 31q17 33 62 83q47 51 108 99q60 47 129 82q67 34 124 34q72 0 125 -66l110 -142h234l11 131l148 172q8 14 22 14q16 0 16 -19q0 -1 -1 -6t-3 -17.5t-4 -24.5q-2 -14 -8.5 -47.5t-9.5 -52.5
q-3 -20 -19 -101q-3 -13 -5.5 -25.5l-3.5 -17.5t-1 -6h211l-14 118l131 188q8 11 19 11q17 0 17 -22v-295h221v-240h-120q-66 0 -93 30q-26 29 -49 87l-52 -117h-150q-76 0 -110 40t-41 77l-21 -117h-358z" />
    <glyph glyph-name="sheenyehhmz" unicode="&#xfeb7;&#xfe8a;" horiz-adv-x="2135" 
d="M1363 811l133 128l115 -112l115 112l131 -128l-131 -123l-115 104l-115 -104zM1477 1029l134 123l131 -123l-131 -128zM355 612q-49 0 -117 -13q-64 -12 -107 -64q6 42 25 68q21 29 43 44q-71 38 -71 98q0 30 17 59q17 30 41 52q26 24 56 37q33 14 64 14q28 0 52 -13
q22 -12 22 -37q0 -17 -6 -27l-30 -63q-6 -11 -8 -11q-3 -3 -3 0q-8 0 -11 7q-3 8 -8 14t-16 14q-8 6 -36 6q-16 0 -35 -5q-24 -6 -39 -16q31 -45 92 -54q62 -9 121 -9q17 0 17 -11q0 -8 -3 -11zM1330 0q-36 0 -64 37q-40 53 -58 80q-28 43 -63 81q-34 37 -80 37
q-35 0 -74 -14q-41 -15 -72 -31q-35 -18 -64 -40q-36 -27 -49 -38q47 -14 109 -21q78 -9 120 -17q56 -10 98 -29q41 -18 41 -50q0 -17 -9 -55q-6 -25 -22 -79q-11 -37 -26 -77q-13 -34 -22 -43q-41 -41 -102 -75q-62 -35 -136 -62t-155 -42q-83 -15 -161 -15q-84 0 -151 17
q-70 18 -125 56t-88 101q-32 61 -32 153t39 207q38 112 103 236q7 16 27 16q11 0 11 -11q0 -14 -6 -22q-27 -64 -47 -135q-18 -65 -18 -119q0 -73 30 -122q31 -51 79 -80q50 -30 115 -42q66 -12 136 -12q124 0 237 28q112 28 181 67q-87 9 -124 13q-70 8 -116 16
q-48 8 -85 25q-33 15 -33 39q0 14 3 40q4 36 8 52q1 6 10 49q5 25 10 31q17 33 62 83q47 51 108 99q60 47 129 82q67 34 124 34q72 0 125 -66l110 -142h229l16 134l145 167q10 13 22 13q14 0 14 -13l-6 -32q-11 -56 -14 -76q-3 -16 -8.5 -48.5t-8.5 -48.5q-3 -18 -9.5 -50
t-8.5 -46h240q-2 8 -9 49q-5 29 -15 52l54 208q8 24 19 24q14 0 25 -23q12 -26 19 -60q8 -38 12 -79q4 -37 4 -78q0 -36 -4 -64q-4 -30 -12 -53l-65 -186q-6 -15 -18 -23q-11 -7 -23 -7h-88q-74 0 -113 33q-40 34 -56 84l-16 -90q-2 -11 -13 -20q-8 -7 -39 -7h-306z" />
    <glyph glyph-name="sheenyehhmzf" unicode="&#xfeb8;&#xfe8a;" horiz-adv-x="2323" 
d="M1475 811l133 128l115 -112l115 112l131 -128l-131 -123l-115 104l-115 -104zM1589 1029l134 123l131 -123l-131 -128zM355 612q-49 0 -117 -13q-64 -12 -107 -64q6 42 25 68q21 29 43 44q-71 38 -71 98q0 30 17 59q17 30 41 52q26 24 56 37q33 14 64 14q28 0 52 -13
q22 -12 22 -37q0 -17 -6 -27l-30 -63q-6 -11 -8 -11q-3 -3 -3 0q-8 0 -11 7q-3 8 -8 14t-16 14q-8 6 -36 6q-16 0 -35 -5q-24 -6 -39 -16q31 -45 92 -54q62 -9 121 -9q17 0 17 -11q0 -8 -3 -11zM1330 0q-36 0 -64 37q-40 53 -58 80q-28 43 -63 81q-34 37 -80 37
q-35 0 -74 -14q-41 -15 -72 -31q-35 -18 -64 -40q-36 -27 -49 -38q47 -14 109 -21q78 -9 120 -17q56 -10 98 -29q41 -18 41 -50q0 -17 -9 -55q-6 -25 -22 -79q-11 -37 -26 -77q-13 -34 -22 -43q-43 -43 -102 -76q-57 -32 -136 -61q-74 -27 -155 -42q-83 -15 -161 -15
q-84 0 -151 17q-70 18 -125 56t-88 101q-32 61 -32 153q0 90 39 213q38 120 103 230q7 16 27 16q11 0 11 -11q0 -14 -6 -22q-27 -64 -47 -135q-18 -65 -18 -119q0 -73 30 -122q31 -51 79 -80q50 -30 115 -42q66 -12 136 -12q124 0 237 28q112 28 181 67q-87 9 -124 13
q-70 8 -116 16q-48 8 -85 25q-33 15 -33 39q0 14 3 40q4 36 8 52q1 6 10 49q5 25 10 31q17 33 62 83q47 51 108 99q60 47 129 82q67 34 124 34q72 0 125 -66l110 -142h234l11 131l148 172q8 14 22 14q16 0 16 -19q0 -1 -1 -6t-3 -17.5t-4 -24.5q-2 -14 -8.5 -47.5
t-9.5 -52.5q-3 -20 -19 -101q-3 -13 -5.5 -25.5l-3.5 -17.5t-1 -6h211l-14 118l131 188q8 11 19 11q17 0 17 -22v-295h221v-240h-120q-66 0 -93 30q-26 29 -49 87l-52 -117h-150q-76 0 -110 40t-41 77l-21 -117h-358z" />
    <glyph glyph-name="hmzjeem" unicode="&#xfe8b;&#xfe9e;" horiz-adv-x="1204" 
d="M598 -137l147 132l145 -132l-145 -133zM885 1240q-50 0 -118 -13q-63 -12 -106 -64q7 45 24 69q18 25 44 43q-71 38 -71 99q0 30 16 58q17 30 41 52q26 24 56 37q33 14 65 14q27 0 51 -13q22 -12 22 -37q0 -18 -5 -27l-30 -63q-6 -11 -8 -11q-3 -3 -3 0q-8 0 -11 7
q-3 8 -8 14q-3 4 -17 14q-8 6 -35 6q-17 0 -36 -5q-22 -6 -38 -16q31 -45 92 -54t121 -9q17 0 17 -11q0 -8 -3 -11zM1021 369q-67 8 -136 8q-127 0 -232 -47q-106 -48 -181 -121q-76 -75 -117 -168q-41 -94 -41 -186q0 -71 29 -140q28 -67 90 -118q61 -51 158 -82
q96 -31 234 -31q69 0 139 8q36 4 117 18q9 2 88 18q38 8 46 8q25 0 25 -19t-17 -30q-30 -21 -110 -78q-50 -36 -119 -79q-57 -36 -115 -63q-55 -26 -95 -26q-174 0 -290 38q-113 37 -183 101q-68 62 -97 148q-28 83 -28 177q0 103 28 208q28 103 74 202q41 86 100 174
q53 78 104 126q-28 0 -67 1q-55 1 -125 3q-65 1 -118 6q-54 5 -54 9q0 3 4 10q9 15 18 31q25 45 38 68q9 17 34 60.5t35 60.5q60 3 123 15q61 12 122 42q57 29 112 85q52 53 93 139q1 4 8 19.5t10 25.5q9 24 23 50q14 24 32 41q19 17 42 17q33 0 56 -25q23 -24 38 -67
q14 -39 22 -97q7 -50 7 -114q0 -33 -19 -33q-10 0 -17 16q-6 13 -20 36q-10 16 -29 35q-17 17 -41 17q-29 0 -52 -25q-17 -18 -47 -64q-27 -42 -62 -88q-33 -44 -93 -96q89 -12 157 -17q65 -5 157 -5q57 0 100 5q51 6 102 6q22 0 22 -14l-3 -7l-10 -27q-2 -6 -25 -60
q-32 -75 -44 -105z" />
    <glyph glyph-name="behjeem" unicode="&#xfe91;&#xfe9e;" horiz-adv-x="1204" 
d="M824 63l140 131l137 -131l-137 -134zM554 -227l148 131l145 -131l-145 -133zM1021 369q-67 8 -136 8q-127 0 -232 -47q-106 -48 -181 -121q-76 -75 -117 -168q-41 -94 -41 -186q0 -71 29 -140q28 -67 90 -118q61 -51 158 -82q96 -31 234 -31q69 0 139 8q36 4 117 18
q9 2 88 18q38 8 46 8q25 0 25 -19t-17 -30q-30 -21 -110 -78q-50 -36 -119 -79q-57 -36 -115 -63q-55 -26 -95 -26q-174 0 -290 38q-113 37 -183 101q-68 62 -97 148q-28 83 -28 177q0 103 28 208q28 103 74 202q41 86 100 174q53 78 104 126q-28 0 -67 1q-55 1 -125 3
q-65 1 -118 6q-54 5 -54 9q0 3 4 10q9 15 18 31q25 45 38 68q9 17 34 60.5t35 60.5q60 3 123 15q61 12 122 42q57 29 112 85q52 53 93 139q1 4 8 19.5t10 25.5q9 24 23 50q14 24 32 41q19 17 42 17q33 0 56 -25q23 -24 38 -67q14 -39 22 -97q7 -50 7 -114q0 -33 -19 -33
q-10 0 -17 16q-6 13 -20 36q-10 16 -29 35q-17 17 -41 17q-29 0 -52 -25q-17 -18 -47 -64q-27 -42 -62 -88q-33 -44 -93 -96q89 -12 157 -17q65 -5 157 -5q57 0 100 5q51 6 102 6q22 0 22 -14l-3 -7l-10 -27q-2 -6 -25 -60q-32 -75 -44 -105z" />
    <glyph glyph-name="tehjeem" unicode="&#xfe97;&#xfe9e;" horiz-adv-x="1204" 
d="M598 -137l147 132l145 -132l-145 -133zM532 1303l142 136l121 -117l120 117l139 -136l-139 -140l-120 120l-121 -120zM1021 369q-67 8 -136 8q-127 0 -232 -47q-106 -48 -181 -121q-76 -75 -117 -168q-41 -94 -41 -186q0 -71 29 -140q28 -67 90 -118q61 -51 158 -82
q96 -31 234 -31q69 0 139 8q36 4 117 18q9 2 88 18q38 8 46 8q25 0 25 -19t-17 -30q-30 -21 -110 -78q-50 -36 -119 -79q-57 -36 -115 -63q-55 -26 -95 -26q-174 0 -290 38q-113 37 -183 101q-68 62 -97 148q-28 83 -28 177q0 103 28 208q28 103 74 202q41 86 100 174
q53 78 104 126q-28 0 -67 1q-55 1 -125 3q-65 1 -118 6q-54 5 -54 9q0 3 4 10q9 15 18 31q25 45 38 68q9 17 34 60.5t35 60.5q60 3 123 15q61 12 122 42q57 29 112 85q52 53 93 139q1 4 8 19.5t10 25.5q9 24 23 50q14 24 32 41q19 17 42 17q33 0 56 -25q23 -24 38 -67
q14 -39 22 -97q7 -50 7 -114q0 -33 -19 -33q-10 0 -17 16q-6 13 -20 36q-10 16 -29 35q-17 17 -41 17q-29 0 -52 -25q-17 -18 -47 -64q-27 -42 -62 -88q-33 -44 -93 -96q89 -12 157 -17q65 -5 157 -5q57 0 100 5q51 6 102 6q22 0 22 -14l-3 -7l-10 -27q-2 -6 -25 -60
q-32 -75 -44 -105z" />
    <glyph glyph-name="thehjeem" unicode="&#xfe9b;&#xfe9e;" horiz-adv-x="1204" 
d="M598 -137l147 132l145 -132l-145 -133zM546 1270l134 109l115 -95l114 95l131 -109l-131 -105l-114 88l-115 -88zM661 1455l134 105l131 -105l-131 -109zM1021 369q-67 8 -136 8q-127 0 -232 -47q-106 -48 -181 -121q-76 -75 -117 -168q-41 -94 -41 -186q0 -71 29 -140
q28 -67 90 -118q61 -51 158 -82q96 -31 234 -31q69 0 139 8q36 4 117 18q9 2 88 18q38 8 46 8q25 0 25 -19t-17 -30q-30 -21 -110 -78q-50 -36 -119 -79q-57 -36 -115 -63q-55 -26 -95 -26q-174 0 -290 38q-113 37 -183 101q-68 62 -97 148q-28 83 -28 177q0 103 28 208
q28 103 74 202q41 86 100 174q53 78 104 126q-28 0 -67 1q-55 1 -125 3q-65 1 -118 6q-54 5 -54 9q0 3 4 10q9 15 18 31q25 45 38 68q9 17 34 60.5t35 60.5q60 3 123 15q61 12 122 42q57 29 112 85q52 53 93 139q1 4 8 19.5t10 25.5q9 24 23 50q14 24 32 41q19 17 42 17
q33 0 56 -25q23 -24 38 -67q14 -39 22 -97q7 -50 7 -114q0 -33 -19 -33q-10 0 -17 16q-6 13 -20 36q-10 16 -29 35q-17 17 -41 17q-29 0 -52 -25q-17 -18 -47 -64q-27 -42 -62 -88q-33 -44 -93 -96q89 -12 157 -17q65 -5 157 -5q57 0 100 5q51 6 102 6q22 0 22 -14l-3 -7
l-10 -27q-2 -6 -25 -60q-32 -75 -44 -105z" />
    <glyph glyph-name="noonjeem" unicode="&#xfee7;&#xfe9e;" horiz-adv-x="1204" 
d="M628 1338l148 131l144 -131l-144 -134zM598 -137l147 132l145 -132l-145 -133zM1021 369q-67 8 -136 8q-127 0 -232 -47q-106 -48 -181 -121q-76 -75 -117 -168q-41 -94 -41 -186q0 -71 29 -140q28 -67 90 -118q61 -51 158 -82q96 -31 234 -31q69 0 139 8q36 4 117 18
q9 2 88 18q38 8 46 8q25 0 25 -19t-17 -30q-30 -21 -110 -78q-50 -36 -119 -79q-57 -36 -115 -63q-55 -26 -95 -26q-174 0 -290 38q-113 37 -183 101q-68 62 -97 148q-28 83 -28 177q0 103 28 208q28 103 74 202q41 86 100 174q53 78 104 126q-28 0 -67 1q-55 1 -125 3
q-65 1 -118 6q-54 5 -54 9q0 3 4 10q9 15 18 31q25 45 38 68q9 17 34 60.5t35 60.5q60 3 123 15q61 12 122 42q57 29 112 85q52 53 93 139q1 4 8 19.5t10 25.5q9 24 23 50q14 24 32 41q19 17 42 17q33 0 56 -25q23 -24 38 -67q14 -39 22 -97q7 -50 7 -114q0 -33 -19 -33
q-10 0 -17 16q-6 13 -20 36q-10 16 -29 35q-17 17 -41 17q-29 0 -52 -25q-17 -18 -47 -64q-27 -42 -62 -88q-33 -44 -93 -96q89 -12 157 -17q65 -5 157 -5q57 0 100 5q51 6 102 6q22 0 22 -14l-3 -7l-10 -27q-2 -6 -25 -60q-32 -75 -44 -105z" />
    <glyph glyph-name="yehjeem" unicode="&#xfef3;&#xfe9e;" horiz-adv-x="1204" 
d="M494 -188l148 131l144 -131l-144 -134zM898 -41l107 104l-107 106l134 131l131 -131l-106 -106l106 -104l-131 -134zM1021 369q-67 8 -136 8q-127 0 -232 -47q-106 -48 -181 -121q-76 -75 -117 -168q-41 -94 -41 -186q0 -71 29 -140q28 -67 90 -118q61 -51 158 -82
q96 -31 234 -31q69 0 139 8q36 4 117 18q9 2 88 18q38 8 46 8q25 0 25 -19t-17 -30q-30 -21 -110 -78q-50 -36 -119 -79q-57 -36 -115 -63q-55 -26 -95 -26q-174 0 -290 38q-113 37 -183 101q-68 62 -97 148q-28 83 -28 177q0 103 28 208q28 103 74 202q41 86 100 174
q53 78 104 126q-28 0 -67 1q-55 1 -125 3q-65 1 -118 6q-54 5 -54 9q0 3 4 10q9 15 18 31q25 45 38 68q9 17 34 60.5t35 60.5q60 3 123 15q61 12 122 42q57 29 112 85q52 53 93 139q1 4 8 19.5t10 25.5q9 24 23 50q14 24 32 41q19 17 42 17q33 0 56 -25q23 -24 38 -67
q14 -39 22 -97q7 -50 7 -114q0 -33 -19 -33q-10 0 -17 16q-6 13 -20 36q-10 16 -29 35q-17 17 -41 17q-29 0 -52 -25q-17 -18 -47 -64q-27 -42 -62 -88q-33 -44 -93 -96q89 -12 157 -17q65 -5 157 -5q57 0 100 5q51 6 102 6q22 0 22 -14l-3 -7l-10 -27q-2 -6 -25 -60
q-32 -75 -44 -105z" />
    <glyph glyph-name="uni0626062E.isol" unicode="&#xfe8b;&#xfea6;" horiz-adv-x="1204" 
d="M117 1092l148 131l145 -131l-145 -134zM-63 0v0v0v0zM-63 0v0v0v0v0v0zM-63 0v0v0zM-63 0v0v0zM-63 0zM-63 0zM-63 0zM-63 0v0v0v0zM-63 0v0v0v0v0v0zM-63 0v0v0v0v0v0zM-63 0v0v0v0v0zM-63 0v0v0v0zM-63 0zM-63 0zM-63 0zM-63 0zM-63 0zM-63 0zM-63 0zM-63 0v0v0v0z
M-63 0v0v0v0v0v0zM-63 0v0v0zM-63 0v0v0zM-63 0zM-63 0zM-63 0zM-63 0v0v0v0zM-63 0v0v0v0v0v0zM-63 0v0v0v0v0v0zM-63 0v0v0v0v0zM-63 0v0v0v0zM-63 0zM-63 0zM-63 0zM-63 0zM-63 0zM-63 0zM-63 0zM-30 0v0v0v0zM-30 0v0v0v0v0v0zM-30 0v0v0zM-30 0v0v0zM-30 0zM-30 0z
M-30 0zM-30 0v0v0v0zM-30 0v0v0v0v0v0zM-30 0v0v0v0v0v0zM-30 0v0v0v0v0zM-30 0v0v0v0zM-30 0zM-30 0zM-30 0zM-30 0zM-30 0zM-30 0zM-30 0zM885 1240q-50 0 -118 -13q-63 -12 -106 -64q7 45 24 69q18 25 44 43q-71 38 -71 99q0 30 16 58q17 30 41 52q26 24 56 37
q33 14 65 14q27 0 51 -13q22 -12 22 -37q0 -18 -5 -27l-30 -63q-6 -11 -8 -11q-3 -3 -3 0q-8 0 -11 7q-3 8 -8 14q-3 4 -17 14q-8 6 -35 6q-17 0 -36 -5q-22 -6 -38 -16q31 -45 92 -54t121 -9q17 0 17 -11q0 -8 -3 -11zM1021 369q-67 8 -136 8q-127 0 -232 -47
q-106 -48 -181 -121q-76 -75 -117 -168q-41 -94 -41 -186q0 -71 29 -140q28 -67 90 -118q61 -51 158 -82q96 -31 234 -31q69 0 139 8q36 4 117 18q9 2 88 18q38 8 46 8q25 0 25 -19t-17 -30q-30 -21 -110 -78q-50 -36 -119 -79q-57 -36 -115 -63q-55 -26 -95 -26
q-174 0 -290 38q-113 37 -183 101q-68 62 -97 148q-28 83 -28 177q0 103 28 208q28 103 74 202q41 86 100 174q53 78 104 126q-28 0 -67 1q-55 1 -125 3q-65 1 -118 6q-54 5 -54 9q0 3 4 10q9 15 18 31q25 45 38 68q9 17 34 60.5t35 60.5q60 3 123 15q61 12 122 42
q57 29 112 85q52 53 93 139q1 4 8 19.5t10 25.5q9 24 23 50q14 24 32 41q19 17 42 17q33 0 56 -25q23 -24 38 -67q14 -39 22 -97q7 -50 7 -114q0 -33 -19 -33q-10 0 -17 16q-6 13 -20 36q-10 16 -29 35q-17 17 -41 17q-29 0 -52 -25q-17 -18 -47 -64q-27 -42 -62 -88
q-33 -44 -93 -96q89 -12 157 -17q65 -5 157 -5q57 0 100 5q51 6 102 6q22 0 22 -14l-3 -7l-10 -27q-2 -6 -25 -60q-32 -75 -44 -105z" />
    <glyph glyph-name="behkhah" unicode="&#xfe91;&#xfea6;" horiz-adv-x="1204" 
d="M824 63l140 131l137 -131l-137 -134zM117 1092l148 131l145 -131l-145 -134zM1021 369q-67 8 -136 8q-127 0 -232 -47q-106 -48 -181 -121q-76 -75 -117 -168q-41 -94 -41 -186q0 -71 29 -140q28 -67 90 -118q61 -51 158 -82q96 -31 234 -31q69 0 139 8q36 4 117 18
q9 2 88 18q38 8 46 8q25 0 25 -19t-17 -30q-30 -21 -110 -78q-50 -36 -119 -79q-57 -36 -115 -63q-55 -26 -95 -26q-174 0 -290 38q-113 37 -183 101q-68 62 -97 148q-28 83 -28 177q0 103 28 208q28 103 74 202q41 86 100 174q53 78 104 126q-28 0 -67 1q-55 1 -125 3
q-65 1 -118 6q-54 5 -54 9q0 3 4 10q9 15 18 31q25 45 38 68q9 17 34 60.5t35 60.5q60 3 123 15q61 12 122 42q57 29 112 85q52 53 93 139q1 4 8 19.5t10 25.5q9 24 23 50q14 24 32 41q19 17 42 17q33 0 56 -25q23 -24 38 -67q14 -39 22 -97q7 -50 7 -114q0 -33 -19 -33
q-10 0 -17 16q-6 13 -20 36q-10 16 -29 35q-17 17 -41 17q-29 0 -52 -25q-17 -18 -47 -64q-27 -42 -62 -88q-33 -44 -93 -96q89 -12 157 -17q65 -5 157 -5q57 0 100 5q51 6 102 6q22 0 22 -14l-3 -7l-10 -27q-2 -6 -25 -60q-32 -75 -44 -105z" />
    <glyph glyph-name="tehkhah" unicode="&#xfe97;&#xfea6;" horiz-adv-x="1204" 
d="M117 1092l148 131l145 -131l-145 -134zM532 1303l142 136l121 -117l120 117l139 -136l-139 -140l-120 120l-121 -120zM1021 369q-67 8 -136 8q-127 0 -232 -47q-106 -48 -181 -121q-76 -75 -117 -168q-41 -94 -41 -186q0 -71 29 -140q28 -67 90 -118q61 -51 158 -82
q96 -31 234 -31q69 0 139 8q36 4 117 18q9 2 88 18q38 8 46 8q25 0 25 -19t-17 -30q-30 -21 -110 -78q-50 -36 -119 -79q-57 -36 -115 -63q-55 -26 -95 -26q-174 0 -290 38q-113 37 -183 101q-68 62 -97 148q-28 83 -28 177q0 103 28 208q28 103 74 202q41 86 100 174
q53 78 104 126q-28 0 -67 1q-55 1 -125 3q-65 1 -118 6q-54 5 -54 9q0 3 4 10q9 15 18 31q25 45 38 68q9 17 34 60.5t35 60.5q60 3 123 15q61 12 122 42q57 29 112 85q52 53 93 139q1 4 8 19.5t10 25.5q9 24 23 50q14 24 32 41q19 17 42 17q33 0 56 -25q23 -24 38 -67
q14 -39 22 -97q7 -50 7 -114q0 -33 -19 -33q-10 0 -17 16q-6 13 -20 36q-10 16 -29 35q-17 17 -41 17q-29 0 -52 -25q-17 -18 -47 -64q-27 -42 -62 -88q-33 -44 -93 -96q89 -12 157 -17q65 -5 157 -5q57 0 100 5q51 6 102 6q22 0 22 -14l-3 -7l-10 -27q-2 -6 -25 -60
q-32 -75 -44 -105z" />
    <glyph glyph-name="thehkhah" unicode="&#xfe9b;&#xfea6;" horiz-adv-x="1204" 
d="M117 1092l148 131l145 -131l-145 -134zM546 1270l134 109l115 -95l114 95l131 -109l-131 -105l-114 88l-115 -88zM661 1455l134 105l131 -105l-131 -109zM1021 369q-67 8 -136 8q-127 0 -232 -47q-106 -48 -181 -121q-76 -75 -117 -168q-41 -94 -41 -186q0 -71 29 -140
q28 -67 90 -118q61 -51 158 -82q96 -31 234 -31q69 0 139 8q36 4 117 18q9 2 88 18q38 8 46 8q25 0 25 -19t-17 -30q-30 -21 -110 -78q-50 -36 -119 -79q-57 -36 -115 -63q-55 -26 -95 -26q-174 0 -290 38q-113 37 -183 101q-68 62 -97 148q-28 83 -28 177q0 103 28 208
q28 103 74 202q41 86 100 174q53 78 104 126q-28 0 -67 1q-55 1 -125 3q-65 1 -118 6q-54 5 -54 9q0 3 4 10q9 15 18 31q25 45 38 68q9 17 34 60.5t35 60.5q60 3 123 15q61 12 122 42q57 29 112 85q52 53 93 139q1 4 8 19.5t10 25.5q9 24 23 50q14 24 32 41q19 17 42 17
q33 0 56 -25q23 -24 38 -67q14 -39 22 -97q7 -50 7 -114q0 -33 -19 -33q-10 0 -17 16q-6 13 -20 36q-10 16 -29 35q-17 17 -41 17q-29 0 -52 -25q-17 -18 -47 -64q-27 -42 -62 -88q-33 -44 -93 -96q89 -12 157 -17q65 -5 157 -5q57 0 100 5q51 6 102 6q22 0 22 -14l-3 -7
l-10 -27q-2 -6 -25 -60q-32 -75 -44 -105z" />
    <glyph glyph-name="noonkhah" unicode="&#xfee7;&#xfea6;" horiz-adv-x="1204" 
d="M628 1338l148 131l144 -131l-144 -134zM117 1092l148 131l145 -131l-145 -134zM1021 369q-67 8 -136 8q-127 0 -232 -47q-106 -48 -181 -121q-76 -75 -117 -168q-41 -94 -41 -186q0 -71 29 -140q28 -67 90 -118q61 -51 158 -82q96 -31 234 -31q69 0 139 8q36 4 117 18
q9 2 88 18q38 8 46 8q25 0 25 -19t-17 -30q-30 -21 -110 -78q-50 -36 -119 -79q-57 -36 -115 -63q-55 -26 -95 -26q-174 0 -290 38q-113 37 -183 101q-68 62 -97 148q-28 83 -28 177q0 103 28 208q28 103 74 202q41 86 100 174q53 78 104 126q-28 0 -67 1q-55 1 -125 3
q-65 1 -118 6q-54 5 -54 9q0 3 4 10q9 15 18 31q25 45 38 68q9 17 34 60.5t35 60.5q60 3 123 15q61 12 122 42q57 29 112 85q52 53 93 139q1 4 8 19.5t10 25.5q9 24 23 50q14 24 32 41q19 17 42 17q33 0 56 -25q23 -24 38 -67q14 -39 22 -97q7 -50 7 -114q0 -33 -19 -33
q-10 0 -17 16q-6 13 -20 36q-10 16 -29 35q-17 17 -41 17q-29 0 -52 -25q-17 -18 -47 -64q-27 -42 -62 -88q-33 -44 -93 -96q89 -12 157 -17q65 -5 157 -5q57 0 100 5q51 6 102 6q22 0 22 -14l-3 -7l-10 -27q-2 -6 -25 -60q-32 -75 -44 -105z" />
    <glyph glyph-name="yehkhah" unicode="&#xfef3;&#xfea6;" horiz-adv-x="1204" 
d="M117 1092l148 131l145 -131l-145 -134zM653 68l142 137l120 -118l120 118l139 -137l-139 -139l-120 120l-120 -120zM1021 369q-67 8 -136 8q-127 0 -232 -47q-106 -48 -181 -121q-76 -75 -117 -168q-41 -94 -41 -186q0 -71 29 -140q28 -67 90 -118q61 -51 158 -82
q96 -31 234 -31q69 0 139 8q36 4 117 18q9 2 88 18q38 8 46 8q25 0 25 -19t-17 -30q-30 -21 -110 -78q-50 -36 -119 -79q-57 -36 -115 -63q-55 -26 -95 -26q-174 0 -290 38q-113 37 -183 101q-68 62 -97 148q-28 83 -28 177q0 103 28 208q28 103 74 202q41 86 100 174
q53 78 104 126q-28 0 -67 1q-55 1 -125 3q-65 1 -118 6q-54 5 -54 9q0 3 4 10q9 15 18 31q25 45 38 68q9 17 34 60.5t35 60.5q60 3 123 15q61 12 122 42q57 29 112 85q52 53 93 139q1 4 8 19.5t10 25.5q9 24 23 50q14 24 32 41q19 17 42 17q33 0 56 -25q23 -24 38 -67
q14 -39 22 -97q7 -50 7 -114q0 -33 -19 -33q-10 0 -17 16q-6 13 -20 36q-10 16 -29 35q-17 17 -41 17q-29 0 -52 -25q-17 -18 -47 -64q-27 -42 -62 -88q-33 -44 -93 -96q89 -12 157 -17q65 -5 157 -5q57 0 100 5q51 6 102 6q22 0 22 -14l-3 -7l-10 -27q-2 -6 -25 -60
q-32 -75 -44 -105z" />
    <glyph glyph-name="hmznoonf" unicode="&#xfe8c;&#xfee6;" horiz-adv-x="1747" 
d="M483 819l148 131l145 -131l-145 -134zM1505 830q-55 0 -118 -12t-106 -64q6 44 24 68q20 27 44 44q-71 38 -71 98q0 31 16 59q17 30 41 52t56 36q33 14 64 14q29 0 52 -12q22 -12 22 -37q0 -18 -5 -27l-30 -63q-6 -11 -9 -11q-2 -2 -2 0q-8 0 -11 7q-2 6 -8 13
q-3 4 -17 14q-10 7 -35 7q-14 0 -36 -6t-38 -16q30 -44 92 -53q68 -10 121 -10q16 0 16 -11q0 -9 -2 -11zM988 478q3 -9 9 -25.5t8 -22.5q8 -24 14 -48q56 -8 117 -8q53 0 117 8q57 7 118 28l-3 38l77 202q6 14 16 14t16 -14l52 -410h219v-240h-293q-15 0 -23 5q-9 6 -12 28
l-33 265q-30 -79 -119 -114q-84 -33 -222 -39q0 -87 -15 -171q-15 -81 -62 -184q-84 -72 -209 -116q-128 -45 -255 -45q-95 0 -166 24t-118 68q-44 41 -68 103q-22 57 -22 127q0 90 42 198q41 105 106 187q11 14 21 14q17 0 17 -14q0 -8 -3 -11q-32 -56 -48 -112
q-15 -54 -15 -101q0 -123 90 -183t232 -60q103 0 205 29q101 29 167 75q-6 85 -26 166q-20 84 -62 183l71 197q8 27 25 27q11 0 18 -19l4.5 -13.5t6 -17.5t6.5 -18z" />
    <glyph glyph-name="behnoonf" unicode="&#xfe92;&#xfee6;" horiz-adv-x="1747" 
d="M1294 -341l148 131l145 -131l-145 -134zM483 819l148 131l145 -131l-145 -134zM989 478l16 -48q8 -24 14 -48q56 -8 117 -8q53 0 117 8q57 7 118 28l-3 38l77 202q6 14 16 14t16 -14l52 -410h219v-240h-293q-15 0 -23 5q-9 6 -12 28l-33 265q-30 -79 -119 -114
q-84 -33 -222 -39q0 -87 -15 -171q-15 -81 -62 -184q-84 -72 -209 -116q-128 -45 -255 -45q-95 0 -166 24t-118 68q-44 41 -68 103q-22 57 -22 127q0 90 42 198q41 105 106 187q11 14 21 14q17 0 17 -14q0 -8 -3 -11q-32 -56 -48 -112q-15 -54 -15 -101q0 -123 90 -183
t232 -60q103 0 205 29q101 29 167 75q-6 85 -26 166q-20 84 -62 183l71 197q8 27 25 27q11 0 18 -19q9 -25 18 -49z" />
    <glyph glyph-name="tehnoonf" unicode="&#xfe98;&#xfee6;" horiz-adv-x="1747" 
d="M483 819l148 131l145 -131l-145 -134zM1177 961l142 137l120 -118l120 118l139 -137l-139 -139l-120 120l-120 -120zM989 478l16 -48q8 -24 14 -48q56 -8 117 -8q53 0 117 8q57 7 118 28l-3 38l77 202q6 14 16 14t16 -14l52 -410h219v-240h-293q-15 0 -23 5q-9 6 -12 28
l-33 265q-30 -79 -119 -114q-84 -33 -222 -39q0 -87 -15 -171q-15 -81 -62 -184q-84 -72 -209 -116q-128 -45 -255 -45q-95 0 -166 24t-118 68q-44 41 -68 103q-22 57 -22 127q0 90 42 198q41 105 106 187q11 14 21 14q17 0 17 -14q0 -8 -3 -11q-32 -56 -48 -112
q-15 -54 -15 -101q0 -123 90 -183t232 -60q103 0 205 29q101 29 167 75q-6 85 -26 166q-20 84 -62 183l71 197q8 27 25 27q11 0 18 -19q9 -25 18 -49z" />
    <glyph glyph-name="thehnoonf" unicode="&#xfe9c;&#xfee6;" horiz-adv-x="1747" 
d="M483 819l148 131l145 -131l-145 -134zM1196 866l134 128l115 -112l114 112l131 -128l-131 -123l-114 104l-115 -104zM1311 1084l134 123l131 -123l-131 -128zM989 478l16 -48q8 -24 14 -48q56 -8 117 -8q53 0 117 8q57 7 118 28l-3 38l77 202q6 14 16 14t16 -14l52 -410
h219v-240h-293q-15 0 -23 5q-9 6 -12 28l-33 265q-30 -79 -119 -114q-84 -33 -222 -39q0 -87 -15 -171q-15 -81 -62 -184q-84 -72 -209 -116q-128 -45 -255 -45q-95 0 -166 24t-118 68q-44 41 -68 103q-22 57 -22 127q0 90 42 198q41 105 106 187q11 14 21 14q17 0 17 -14
q0 -8 -3 -11q-32 -56 -48 -112q-15 -54 -15 -101q0 -123 90 -183t232 -60q103 0 205 29q101 29 167 75q-6 85 -26 166q-20 84 -62 183l71 197q8 27 25 27q11 0 18 -19q9 -25 18 -49z" />
    <glyph glyph-name="noonnoonf" unicode="&#xfee8;&#xfee6;" horiz-adv-x="1747" 
d="M1292 956l147 131l145 -131l-145 -134zM483 819l148 131l145 -131l-145 -134zM989 478l16 -48q8 -24 14 -48q56 -8 117 -8q53 0 117 8q57 7 118 28l-3 38l77 202q6 14 16 14t16 -14l52 -410h219v-240h-293q-15 0 -23 5q-9 6 -12 28l-33 265q-30 -79 -119 -114
q-84 -33 -222 -39q0 -87 -15 -171q-15 -81 -62 -184q-84 -72 -209 -116q-128 -45 -255 -45q-95 0 -166 24t-118 68q-44 41 -68 103q-22 57 -22 127q0 90 42 198q41 105 106 187q11 14 21 14q17 0 17 -14q0 -8 -3 -11q-32 -56 -48 -112q-15 -54 -15 -101q0 -123 90 -183
t232 -60q103 0 205 29q101 29 167 75q-6 85 -26 166q-20 84 -62 183l71 197q8 27 25 27q11 0 18 -19q9 -25 18 -49z" />
    <glyph glyph-name="yehnoonf" unicode="&#xfef4;&#xfee6;" horiz-adv-x="1747" 
d="M483 819l148 131l145 -131l-145 -134zM1155 -336l142 137l120 -118l120 118l140 -137l-140 -139l-120 120l-120 -120zM989 478l16 -48q8 -24 14 -48q56 -8 117 -8q53 0 117 8q57 7 118 28l-3 38l77 202q6 14 16 14t16 -14l52 -410h219v-240h-293q-15 0 -23 5q-9 6 -12 28
l-33 265q-30 -79 -119 -114q-84 -33 -222 -39q0 -87 -15 -171q-15 -81 -62 -184q-84 -72 -209 -116q-128 -45 -255 -45q-95 0 -166 24t-118 68q-44 41 -68 103q-22 57 -22 127q0 90 42 198q41 105 106 187q11 14 21 14q17 0 17 -14q0 -8 -3 -11q-32 -56 -48 -112
q-15 -54 -15 -101q0 -123 90 -183t232 -60q103 0 205 29q101 29 167 75q-6 85 -26 166q-20 84 -62 183l71 197q8 27 25 27q11 0 18 -19q9 -25 18 -49z" />
    <glyph glyph-name="ttehnoonf" unicode="&#xfb69;&#xfee6;" horiz-adv-x="1747" 
d="M483 819l148 131l145 -131l-145 -134zM1349 920l-33 216q-19 10 -19 27l38 79q16 -35 41 -46t36 -25q0 -4 -11 -34q-8 -22 -17 -42l-13 8q3 -33 7 -48q4 -16 4 -53v-35q0 -17 -6 -30l107 68q26 16 52 16q20 0 39 -11q17 -10 30 -26q12 -15 18 -30q5 -13 5 -20
q0 -8 -9 -25q-3 -6 -11 -17.5t-10 -14.5q-3 -5 -6.5 -10t-7.5 -11l-6 -9l-10 -14q-4 -4 -8 -10q-3 -4 -16 -4h-197q-28 0 -50 3q-24 3 -45 16l-74 47q-8 3 -8 13q0 9 13 9q3 0 33 -6q25 -5 96 -5zM1368 896h199q-10 21 -31 39t-48 18q-18 0 -38 -11zM989 478l16 -48
q8 -24 14 -48q56 -8 117 -8q53 0 117 8q57 7 118 28l-3 38l77 202q6 14 16 14t16 -14l52 -410h219v-240h-293q-15 0 -23 5q-9 6 -12 28l-33 265q-30 -79 -119 -114q-84 -33 -222 -39q0 -87 -15 -171q-15 -81 -62 -184q-84 -72 -209 -116q-128 -45 -255 -45q-95 0 -166 24
t-118 68q-44 41 -68 103q-22 57 -22 127q0 90 42 198q41 105 106 187q11 14 21 14q17 0 17 -14q0 -8 -3 -11q-32 -56 -48 -112q-15 -54 -15 -101q0 -123 90 -183t232 -60q103 0 205 29q101 29 167 75q-6 85 -26 166q-20 84 -62 183l71 197q8 27 25 27q11 0 18 -19
q9 -25 18 -49z" />
    <glyph glyph-name="hmzyeh" unicode="&#xfe8b;&#xfef2;" horiz-adv-x="1206" 
d="M291 -557l128 117l108 -100l108 100l125 -117l-125 -118l-108 102l-108 -102zM983 978q-49 0 -117 -13q-64 -12 -107 -64q6 42 25 68q21 29 43 44q-71 38 -71 98q0 30 17 59q17 30 41 52q26 24 56 37t64 13q30 0 52 -12t22 -37q0 -17 -6 -27l-30 -63q-6 -11 -8 -11
q-3 -3 -3 0q-8 0 -11 7q-3 8 -8 14q-3 4 -16 13q-10 7 -36 7q-16 0 -35 -5q-21 -6 -39 -17q30 -44 92 -53t121 -9q17 0 17 -11q0 -8 -3 -11zM1062 63q-76 9 -101 11q-62 6 -151 20q-72 11 -140 26q-61 13 -61 30q0 5 3 11l76 158q62 0 154 21q93 21 155 61q-14 42 -47 96
q-38 62 -95 126l38 218q0 19 14 19q11 0 24 -13q73 -86 118 -168q46 -85 46 -179q0 -47 -19 -114q-20 -70 -74 -124q65 -10 127 -22q40 -8 40 -57q0 -72 -29 -157q-27 -79 -70 -146q-43 -40 -102 -70q-63 -32 -134 -56q-75 -25 -150 -38q-81 -14 -154 -14q-80 0 -150 18
q-72 18 -126 56q-54 37 -87 101q-33 63 -33 153q0 95 39 214q38 114 103 231q11 14 22 14q13 0 13 -17q0 -9 -2 -11q-69 -153 -69 -259q0 -70 30 -120t82 -81q53 -32 120 -45q66 -13 142 -13q127 0 245 32q117 32 203 88z" />
    <glyph glyph-name="behyeh" unicode="&#xfe91;&#xfef2;" horiz-adv-x="1206" 
d="M978 -437l147 131l145 -131l-145 -134zM291 -557l128 117l108 -100l108 100l125 -117l-125 -118l-108 102l-108 -102zM1062 63q-76 9 -101 11q-62 6 -151 20q-72 11 -140 26q-61 13 -61 30q0 5 3 11l76 158q62 0 154 21q93 21 155 61q-14 42 -47 96q-38 62 -95 126
l38 218q0 19 14 19q11 0 24 -13q73 -86 118 -168q46 -85 46 -179q0 -47 -19 -114q-20 -70 -74 -124q65 -10 127 -22q40 -8 40 -57q0 -72 -29 -157q-27 -79 -70 -146q-43 -40 -102 -70q-63 -32 -134 -56q-75 -25 -150 -38q-81 -14 -154 -14q-80 0 -150 18q-72 18 -126 56
q-54 37 -87 101q-33 63 -33 153q0 95 39 214q38 114 103 231q11 14 22 14q13 0 13 -17q0 -9 -2 -11q-69 -153 -69 -259q0 -70 30 -120t82 -81q53 -32 120 -45q66 -13 142 -13q127 0 245 32q117 32 203 88z" />
    <glyph glyph-name="tehyeh" unicode="&#xfe97;&#xfef2;" horiz-adv-x="1206" 
d="M658 1098l142 136l120 -117l120 117l140 -136l-140 -140l-120 121l-120 -121zM291 -557l128 117l108 -100l108 100l125 -117l-125 -118l-108 102l-108 -102zM1062 63q-76 9 -101 11q-62 6 -151 20q-72 11 -140 26q-61 13 -61 30q0 5 3 11l76 158q62 0 154 21
q93 21 155 61q-14 42 -47 96q-38 62 -95 126l38 218q0 19 14 19q11 0 24 -13q73 -86 118 -168q46 -85 46 -179q0 -47 -19 -114q-20 -70 -74 -124q65 -10 127 -22q40 -8 40 -57q0 -72 -29 -157q-27 -79 -70 -146q-43 -40 -102 -70q-63 -32 -134 -56q-75 -25 -150 -38
q-81 -14 -154 -14q-80 0 -150 18q-72 18 -126 56q-54 37 -87 101q-33 63 -33 153q0 95 39 214q38 114 103 231q11 14 22 14q13 0 13 -17q0 -9 -2 -11q-69 -153 -69 -259q0 -70 30 -120t82 -81q53 -32 120 -45q66 -13 142 -13q127 0 245 32q117 32 203 88z" />
    <glyph glyph-name="thehyeh" unicode="&#xfe9b;&#xfef2;" horiz-adv-x="1206" 
d="M291 -557l128 117l108 -100l108 100l125 -117l-125 -118l-108 102l-108 -102zM672 1084l134 128l114 -112l115 112l131 -128l-131 -123l-115 104l-114 -104zM786 1303l134 122l131 -122l-131 -129zM1062 63q-76 9 -101 11q-62 6 -151 20q-72 11 -140 26q-61 13 -61 30
q0 5 3 11l76 158q62 0 154 21q93 21 155 61q-14 42 -47 96q-38 62 -95 126l38 218q0 19 14 19q11 0 24 -13q73 -86 118 -168q46 -85 46 -179q0 -47 -19 -114q-20 -70 -74 -124q65 -10 127 -22q40 -8 40 -57q0 -72 -29 -157q-27 -79 -70 -146q-43 -40 -102 -70
q-63 -32 -134 -56q-75 -25 -150 -38q-81 -14 -154 -14q-80 0 -150 18q-72 18 -126 56q-54 37 -87 101q-33 63 -33 153q0 95 39 214q38 114 103 231q11 14 22 14q13 0 13 -17q0 -9 -2 -11q-69 -153 -69 -259q0 -70 30 -120t82 -81q53 -32 120 -45q66 -13 142 -13
q127 0 245 32q117 32 203 88z" />
    <glyph glyph-name="noonyeh" unicode="&#xfee7;&#xfef2;" horiz-adv-x="1206" 
d="M718 1092l148 131l144 -131l-144 -134zM291 -557l128 117l108 -100l108 100l125 -117l-125 -118l-108 102l-108 -102zM1062 63q-76 9 -101 11q-62 6 -151 20q-72 11 -140 26q-61 13 -61 30q0 5 3 11l76 158q62 0 154 21q93 21 155 61q-14 42 -47 96q-38 62 -95 126
l38 218q0 19 14 19q11 0 24 -13q73 -86 118 -168q46 -85 46 -179q0 -47 -19 -114q-20 -70 -74 -124q65 -10 127 -22q40 -8 40 -57q0 -72 -29 -157q-27 -79 -70 -146q-43 -40 -102 -70q-63 -32 -134 -56q-75 -25 -150 -38q-81 -14 -154 -14q-80 0 -150 18q-72 18 -126 56
q-54 37 -87 101q-33 63 -33 153q0 95 39 214q38 114 103 231q11 14 22 14q13 0 13 -17q0 -9 -2 -11q-69 -153 -69 -259q0 -70 30 -120t82 -81q53 -32 120 -45q66 -13 142 -13q127 0 245 32q117 32 203 88z" />
    <glyph glyph-name="yehyeh" unicode="&#xfef3;&#xfef2;" horiz-adv-x="1206" 
d="M795 -486l142 136l120 -117l120 117l139 -136l-139 -139l-120 120l-120 -120zM236 -557l128 117l108 -100l109 100l125 -117l-125 -118l-109 102l-108 -102zM1062 63q-76 9 -101 11q-62 6 -151 20q-72 11 -140 26q-61 13 -61 30q0 5 3 11l76 158q62 0 154 21
q93 21 155 61q-14 42 -47 96q-38 62 -95 126l38 218q0 19 14 19q11 0 24 -13q73 -86 118 -168q46 -85 46 -179q0 -47 -19 -114q-20 -70 -74 -124q65 -10 127 -22q40 -8 40 -57q0 -72 -29 -157q-27 -79 -70 -146q-43 -40 -102 -70q-63 -32 -134 -56q-75 -25 -150 -38
q-81 -14 -154 -14q-80 0 -150 18q-72 18 -126 56q-54 37 -87 101q-33 63 -33 153q0 95 39 214q38 114 103 231q11 14 22 14q13 0 13 -17q0 -9 -2 -11q-69 -153 -69 -259q0 -70 30 -120t82 -81q53 -32 120 -45q66 -13 142 -13q127 0 245 32q117 32 203 88z" />
    <glyph glyph-name="ttehyeh" unicode="&#xfb68;&#xfef2;" horiz-adv-x="1206" 
d="M291 -557l128 117l108 -100l108 100l125 -117l-125 -118l-108 102l-108 -102zM838 1057l-32 215q-20 11 -20 28l39 79q16 -35 41 -46q24 -10 35 -25q0 -4 -11 -34q-13 -35 -16 -42l-14 8q3 -33 7 -48q4 -16 4 -53v-36q0 -19 -5 -30l106 68q28 17 52 17q21 0 40 -11
q17 -10 30 -26q10 -12 17 -30q6 -15 6 -21t-10 -24q-6 -11 -20 -33q-4 -6 -11.5 -16t-9.5 -14l-9 -14q-6 -6 -8 -9q-3 -4 -17 -4h-196q-36 0 -51 2q-21 3 -45 17l-74 46q-8 3 -8 14q0 8 14 8q8 0 33 -5q30 -6 95 -6zM857 1032h200q-10 21 -32 40q-21 18 -47 18
q-19 0 -39 -11zM1062 63q-76 9 -101 11q-62 6 -151 20q-72 11 -140 26q-61 13 -61 30q0 5 3 11l76 158q62 0 154 21q93 21 155 61q-14 42 -47 96q-38 62 -95 126l38 218q0 19 14 19q11 0 24 -13q73 -86 118 -168q46 -85 46 -179q0 -47 -19 -114q-20 -70 -74 -124
q65 -10 127 -22q40 -8 40 -57q0 -72 -29 -157q-27 -79 -70 -146q-43 -40 -102 -70q-63 -32 -134 -56q-75 -25 -150 -38q-81 -14 -154 -14q-80 0 -150 18q-72 18 -126 56q-54 37 -87 101q-33 63 -33 153q0 95 39 214q38 114 103 231q11 14 22 14q13 0 13 -17q0 -9 -2 -11
q-69 -153 -69 -259q0 -70 30 -120t82 -81q53 -32 120 -45q66 -13 142 -13q127 0 245 32q117 32 203 88z" />
    <glyph glyph-name="pehyeh" unicode="&#xfb58;&#xfef2;" horiz-adv-x="1206" 
d="M236 -584l128 116l108 -100l109 100l125 -116l-125 -118l-109 102l-108 -102zM961 -361l93 -96l93 96l106 -109l-106 -103l-93 90l-93 -90l-106 103zM1054 -547l106 -107l-106 -106l-106 106zM1062 63q-76 9 -101 11q-62 6 -151 20q-72 11 -140 26q-61 13 -61 30
q0 5 3 11l76 158q62 0 154 21q93 21 155 61q-14 42 -47 96q-38 62 -95 126l38 218q0 19 14 19q11 0 24 -13q73 -86 118 -168q46 -85 46 -179q0 -47 -19 -114q-20 -70 -74 -124q65 -10 127 -22q40 -8 40 -57q0 -72 -29 -157q-27 -79 -70 -146q-43 -40 -102 -70
q-63 -32 -134 -56q-75 -25 -150 -38q-81 -14 -154 -14q-80 0 -150 18q-72 18 -126 56q-54 37 -87 101q-33 63 -33 153q0 95 39 214q38 114 103 231q11 14 22 14q13 0 13 -17q0 -9 -2 -11q-69 -153 -69 -259q0 -70 30 -120t82 -81q53 -32 120 -45q66 -13 142 -13
q127 0 245 32q117 32 203 88z" />
    <glyph glyph-name="hmzyehhmz" unicode="&#xfe8b;&#xfe8a;" horiz-adv-x="1206" 
d="M983 978q-49 0 -117 -13q-64 -12 -107 -64q6 42 25 68q21 29 43 44q-71 38 -71 98q0 30 17 59q17 30 41 52q26 24 56 37t64 13q30 0 52 -12t22 -37q0 -17 -6 -27l-30 -63q-6 -11 -8 -11q-3 -3 -3 0q-8 0 -11 7q-3 8 -8 14q-3 4 -16 13q-10 7 -36 7q-16 0 -35 -5
q-21 -6 -39 -17q30 -44 92 -53t121 -9q17 0 17 -11q0 -8 -3 -11zM355 612q-49 0 -117 -13q-64 -12 -107 -64q6 42 25 68q21 29 43 44q-71 38 -71 98q0 30 17 59q17 30 41 52q26 24 56 37q33 14 64 14q28 0 52 -13q22 -12 22 -37q0 -17 -6 -27l-30 -63q-6 -11 -8 -11
q-3 -3 -3 0q-8 0 -11 7q-3 8 -8 14t-16 14q-8 6 -36 6q-16 0 -35 -5q-24 -6 -39 -16q31 -45 92 -54q62 -9 121 -9q17 0 17 -11q0 -8 -3 -11zM1062 63q-76 9 -101 11q-62 6 -151 20q-72 11 -140 26q-61 13 -61 30q0 5 3 11l76 158q62 0 154 21q93 21 155 61q-14 42 -47 96
q-38 62 -95 126l38 218q0 19 14 19q10 0 24 -14q75 -87 118 -167q46 -85 46 -179q0 -47 -19 -114q-20 -70 -74 -124q65 -10 127 -22q40 -8 40 -57q0 -72 -29 -157q-27 -79 -70 -146q-43 -40 -102 -70q-63 -32 -134 -56q-75 -25 -150 -38q-81 -14 -154 -14q-80 0 -150 18
q-72 18 -126 56q-54 37 -87 101q-33 63 -33 153q0 95 39 214q38 114 103 231q11 14 22 14q13 0 13 -17q0 -9 -2 -11q-69 -153 -69 -259q0 -70 30 -120t82 -81q53 -32 120 -45q66 -13 142 -13q127 0 245 32q117 32 203 88z" />
    <glyph glyph-name="behyehhmz" unicode="&#xfe91;&#xfe8a;" horiz-adv-x="1206" 
d="M978 -437l147 131l145 -131l-145 -134zM355 612q-49 0 -117 -13q-64 -12 -107 -64q6 42 25 68q21 29 43 44q-71 38 -71 98q0 30 17 59q17 30 41 52q26 24 56 37q33 14 64 14q28 0 52 -13q22 -12 22 -37q0 -17 -6 -27l-30 -63q-6 -11 -8 -11q-3 -3 -3 0q-8 0 -11 7
q-3 8 -8 14t-16 14q-8 6 -36 6q-16 0 -35 -5q-24 -6 -39 -16q31 -45 92 -54q62 -9 121 -9q17 0 17 -11q0 -8 -3 -11zM1062 63q-76 9 -101 11q-62 6 -151 20q-72 11 -140 26q-61 13 -61 30q0 5 3 11l76 158q62 0 154 21q93 21 155 61q-14 42 -47 96q-38 62 -95 126l38 218
q0 19 14 19q11 0 24 -13q73 -86 118 -168q46 -85 46 -179q0 -47 -19 -114q-20 -70 -74 -124q65 -10 127 -22q40 -8 40 -57q0 -72 -29 -157q-27 -79 -70 -146q-43 -40 -102 -70q-63 -32 -134 -56q-75 -25 -150 -38q-81 -14 -154 -14q-80 0 -150 18q-72 18 -126 56
q-54 37 -87 101q-33 63 -33 153q0 95 39 214q38 114 103 231q11 14 22 14q13 0 13 -17q0 -9 -2 -11q-69 -153 -69 -259q0 -70 30 -120t82 -81q53 -32 120 -45q66 -13 142 -13q127 0 245 32q117 32 203 88z" />
    <glyph glyph-name="tehyehhmz" unicode="&#xfe97;&#xfe8a;" horiz-adv-x="1206" 
d="M658 1098l142 136l120 -117l120 117l140 -136l-140 -140l-120 121l-120 -121zM355 612q-49 0 -117 -13q-64 -12 -107 -64q6 42 25 68q21 29 43 44q-71 38 -71 98q0 30 17 59q17 30 41 52q26 24 56 37q33 14 64 14q28 0 52 -13q22 -12 22 -37q0 -17 -6 -27l-30 -63
q-6 -11 -8 -11q-3 -3 -3 0q-8 0 -11 7q-3 8 -8 14t-16 14q-8 6 -36 6q-16 0 -35 -5q-24 -6 -39 -16q31 -45 92 -54q62 -9 121 -9q17 0 17 -11q0 -8 -3 -11zM1062 63q-76 9 -101 11q-62 6 -151 20q-72 11 -140 26q-61 13 -61 30q0 5 3 11l76 158q62 0 154 21q93 21 155 61
q-14 42 -47 96q-38 62 -95 126l38 218q0 19 14 19q11 0 24 -13q73 -86 118 -168q46 -85 46 -179q0 -47 -19 -114q-20 -70 -74 -124q65 -10 127 -22q40 -8 40 -57q0 -72 -29 -157q-27 -79 -70 -146q-43 -40 -102 -70q-63 -32 -134 -56q-75 -25 -150 -38q-81 -14 -154 -14
q-80 0 -150 18q-72 18 -126 56q-54 37 -87 101q-33 63 -33 153q0 95 39 214q38 114 103 231q11 14 22 14q13 0 13 -17q0 -9 -2 -11q-69 -153 -69 -259q0 -70 30 -120t82 -81q53 -32 120 -45q66 -13 142 -13q127 0 245 32q117 32 203 88z" />
    <glyph glyph-name="thehyehhmz" unicode="&#xfe9b;&#xfe8a;" horiz-adv-x="1206" 
d="M672 1084l134 128l114 -112l115 112l131 -128l-131 -123l-115 104l-114 -104zM786 1303l134 122l131 -122l-131 -129zM355 612q-49 0 -117 -13q-64 -12 -107 -64q6 42 25 68q21 29 43 44q-71 38 -71 98q0 30 17 59q17 30 41 52q26 24 56 37q33 14 64 14q28 0 52 -13
q22 -12 22 -37q0 -17 -6 -27l-30 -63q-6 -11 -8 -11q-3 -3 -3 0q-8 0 -11 7q-3 8 -8 14t-16 14q-8 6 -36 6q-16 0 -35 -5q-24 -6 -39 -16q31 -45 92 -54q62 -9 121 -9q17 0 17 -11q0 -8 -3 -11zM1062 63q-76 9 -101 11q-62 6 -151 20q-72 11 -140 26q-61 13 -61 30q0 5 3 11
l76 158q62 0 154 21q93 21 155 61q-14 42 -47 96q-38 62 -95 126l38 218q0 19 14 19q11 0 24 -13q73 -86 118 -168q46 -85 46 -179q0 -47 -19 -114q-20 -70 -74 -124q65 -10 127 -22q40 -8 40 -57q0 -72 -29 -157q-27 -79 -70 -146q-43 -40 -102 -70q-63 -32 -134 -56
q-75 -25 -150 -38q-81 -14 -154 -14q-80 0 -150 18q-72 18 -126 56q-54 37 -87 101q-33 63 -33 153q0 95 39 214q38 114 103 231q11 14 22 14q13 0 13 -17q0 -9 -2 -11q-69 -153 -69 -259q0 -70 30 -120t82 -81q53 -32 120 -45q66 -13 142 -13q127 0 245 32q117 32 203 88z
" />
    <glyph glyph-name="noonyehhmz" unicode="&#xfee7;&#xfe8a;" horiz-adv-x="1206" 
d="M718 1092l148 131l144 -131l-144 -134zM355 612q-49 0 -117 -13q-64 -12 -107 -64q6 42 25 68q21 29 43 44q-71 38 -71 98q0 30 17 59q17 30 41 52q26 24 56 37q33 14 64 14q28 0 52 -13q22 -12 22 -37q0 -17 -6 -27l-30 -63q-6 -11 -8 -11q-3 -3 -3 0q-8 0 -11 7
q-3 8 -8 14t-16 14q-8 6 -36 6q-16 0 -35 -5q-24 -6 -39 -16q31 -45 92 -54q62 -9 121 -9q17 0 17 -11q0 -8 -3 -11zM1062 63q-76 9 -101 11q-62 6 -151 20q-72 11 -140 26q-61 13 -61 30q0 5 3 11l76 158q62 0 154 21q93 21 155 61q-14 42 -47 96q-38 62 -95 126l38 218
q0 19 14 19q11 0 24 -13q73 -86 118 -168q46 -85 46 -179q0 -47 -19 -114q-20 -70 -74 -124q65 -10 127 -22q40 -8 40 -57q0 -72 -29 -157q-27 -79 -70 -146q-43 -40 -102 -70q-63 -32 -134 -56q-75 -25 -150 -38q-81 -14 -154 -14q-80 0 -150 18q-72 18 -126 56
q-54 37 -87 101q-33 63 -33 153q0 95 39 214q38 114 103 231q11 14 22 14q13 0 13 -17q0 -9 -2 -11q-69 -153 -69 -259q0 -70 30 -120t82 -81q53 -32 120 -45q66 -13 142 -13q127 0 245 32q117 32 203 88z" />
    <glyph glyph-name="yehyehhmz" unicode="&#xfef3;&#xfe8a;" horiz-adv-x="1206" 
d="M795 -486l142 136l120 -117l120 117l139 -136l-139 -139l-120 120l-120 -120zM355 612q-49 0 -117 -13q-64 -12 -107 -64q6 42 25 68q21 29 43 44q-71 38 -71 98q0 30 17 59q17 30 41 52q26 24 56 37q33 14 64 14q28 0 52 -13q22 -12 22 -37q0 -17 -6 -27l-30 -63
q-6 -11 -8 -11q-3 -3 -3 0q-8 0 -11 7q-3 8 -8 14t-16 14q-8 6 -36 6q-16 0 -35 -5q-24 -6 -39 -16q31 -45 92 -54q62 -9 121 -9q17 0 17 -11q0 -8 -3 -11zM1062 63q-76 9 -101 11q-62 6 -151 20q-72 11 -140 26q-61 13 -61 30q0 5 3 11l76 158q62 0 154 21q93 21 155 61
q-14 42 -47 96q-38 62 -95 126l38 218q0 19 14 19q11 0 24 -13q73 -86 118 -168q46 -85 46 -179q0 -47 -19 -114q-20 -70 -74 -124q65 -10 127 -22q40 -8 40 -57q0 -72 -29 -157q-27 -79 -70 -146q-43 -40 -102 -70q-63 -32 -134 -56q-75 -25 -150 -38q-81 -14 -154 -14
q-80 0 -150 18q-72 18 -126 56q-54 37 -87 101q-33 63 -33 153q0 95 39 214q38 114 103 231q11 14 22 14q13 0 13 -17q0 -9 -2 -11q-69 -153 -69 -259q0 -70 30 -120t82 -81q53 -32 120 -45q66 -13 142 -13q127 0 245 32q117 32 203 88z" />
    <glyph glyph-name="ttehyehhmz" unicode="&#xfb68;&#xfe8a;" horiz-adv-x="1206" 
d="M838 1057l-32 215q-20 11 -20 28l39 79q16 -35 41 -46q24 -10 35 -25q0 -4 -11 -34q-13 -35 -16 -42l-14 8q3 -33 7 -48q4 -16 4 -53v-36q0 -19 -5 -30l106 68q28 17 52 17q21 0 40 -11q17 -10 30 -26q10 -12 17 -30q6 -15 6 -21t-10 -24q-6 -11 -20 -33q-4 -6 -11.5 -16
t-9.5 -14l-9 -14q-6 -6 -8 -9q-3 -4 -17 -4h-196q-36 0 -51 2q-21 3 -45 17l-74 46q-8 3 -8 14q0 8 14 8q8 0 33 -5q30 -6 95 -6zM857 1032h200q-10 21 -32 40q-21 18 -47 18q-19 0 -39 -11zM355 612q-49 0 -117 -13q-64 -12 -107 -64q6 42 25 68q21 29 43 44q-71 38 -71 98
q0 30 17 59q17 30 41 52q26 24 56 37q33 14 64 14q28 0 52 -13q22 -12 22 -37q0 -17 -6 -27l-30 -63q-6 -11 -8 -11q-3 -3 -3 0q-8 0 -11 7q-3 8 -8 14t-16 14q-8 6 -36 6q-16 0 -35 -5q-24 -6 -39 -16q31 -45 92 -54q62 -9 121 -9q17 0 17 -11q0 -8 -3 -11zM1062 63
q-76 9 -101 11q-62 6 -151 20q-72 11 -140 26q-61 13 -61 30q0 5 3 11l76 158q62 0 154 21q93 21 155 61q-14 42 -47 96q-38 62 -95 126l38 218q0 19 14 19q11 0 24 -13q73 -86 118 -168q46 -85 46 -179q0 -47 -19 -114q-20 -70 -74 -124q65 -10 127 -22q40 -8 40 -57
q0 -72 -29 -157q-27 -79 -70 -146q-43 -40 -102 -70q-63 -32 -134 -56q-75 -25 -150 -38q-81 -14 -154 -14q-80 0 -150 18q-72 18 -126 56q-54 37 -87 101q-33 63 -33 153q0 95 39 214q38 114 103 231q11 14 22 14q13 0 13 -17q0 -9 -2 -11q-69 -153 -69 -259q0 -70 30 -120
t82 -81q53 -32 120 -45q66 -13 142 -13q127 0 245 32q117 32 203 88z" />
    <glyph glyph-name="pehyehhmz" unicode="&#xfb58;&#xfe8a;" horiz-adv-x="1206" 
d="M961 -361l93 -96l93 96l106 -109l-106 -103l-93 90l-93 -90l-106 103zM1054 -547l106 -107l-106 -106l-106 106zM1062 63q-76 9 -101 11q-62 6 -151 20q-72 11 -140 26q-61 13 -61 30q0 5 3 11l76 158q62 0 154 21q93 21 155 61q-14 42 -47 96q-38 62 -95 126l38 218
q0 19 14 19q11 0 24 -13q73 -86 118 -168q46 -85 46 -179q0 -47 -19 -114q-20 -70 -74 -124q65 -10 127 -22q40 -8 40 -57q0 -72 -29 -157q-27 -79 -70 -146q-43 -40 -102 -70q-63 -32 -134 -56q-75 -25 -150 -38q-81 -14 -154 -14q-80 0 -150 18q-72 18 -126 56
q-54 37 -87 101q-33 63 -33 153q0 95 39 214q38 114 103 231q11 14 22 14q13 0 13 -17q0 -9 -2 -11q-69 -153 -69 -259q0 -70 30 -120t82 -81q53 -32 120 -45q66 -13 142 -13q127 0 245 32q117 32 203 88z" />
    <glyph glyph-name="hmzmaksura" unicode="&#xfe8b;&#xfbfd;" horiz-adv-x="1206" 
d="M983 978q-49 0 -117 -13q-64 -12 -107 -64q6 42 25 68q21 29 43 44q-71 38 -71 98q0 30 17 59q17 30 41 52q26 24 56 37t64 13q30 0 52 -12t22 -37q0 -17 -6 -27l-30 -63q-6 -11 -8 -11q-3 -3 -3 0q-8 0 -11 7q-3 8 -8 14q-3 4 -16 13q-10 7 -36 7q-16 0 -35 -5
q-21 -6 -39 -17q30 -44 92 -53t121 -9q17 0 17 -11q0 -8 -3 -11zM1062 63q-76 9 -101 11q-62 6 -151 20q-72 11 -140 26q-61 13 -61 30q0 5 3 11l76 158q62 0 154 21q93 21 155 61q-14 42 -47 96q-38 62 -95 126l38 218q0 19 14 19q11 0 24 -13q73 -86 118 -168
q46 -85 46 -179q0 -47 -19 -114q-20 -70 -74 -124q65 -10 127 -22q40 -8 40 -57q0 -72 -29 -157q-27 -79 -70 -146q-43 -40 -102 -70q-63 -32 -134 -56q-75 -25 -150 -38q-81 -14 -154 -14q-80 0 -150 18q-72 18 -126 56q-54 37 -87 101q-33 63 -33 153q0 95 39 214
q38 114 103 231q11 14 22 14q13 0 13 -17q0 -9 -2 -11q-69 -153 -69 -259q0 -70 30 -120t82 -81q53 -32 120 -45q66 -13 142 -13q127 0 245 32q117 32 203 88z" />
    <glyph glyph-name="behmaksura" unicode="&#xfe91;&#xfbfd;" horiz-adv-x="1206" 
d="M978 -437l147 131l145 -131l-145 -134zM1062 63q-76 9 -101 11q-62 6 -151 20q-72 11 -140 26q-61 13 -61 30q0 5 3 11l76 158q62 0 154 21q93 21 155 61q-14 42 -47 96q-38 62 -95 126l38 218q0 19 14 19q11 0 24 -13q73 -86 118 -168q46 -85 46 -179q0 -47 -19 -114
q-20 -70 -74 -124q65 -10 127 -22q40 -8 40 -57q0 -72 -29 -157q-27 -79 -70 -146q-43 -40 -102 -70q-63 -32 -134 -56q-75 -25 -150 -38q-81 -14 -154 -14q-80 0 -150 18q-72 18 -126 56q-54 37 -87 101q-33 63 -33 153q0 95 39 214q38 114 103 231q11 14 22 14
q13 0 13 -17q0 -9 -2 -11q-69 -153 -69 -259q0 -70 30 -120t82 -81q53 -32 120 -45q66 -13 142 -13q127 0 245 32q117 32 203 88z" />
    <glyph glyph-name="tehmaksura" unicode="&#xfe97;&#xfbfd;" horiz-adv-x="1206" 
d="M658 1098l142 136l120 -117l120 117l140 -136l-140 -140l-120 121l-120 -121zM1062 63q-76 9 -101 11q-62 6 -151 20q-72 11 -140 26q-61 13 -61 30q0 5 3 11l76 158q62 0 154 21q93 21 155 61q-14 42 -47 96q-38 62 -95 126l38 218q0 19 14 19q11 0 24 -13
q73 -86 118 -168q46 -85 46 -179q0 -47 -19 -114q-20 -70 -74 -124q65 -10 127 -22q40 -8 40 -57q0 -72 -29 -157q-27 -79 -70 -146q-43 -40 -102 -70q-63 -32 -134 -56q-75 -25 -150 -38q-81 -14 -154 -14q-80 0 -150 18q-72 18 -126 56q-54 37 -87 101q-33 63 -33 153
q0 95 39 214q38 114 103 231q11 14 22 14q13 0 13 -17q0 -9 -2 -11q-69 -153 -69 -259q0 -70 30 -120t82 -81q53 -32 120 -45q66 -13 142 -13q127 0 245 32q117 32 203 88z" />
    <glyph glyph-name="thehmaksura" unicode="&#xfe9b;&#xfbfd;" horiz-adv-x="1206" 
d="M672 1084l134 128l114 -112l115 112l131 -128l-131 -123l-115 104l-114 -104zM786 1303l134 122l131 -122l-131 -129zM1062 63q-76 9 -101 11q-62 6 -151 20q-72 11 -140 26q-61 13 -61 30q0 5 3 11l76 158q62 0 154 21q93 21 155 61q-14 42 -47 96q-38 62 -95 126
l38 218q0 19 14 19q11 0 24 -13q73 -86 118 -168q46 -85 46 -179q0 -47 -19 -114q-20 -70 -74 -124q65 -10 127 -22q40 -8 40 -57q0 -72 -29 -157q-27 -79 -70 -146q-43 -40 -102 -70q-63 -32 -134 -56q-75 -25 -150 -38q-81 -14 -154 -14q-80 0 -150 18q-72 18 -126 56
q-54 37 -87 101q-33 63 -33 153q0 95 39 214q38 114 103 231q11 14 22 14q13 0 13 -17q0 -9 -2 -11q-69 -153 -69 -259q0 -70 30 -120t82 -81q53 -32 120 -45q66 -13 142 -13q127 0 245 32q117 32 203 88z" />
    <glyph glyph-name="noonmaksura" unicode="&#xfee7;&#xfbfd;" horiz-adv-x="1206" 
d="M718 1092l148 131l144 -131l-144 -134zM1062 63q-76 9 -101 11q-62 6 -151 20q-72 11 -140 26q-61 13 -61 30q0 5 3 11l76 158q62 0 154 21q93 21 155 61q-14 42 -47 96q-38 62 -95 126l38 218q0 19 14 19q11 0 24 -13q73 -86 118 -168q46 -85 46 -179q0 -47 -19 -114
q-20 -70 -74 -124q65 -10 127 -22q40 -8 40 -57q0 -72 -29 -157q-27 -79 -70 -146q-43 -40 -102 -70q-63 -32 -134 -56q-75 -25 -150 -38q-81 -14 -154 -14q-80 0 -150 18q-72 18 -126 56q-54 37 -87 101q-33 63 -33 153q0 95 39 214q38 114 103 231q11 14 22 14
q13 0 13 -17q0 -9 -2 -11q-69 -153 -69 -259q0 -70 30 -120t82 -81q53 -32 120 -45q66 -13 142 -13q127 0 245 32q117 32 203 88z" />
    <glyph glyph-name="yehmaksura" unicode="&#xfef3;&#xfbfd;" horiz-adv-x="1206" 
d="M795 -486l142 136l120 -117l120 117l139 -136l-139 -139l-120 120l-120 -120zM1062 63q-76 9 -101 11q-62 6 -151 20q-72 11 -140 26q-61 13 -61 30q0 5 3 11l76 158q62 0 154 21q93 21 155 61q-14 42 -47 96q-38 62 -95 126l38 218q0 19 14 19q11 0 24 -13
q73 -86 118 -168q46 -85 46 -179q0 -47 -19 -114q-20 -70 -74 -124q65 -10 127 -22q40 -8 40 -57q0 -72 -29 -157q-27 -79 -70 -146q-43 -40 -102 -70q-63 -32 -134 -56q-75 -25 -150 -38q-81 -14 -154 -14q-80 0 -150 18q-72 18 -126 56q-54 37 -87 101q-33 63 -33 153
q0 95 39 214q38 114 103 231q11 14 22 14q13 0 13 -17q0 -9 -2 -11q-69 -153 -69 -259q0 -70 30 -120t82 -81q53 -32 120 -45q66 -13 142 -13q127 0 245 32q117 32 203 88z" />
    <glyph glyph-name="ttehmaksura" unicode="&#xfb68;&#xfbfd;" horiz-adv-x="1206" 
d="M838 1057l-32 215q-20 11 -20 28l39 79q16 -35 41 -46q24 -10 35 -25q0 -4 -11 -34q-13 -35 -16 -42l-14 8q3 -33 7 -48q4 -16 4 -53v-36q0 -19 -5 -30l106 68q28 17 52 17q21 0 40 -11q17 -10 30 -26q10 -12 17 -30q6 -15 6 -21t-10 -24q-6 -11 -20 -33q-4 -6 -11.5 -16
t-9.5 -14l-9 -14q-6 -6 -8 -9q-3 -4 -17 -4h-196q-36 0 -51 2q-21 3 -45 17l-74 46q-8 3 -8 14q0 8 14 8q8 0 33 -5q30 -6 95 -6zM857 1032h200q-10 21 -32 40q-21 18 -47 18q-19 0 -39 -11zM1062 63q-76 9 -101 11q-62 6 -151 20q-72 11 -140 26q-61 13 -61 30q0 5 3 11
l76 158q62 0 154 21q93 21 155 61q-14 42 -47 96q-38 62 -95 126l38 218q0 19 14 19q11 0 24 -13q73 -86 118 -168q46 -85 46 -179q0 -47 -19 -114q-20 -70 -74 -124q65 -10 127 -22q40 -8 40 -57q0 -72 -29 -157q-27 -79 -70 -146q-43 -40 -102 -70q-63 -32 -134 -56
q-75 -25 -150 -38q-81 -14 -154 -14q-80 0 -150 18q-72 18 -126 56q-54 37 -87 101q-33 63 -33 153q0 95 39 214q38 114 103 231q11 14 22 14q13 0 13 -17q0 -9 -2 -11q-69 -153 -69 -259q0 -70 30 -120t82 -81q53 -32 120 -45q66 -13 142 -13q127 0 245 32q117 32 203 88z
" />
    <glyph glyph-name="pehmaksura" unicode="&#xfb58;&#xfbfd;" horiz-adv-x="1206" 
d="M961 -361l93 -96l93 96l106 -109l-106 -103l-93 90l-93 -90l-106 103zM1054 -547l106 -107l-106 -106l-106 106zM1062 63q-76 9 -101 11q-62 6 -151 20q-72 11 -140 26q-61 13 -61 30q0 5 3 11l76 158q62 0 154 21q93 21 155 61q-14 42 -47 96q-38 62 -95 126l38 218
q0 19 14 19q11 0 24 -13q73 -86 118 -168q46 -85 46 -179q0 -47 -19 -114q-20 -70 -74 -124q65 -10 127 -22q40 -8 40 -57q0 -72 -29 -157q-27 -79 -70 -146q-43 -40 -102 -70q-63 -32 -134 -56q-75 -25 -150 -38q-81 -14 -154 -14q-80 0 -150 18q-72 18 -126 56
q-54 37 -87 101q-33 63 -33 153q0 95 39 214q38 114 103 231q11 14 22 14q13 0 13 -17q0 -9 -2 -11q-69 -153 -69 -259q0 -70 30 -120t82 -81q53 -32 120 -45q66 -13 142 -13q127 0 245 32q117 32 203 88z" />
    <glyph glyph-name="jeemyeh" unicode="&#xfe9f;&#xfef2;" horiz-adv-x="1764" 
d="M1327 -74l148 131l144 -131l-144 -134zM291 -584l128 116l108 -100l108 100l125 -116l-125 -118l-108 102l-108 -102zM1630 303q-26 4 -86 10q-37 4 -89 4q-130 0 -256 -22q-134 -23 -246 -55l158 -30q69 -16 69 -60q0 -17 -11 -64q-9 -39 -26 -93q-14 -45 -32 -89
q-17 -40 -30 -54q-43 -39 -101 -73q-57 -33 -134 -58q-81 -27 -154 -40q-81 -15 -157 -15q-79 0 -153 18q-73 18 -128 56q-54 37 -87 101q-33 63 -33 153q0 46 11 106q11 58 30 116q20 60 45 116t59 104q6 14 21 14q14 0 14 -14q0 -3 -1 -5q-2 -4 -2 -6q-71 -151 -71 -259
q0 -74 30 -123q29 -48 80 -79q52 -31 114 -44q68 -14 137 -14q57 0 132 10q63 8 130 26q58 15 116 40q53 23 91 47q-85 15 -139 22q-66 9 -150 23q-57 10 -120 25q-49 12 -49 29q0 9 2 11l88 182q102 53 207 80q99 25 252 49q-121 41 -123 42q-57 21 -131 21q-48 0 -69 -7
t-27 -7q-19 0 -19 19q0 7 19 36q31 48 44 68q31 51 63 98q14 20 30 36t49 16q36 0 98 -40q49 -32 146 -88q88 -51 199 -89q117 -40 261 -40q9 0 14 -2q8 -3 8 -11t-3 -14z" />
    <glyph glyph-name="khahyeh" unicode="&#xfea7;&#xfef2;" horiz-adv-x="1764" 
d="M898 1092l148 131l145 -131l-145 -134zM291 -584l128 116l108 -100l108 100l125 -116l-125 -118l-108 102l-108 -102zM1630 303q-26 4 -86 10q-37 4 -89 4q-130 0 -256 -22q-134 -23 -246 -55l158 -30q69 -16 69 -60q0 -17 -11 -64q-9 -39 -26 -93q-14 -45 -32 -89
q-17 -40 -30 -54q-43 -39 -101 -73q-57 -33 -134 -58q-81 -27 -154 -40q-81 -15 -157 -15q-79 0 -153 18q-73 18 -128 56q-54 37 -87 101q-33 63 -33 153q0 46 11 106q11 58 30 116q20 60 45 116t59 104q6 14 21 14q14 0 14 -14q0 -3 -1 -5q-2 -4 -2 -6q-71 -151 -71 -259
q0 -74 30 -123q29 -48 80 -79q52 -31 114 -44q68 -14 137 -14q57 0 132 10q63 8 130 26q58 15 116 40q53 23 91 47q-85 15 -139 22q-66 9 -150 23q-57 10 -120 25q-49 12 -49 29q0 9 2 11l88 182q102 53 207 80q99 25 252 49q-121 41 -123 42q-57 21 -131 21q-48 0 -69 -7
t-27 -7q-19 0 -19 19q0 7 19 36q31 48 44 68q31 51 63 98q14 20 30 36t49 16q36 0 98 -40q49 -32 146 -88q88 -51 199 -89q117 -40 261 -40q9 0 14 -2q8 -3 8 -11t-3 -14z" />
    <glyph glyph-name="jeemyehhmz" unicode="&#xfe9f;&#xfe8a;" horiz-adv-x="1764" 
d="M1327 -128l148 131l144 -131l-144 -134zM314 612q-49 0 -117 -13q-64 -12 -107 -64q6 42 25 68q21 29 43 44q-71 38 -71 98q0 30 17 59q17 30 41 52q26 24 56 37q33 14 64 14q28 0 52 -13q22 -12 22 -37q0 -17 -6 -27l-30 -63q-6 -11 -8 -11q-3 -3 -3 0q-8 0 -11 7
q-3 8 -8 14t-16 14q-8 6 -36 6q-16 0 -35 -5q-24 -6 -39 -16q31 -45 92 -54q62 -9 121 -9q17 0 17 -11q0 -8 -3 -11zM1630 303q-26 4 -86 10q-37 4 -89 4q-130 0 -256 -22q-134 -23 -246 -55l158 -30q69 -16 69 -60q0 -17 -11 -64q-9 -39 -26 -93q-14 -45 -32 -89
q-17 -40 -30 -54q-43 -39 -101 -73q-57 -33 -134 -58q-81 -27 -154 -40q-81 -15 -157 -15q-79 0 -153 18q-73 18 -128 56q-54 37 -87 101q-33 63 -33 153q0 46 11 106q11 58 30 116q20 60 45 116t59 104q6 14 21 14q14 0 14 -14q0 -3 -1 -5q-2 -4 -2 -6q-71 -151 -71 -259
q0 -74 30 -123q29 -48 80 -79q52 -31 114 -44q68 -14 137 -14q57 0 132 10q63 8 130 26q58 15 116 40q53 23 91 47q-85 15 -139 22q-66 9 -150 23q-57 10 -120 25q-49 12 -49 29q0 9 2 11l88 182q102 53 207 80q99 25 252 49q-121 41 -123 42q-57 21 -131 21q-48 0 -69 -7
t-27 -7q-19 0 -19 19q0 7 19 36q31 48 44 68q31 51 63 98q14 20 30 36t49 16q36 0 98 -40q49 -32 146 -88q88 -51 199 -89q117 -40 261 -40q9 0 14 -2q8 -3 8 -11t-3 -14z" />
    <glyph glyph-name="khahyehhmz" unicode="&#xfea7;&#xfe8a;" horiz-adv-x="1764" 
d="M898 1092l148 131l145 -131l-145 -134zM314 612q-49 0 -117 -13q-64 -12 -107 -64q6 42 25 68q21 29 43 44q-71 38 -71 98q0 30 17 59q17 30 41 52q26 24 56 37q33 14 64 14q28 0 52 -13q22 -12 22 -37q0 -17 -6 -27l-30 -63q-6 -11 -8 -11q-3 -3 -3 0q-8 0 -11 7
q-3 8 -8 14t-16 14q-8 6 -36 6q-16 0 -35 -5q-24 -6 -39 -16q31 -45 92 -54q62 -9 121 -9q17 0 17 -11q0 -8 -3 -11zM1630 303q-26 4 -86 10q-37 4 -89 4q-130 0 -256 -22q-134 -23 -246 -55l158 -30q69 -16 69 -60q0 -17 -11 -64q-9 -39 -26 -93q-14 -45 -32 -89
q-17 -40 -30 -54q-43 -39 -101 -73q-57 -33 -134 -58q-81 -27 -154 -40q-81 -15 -157 -15q-79 0 -153 18q-73 18 -128 56q-54 37 -87 101q-33 63 -33 153q0 46 11 106q11 58 30 116q20 60 45 116t59 104q6 14 21 14q14 0 14 -14q0 -3 -1 -5q-2 -4 -2 -6q-71 -151 -71 -259
q0 -74 30 -123q29 -48 80 -79q52 -31 114 -44q68 -14 137 -14q57 0 132 10q63 8 130 26q58 15 116 40q53 23 91 47q-85 15 -139 22q-66 9 -150 23q-57 10 -120 25q-49 12 -49 29q0 9 2 11l88 182q102 53 207 80q99 25 252 49q-121 41 -123 42q-57 21 -131 21q-48 0 -69 -7
t-27 -7q-19 0 -19 19q0 7 19 36q31 48 44 68q31 51 63 98q14 20 30 36t49 16q36 0 98 -40q49 -32 146 -88q88 -51 199 -89q117 -40 261 -40q9 0 14 -2q8 -3 8 -11t-3 -14z" />
    <glyph glyph-name="chayeh" unicode="&#xfb7c;&#xfef2;" horiz-adv-x="1764" 
d="M291 -584l128 116l108 -100l108 100l125 -116l-125 -118l-108 102l-108 -102zM1226 -332l134 115l115 -101l114 101l131 -115l-131 -111l-114 93l-115 -93zM1341 -136l134 111l131 -111l-131 -115zM1630 303q-26 4 -86 10q-37 4 -89 4q-130 0 -256 -22q-134 -23 -246 -55
l158 -30q69 -16 69 -60q0 -17 -11 -64q-9 -39 -26 -93q-14 -45 -32 -89q-17 -40 -30 -54q-43 -39 -101 -73q-57 -33 -134 -58q-81 -27 -154 -40q-81 -15 -157 -15q-79 0 -153 18q-73 18 -128 56q-54 37 -87 101q-33 63 -33 153q0 46 11 106q11 58 30 116q20 60 45 116
t59 104q6 14 21 14q14 0 14 -14q0 -3 -1 -5q-2 -4 -2 -6q-71 -151 -71 -259q0 -74 30 -123q29 -48 80 -79q52 -31 114 -44q68 -14 137 -14q57 0 132 10q63 8 130 26q58 15 116 40q53 23 91 47q-85 15 -139 22q-66 9 -150 23q-57 10 -120 25q-49 12 -49 29q0 9 2 11l88 182
q102 53 207 80q99 25 252 49q-121 41 -123 42q-57 21 -131 21q-48 0 -69 -7t-27 -7q-19 0 -19 19q0 7 19 36q31 48 44 68q31 51 63 98q14 20 30 36t49 16q36 0 98 -40q49 -32 146 -88q88 -51 199 -89q117 -40 261 -40q9 0 14 -2q8 -3 8 -11t-3 -14z" />
    <glyph glyph-name="chayehhmz" unicode="&#xfb7c;&#xfe8a;" horiz-adv-x="1764" 
d="M1226 -332l134 115l115 -101l114 101l131 -115l-131 -111l-114 93l-115 -93zM1341 -136l134 111l131 -111l-131 -115zM314 612q-49 0 -117 -13q-64 -12 -107 -64q6 42 25 68q21 29 43 44q-71 38 -71 98q0 30 17 59q17 30 41 52q26 24 56 37q33 14 64 14q28 0 52 -13
q22 -12 22 -37q0 -17 -6 -27l-30 -63q-6 -11 -8 -11q-3 -3 -3 0q-8 0 -11 7q-3 8 -8 14t-16 14q-8 6 -36 6q-16 0 -35 -5q-24 -6 -39 -16q31 -45 92 -54q62 -9 121 -9q17 0 17 -11q0 -8 -3 -11zM1630 303q-26 4 -86 10q-37 4 -89 4q-130 0 -256 -22q-134 -23 -246 -55
l158 -30q69 -16 69 -60q0 -17 -11 -64q-9 -39 -26 -93q-14 -45 -32 -89q-17 -40 -30 -54q-43 -39 -101 -73q-57 -33 -134 -58q-81 -27 -154 -40q-81 -15 -157 -15q-79 0 -153 18q-73 18 -128 56q-54 37 -87 101q-33 63 -33 153q0 46 11 106q11 58 30 116q20 60 45 116
t59 104q6 14 21 14q14 0 14 -14q0 -3 -1 -5q-2 -4 -2 -6q-71 -151 -71 -259q0 -74 30 -123q29 -48 80 -79q52 -31 114 -44q68 -14 137 -14q57 0 132 10q63 8 130 26q58 15 116 40q53 23 91 47q-85 15 -139 22q-66 9 -150 23q-57 10 -120 25q-49 12 -49 29q0 9 2 11l88 182
q102 53 207 80q99 25 252 49q-121 41 -123 42q-57 21 -131 21q-48 0 -69 -7t-27 -7q-19 0 -19 19q0 7 19 36q31 48 44 68q31 51 63 98q14 20 30 36t49 16q36 0 98 -40q49 -32 146 -88q88 -51 199 -89q117 -40 261 -40q9 0 14 -2q8 -3 8 -11t-3 -14z" />
    <glyph glyph-name="jeemmaksuraf" unicode="&#xfea0;&#xfbfd;" horiz-adv-x="1873" 
d="M1382 -287l147 131l145 -131l-145 -134zM1638 339q-25 4 -73 8q-36 3 -77 3q7 -40 40 -76q31 -34 105 -34h240v-240h-292q-87 0 -131 63q-44 64 -44 147q0 71 30 140q-121 -9 -260 -39q-125 -26 -242 -65l180 -36q68 -16 68 -60q0 -17 -11 -64q-12 -51 -25 -93
q-14 -45 -32 -89q-16 -40 -30 -54q-43 -39 -101 -73q-57 -33 -134 -58q-81 -26 -153 -40q-80 -15 -155 -15q-78 0 -152 17t-127 55t-87 102q-33 61 -33 151q0 97 41 220q40 119 101 225q8 14 16 14q17 0 17 -25q-69 -144 -69 -256q0 -72 31 -123q30 -49 79 -79
q52 -31 114 -44q68 -14 137 -14q57 0 132 10q63 8 130 26q64 17 116 39q51 22 92 48q-82 14 -140 22q-63 8 -151 23q-60 10 -122 25q-49 12 -49 28q0 8 3 11l85 180q100 51 211 89q120 41 280 67q-81 26 -141 48q-70 26 -143 26q-47 0 -68 -7t-28 -7q-19 0 -19 19q0 7 19 36
q31 48 44 68q32 51 63 98q13 20 30 36q16 16 49 16q41 0 98 -39q59 -41 140 -89q86 -52 194 -89q112 -39 259 -39q14 0 23 -3q10 -3 10 -11t-3 -14z" />
    <glyph glyph-name="khahmaksuraf" unicode="&#xfea8;&#xfbfd;" horiz-adv-x="1873" 
d="M898 1092l148 131l145 -131l-145 -134zM1638 339q-25 4 -73 8q-36 3 -77 3q7 -40 40 -76q31 -34 105 -34h240v-240h-292q-87 0 -131 63q-44 64 -44 147q0 71 30 140q-121 -9 -260 -39q-125 -26 -242 -65l180 -36q68 -16 68 -60q0 -17 -11 -64q-12 -51 -25 -93
q-14 -45 -32 -89q-16 -40 -30 -54q-43 -39 -101 -73q-57 -33 -134 -58q-81 -26 -153 -40q-80 -15 -155 -15q-78 0 -152 17t-127 55t-87 102q-33 61 -33 151q0 97 41 220q40 119 101 225q8 14 16 14q17 0 17 -25q-69 -144 -69 -256q0 -72 31 -123q30 -49 79 -79
q52 -31 114 -44q68 -14 137 -14q57 0 132 10q63 8 130 26q64 17 116 39q51 22 92 48q-82 14 -140 22q-63 8 -151 23q-60 10 -122 25q-49 12 -49 28q0 8 3 11l85 180q100 51 211 89q120 41 280 67q-81 26 -141 48q-70 26 -143 26q-47 0 -68 -7t-28 -7q-19 0 -19 19q0 7 19 36
q31 48 44 68q32 51 63 98q13 20 30 36q16 16 49 16q41 0 98 -39q59 -41 140 -89q86 -52 194 -89q112 -39 259 -39q14 0 23 -3q10 -3 10 -11t-3 -14z" />
    <glyph glyph-name="jeemyehf" unicode="&#xfea0;&#xfef2;" horiz-adv-x="1873" 
d="M1382 -287l147 131l145 -131l-145 -134zM291 -584l128 116l108 -100l108 100l125 -116l-125 -118l-108 102l-108 -102zM1638 339q-25 4 -73 8q-36 3 -77 3q7 -40 40 -76q31 -34 105 -34h240v-240h-292q-87 0 -131 63q-44 64 -44 147q0 71 30 140q-121 -9 -260 -39
q-125 -26 -242 -65l180 -36q68 -16 68 -60q0 -17 -11 -64q-12 -51 -25 -93q-14 -45 -32 -89q-16 -40 -30 -54q-43 -39 -101 -73q-57 -33 -134 -58q-81 -26 -153 -40q-80 -15 -155 -15q-78 0 -152 17t-127 55t-87 102q-33 61 -33 151q0 97 41 220q40 119 101 225q8 14 16 14
q17 0 17 -25q-69 -144 -69 -256q0 -72 31 -123q30 -49 79 -79q52 -31 114 -44q68 -14 137 -14q57 0 132 10q63 8 130 26q64 17 116 39q51 22 92 48q-82 14 -140 22q-63 8 -151 23q-60 10 -122 25q-49 12 -49 28q0 8 3 11l85 180q100 51 211 89q120 41 280 67q-81 26 -141 48
q-70 26 -143 26q-47 0 -68 -7t-28 -7q-19 0 -19 19q0 7 19 36q31 48 44 68q32 51 63 98q13 20 30 36q16 16 49 16q41 0 98 -39q59 -41 140 -89q86 -52 194 -89q112 -39 259 -39q14 0 23 -3q10 -3 10 -11t-3 -14z" />
    <glyph glyph-name="khahyehf" unicode="&#xfea8;&#xfef2;" horiz-adv-x="1873" 
d="M898 1092l148 131l145 -131l-145 -134zM291 -584l128 116l108 -100l108 100l125 -116l-125 -118l-108 102l-108 -102zM1638 339q-25 4 -73 8q-36 3 -77 3q7 -40 40 -76q31 -34 105 -34h240v-240h-292q-87 0 -131 63q-44 64 -44 147q0 71 30 140q-121 -9 -260 -39
q-125 -26 -242 -65l180 -36q68 -16 68 -60q0 -17 -11 -64q-12 -51 -25 -93q-14 -45 -32 -89q-16 -40 -30 -54q-43 -39 -101 -73q-57 -33 -134 -58q-81 -26 -153 -40q-80 -15 -155 -15q-78 0 -152 17t-127 55t-87 102q-33 61 -33 151q0 97 41 220q40 119 101 225q8 14 16 14
q17 0 17 -25q-69 -144 -69 -256q0 -72 31 -123q30 -49 79 -79q52 -31 114 -44q68 -14 137 -14q57 0 132 10q63 8 130 26q64 17 116 39q51 22 92 48q-82 14 -140 22q-63 8 -151 23q-60 10 -122 25q-49 12 -49 28q0 8 3 11l85 180q100 51 211 89q120 41 280 67q-81 26 -141 48
q-70 26 -143 26q-47 0 -68 -7t-28 -7q-19 0 -19 19q0 7 19 36q31 48 44 68q32 51 63 98q13 20 30 36q16 16 49 16q41 0 98 -39q59 -41 140 -89q86 -52 194 -89q112 -39 259 -39q14 0 23 -3q10 -3 10 -11t-3 -14z" />
    <glyph glyph-name="jeemyehhmzf" unicode="&#xfea0;&#xfe8a;" horiz-adv-x="1873" 
d="M1382 -287l147 131l145 -131l-145 -134zM369 612q-50 0 -118 -13q-63 -12 -106 -64q6 44 24 68q20 27 44 44q-71 38 -71 98q0 31 16 59q17 30 41 52q26 24 56 37q33 14 64 14q28 0 52 -13q22 -12 22 -37q0 -18 -5 -27l-30 -63q-6 -11 -8 -11q-3 -3 -3 0q-8 0 -11 7
q-3 8 -8 14q-3 4 -17 14q-8 6 -35 6q-17 0 -36 -5q-22 -6 -38 -16q31 -45 92 -54t121 -9q16 0 16 -11q0 -9 -2 -11zM1638 339q-25 4 -73 8q-36 3 -77 3q7 -40 40 -76q31 -34 105 -34h240v-240h-292q-87 0 -131 63q-44 64 -44 147q0 71 30 140q-121 -9 -260 -39
q-125 -26 -242 -65l180 -36q68 -16 68 -60q0 -17 -11 -64q-12 -51 -25 -93q-14 -45 -32 -89q-16 -40 -30 -54q-43 -39 -101 -73q-57 -33 -134 -58q-81 -26 -153 -40q-80 -15 -155 -15q-78 0 -152 17t-127 55t-87 102q-33 61 -33 151q0 97 41 220q40 119 101 225q8 14 16 14
q17 0 17 -25q-69 -144 -69 -256q0 -72 31 -123t79 -80q49 -30 114 -43q68 -14 137 -14q57 0 132 10q63 8 130 26q64 17 116 39q51 22 92 48q-82 14 -140 22q-63 8 -151 23q-60 10 -122 25q-49 12 -49 28q0 8 3 11l85 180q100 51 211 89q120 41 280 67q-81 26 -141 48
q-70 26 -143 26q-47 0 -68 -7t-28 -7q-19 0 -19 19q0 7 19 36q31 48 44 68q32 51 63 98q13 20 30 36q16 16 49 16q41 0 98 -39q59 -41 140 -89q86 -52 194 -89q112 -39 259 -39q14 0 23 -3q10 -3 10 -11t-3 -14z" />
    <glyph glyph-name="khahyehhmzf" unicode="&#xfea8;&#xfe8a;" horiz-adv-x="1873" 
d="M898 1092l148 131l145 -131l-145 -134zM369 612q-50 0 -118 -13q-63 -12 -106 -64q6 44 24 68q20 27 44 44q-71 38 -71 98q0 31 16 59q17 30 41 52q26 24 56 37q33 14 64 14q28 0 52 -13q22 -12 22 -37q0 -18 -5 -27l-30 -63q-6 -11 -8 -11q-3 -3 -3 0q-8 0 -11 7
q-3 8 -8 14q-3 4 -17 14q-8 6 -35 6q-17 0 -36 -5q-22 -6 -38 -16q31 -45 92 -54t121 -9q16 0 16 -11q0 -9 -2 -11zM1638 339q-25 4 -73 8q-36 3 -77 3q7 -40 40 -76q31 -34 105 -34h240v-240h-292q-87 0 -131 63q-44 64 -44 147q0 71 30 140q-121 -9 -260 -39
q-125 -26 -242 -65l180 -36q68 -16 68 -60q0 -17 -11 -64q-12 -51 -25 -93q-14 -45 -32 -89q-16 -40 -30 -54q-43 -39 -101 -73q-57 -33 -134 -58q-81 -26 -153 -40q-80 -15 -155 -15q-78 0 -152 17t-127 55t-87 102q-33 61 -33 151q0 97 41 220q40 119 101 225q8 14 16 14
q17 0 17 -25q-69 -144 -69 -256q0 -72 31 -123t79 -80q49 -30 114 -43q68 -14 137 -14q57 0 132 10q63 8 130 26q64 17 116 39q51 22 92 48q-82 14 -140 22q-63 8 -151 23q-60 10 -122 25q-49 12 -49 28q0 8 3 11l85 180q100 51 211 89q120 41 280 67q-81 26 -141 48
q-70 26 -143 26q-47 0 -68 -7t-28 -7q-19 0 -19 19q0 7 19 36q31 48 44 68q32 51 63 98q13 20 30 36q16 16 49 16q41 0 98 -39q59 -41 140 -89q86 -52 194 -89q112 -39 259 -39q14 0 23 -3q10 -3 10 -11t-3 -14z" />
    <glyph glyph-name="chamaksuraf" unicode="&#xfb7d;&#xfbfd;" horiz-adv-x="1873" 
d="M1425 -128l104 -101l104 101l117 -115l-117 -109l-104 95l-104 -95l-117 109zM1529 -325l118 -112l-118 -112l-117 112zM1638 339q-25 4 -73 8q-36 3 -77 3q7 -40 40 -76q31 -34 105 -34h240v-240h-292q-87 0 -131 63q-44 64 -44 147q0 71 30 140q-121 -9 -260 -39
q-125 -26 -242 -65l180 -36q68 -16 68 -60q0 -17 -11 -64q-12 -51 -25 -93q-14 -45 -32 -89q-16 -40 -30 -54q-43 -39 -101 -73q-57 -33 -134 -58q-81 -26 -153 -40q-80 -15 -155 -15q-78 0 -152 17t-127 55t-87 102q-33 61 -33 151q0 97 41 220q40 119 101 225q8 14 16 14
q17 0 17 -25q-69 -144 -69 -256q0 -72 31 -123q30 -49 79 -79q52 -31 114 -44q68 -14 137 -14q57 0 132 10q63 8 130 26q64 17 116 39q51 22 92 48q-82 14 -140 22q-63 8 -151 23q-60 10 -122 25q-49 12 -49 28q0 8 3 11l85 180q100 51 211 89q120 41 280 67q-81 26 -141 48
q-70 26 -143 26q-47 0 -68 -7t-28 -7q-19 0 -19 19q0 7 19 36q31 48 44 68q32 51 63 98q13 20 30 36q16 16 49 16q41 0 98 -39q59 -41 140 -89q86 -52 194 -89q112 -39 259 -39q14 0 23 -3q10 -3 10 -11t-3 -14z" />
    <glyph glyph-name="chayehf" unicode="&#xfb7d;&#xfef2;" horiz-adv-x="1873" 
d="M291 -584l128 116l108 -100l108 100l125 -116l-125 -118l-108 102l-108 -102zM1425 -128l104 -101l104 101l117 -115l-117 -109l-104 95l-104 -95l-117 109zM1529 -325l118 -112l-118 -112l-117 112zM1638 339q-25 4 -73 8q-36 3 -77 3q7 -40 40 -76q31 -34 105 -34h240
v-240h-292q-87 0 -131 63q-44 64 -44 147q0 71 30 140q-121 -9 -260 -39q-125 -26 -242 -65l180 -36q68 -16 68 -60q0 -17 -11 -64q-12 -51 -25 -93q-14 -45 -32 -89q-16 -40 -30 -54q-43 -39 -101 -73q-57 -33 -134 -58q-81 -26 -153 -40q-80 -15 -155 -15q-78 0 -152 17
t-127 55t-87 102q-33 61 -33 151q0 97 41 220q40 119 101 225q8 14 16 14q17 0 17 -25q-69 -144 -69 -256q0 -72 31 -123q30 -49 79 -79q52 -31 114 -44q68 -14 137 -14q57 0 132 10q63 8 130 26q64 17 116 39q51 22 92 48q-82 14 -140 22q-63 8 -151 23q-60 10 -122 25
q-49 12 -49 28q0 8 3 11l85 180q100 51 211 89q120 41 280 67q-81 26 -141 48q-70 26 -143 26q-47 0 -68 -7t-28 -7q-19 0 -19 19q0 7 19 36q31 48 44 68q32 51 63 98q13 20 30 36q16 16 49 16q41 0 98 -39q59 -41 140 -89q86 -52 194 -89q112 -39 259 -39q14 0 23 -3
q10 -3 10 -11t-3 -14z" />
    <glyph glyph-name="chayehhmzf" unicode="&#xfb7d;&#xfe8a;" horiz-adv-x="1873" 
d="M1425 -128l104 -101l104 101l117 -115l-117 -109l-104 95l-104 -95l-117 109zM1529 -325l118 -112l-118 -112l-117 112zM369 612q-50 0 -118 -13q-63 -12 -106 -64q6 44 24 68q20 27 44 44q-71 38 -71 98q0 31 16 59q17 30 41 52q26 24 56 37q33 14 64 14q28 0 52 -13
q22 -12 22 -37q0 -18 -5 -27l-30 -63q-6 -11 -8 -11q-3 -3 -3 0q-8 0 -11 7q-3 8 -8 14q-3 4 -17 14q-8 6 -35 6q-17 0 -36 -5q-22 -6 -38 -16q31 -45 92 -54t121 -9q16 0 16 -11q0 -9 -2 -11zM1638 339q-25 4 -73 8q-36 3 -77 3q7 -40 40 -76q31 -34 105 -34h240v-240h-292
q-87 0 -131 63q-44 64 -44 147q0 71 30 140q-121 -9 -260 -39q-125 -26 -242 -65l180 -36q68 -16 68 -60q0 -17 -11 -64q-12 -51 -25 -93q-14 -45 -32 -89q-16 -40 -30 -54q-43 -39 -101 -73q-57 -33 -134 -58q-81 -26 -153 -40q-80 -15 -155 -15q-78 0 -152 17t-127 55
t-87 102q-33 61 -33 151q0 97 41 220q40 119 101 225q8 14 16 14q17 0 17 -25q-69 -144 -69 -256q0 -72 31 -123t79 -80q49 -30 114 -43q68 -14 137 -14q57 0 132 10q63 8 130 26q64 17 116 39q51 22 92 48q-82 14 -140 22q-63 8 -151 23q-60 10 -122 25q-49 12 -49 28
q0 8 3 11l85 180q100 51 211 89q120 41 280 67q-81 26 -141 48q-70 26 -143 26q-47 0 -68 -7t-28 -7q-19 0 -19 19q0 7 19 36q31 48 44 68q32 51 63 98q13 20 30 36q16 16 49 16q41 0 98 -39q59 -41 140 -89q86 -52 194 -89q112 -39 259 -39q14 0 23 -3q10 -3 10 -11t-3 -14
z" />
    <glyph glyph-name="dadmaksura" unicode="&#xfebf;&#xfbfd;" horiz-adv-x="2509" 
d="M1537 956l148 131l145 -131l-145 -134zM726 -71q-15 5 -34 15q-18 9 -18 31q0 17 3 41q5 37 8 52q2 11 5.5 29.5t4.5 21.5q5 25 10 31q17 33 62 83q47 51 108 99q60 47 129 82q67 34 124 34q72 0 125 -66l110 -142h109l587 331q70 38 128 38q53 0 107 -26q50 -24 93 -64
q40 -37 65 -85t25 -87q0 -20 -22 -71q-27 -63 -49 -107q-25 -56 -71 -142q-10 -20 -22 -24q-11 -3 -30 -3h-953q-31 0 -43 15q-16 20 -23 29l-112 150q-33 41 -87 41q-35 0 -74 -14q-41 -15 -72 -31q-35 -18 -64 -40q-36 -27 -49 -38q47 -14 111 -21q80 -9 125 -16
q58 -9 99 -27t41 -53q0 -17 -9 -55q-8 -33 -25 -79q-17 -45 -30 -77q-14 -34 -23 -43q-43 -43 -102 -76q-57 -32 -136 -61q-74 -27 -155 -42q-83 -15 -161 -15q-84 0 -151 17q-70 18 -125 56t-88 101q-32 61 -32 153q0 94 35 212q36 120 107 231q7 16 27 16q11 0 11 -11
q0 -14 -6 -22q-27 -64 -47 -135q-18 -65 -18 -119q0 -73 30 -122q31 -51 79 -80q50 -30 115 -42q66 -12 136 -12q124 0 237 28q112 28 181 67q-96 11 -169 18q-82 8 -137 26zM1668 240h626q-44 69 -105 114t-133 45q-49 0 -104 -25z" />
    <glyph glyph-name="dadyeh" unicode="&#xfebf;&#xfef2;" horiz-adv-x="2509" 
d="M1537 956l148 131l145 -131l-145 -134zM305 -704l128 116l108 -100l108 100l125 -116l-125 -118l-108 102l-108 -102zM726 -71q-15 5 -34 15q-18 9 -18 31q0 17 3 41q5 37 8 52q2 11 5.5 29.5t4.5 21.5q5 25 10 31q17 33 62 83q47 51 108 99q60 47 129 82q67 34 124 34
q72 0 125 -66l110 -142h109l587 331q70 38 128 38q53 0 107 -26q50 -24 93 -64q40 -37 65 -85t25 -87q0 -20 -22 -71q-27 -63 -49 -107q-25 -56 -71 -142q-10 -20 -22 -24q-11 -3 -30 -3h-953q-31 0 -43 15q-16 20 -23 29l-112 150q-33 41 -87 41q-35 0 -74 -14
q-41 -15 -72 -31q-35 -18 -64 -40q-36 -27 -49 -38q47 -14 111 -21q80 -9 125 -16q58 -9 99 -27t41 -53q0 -17 -9 -55q-8 -33 -25 -79q-17 -45 -30 -77q-14 -34 -23 -43q-43 -43 -102 -76q-57 -32 -136 -61q-74 -27 -155 -42q-83 -15 -161 -15q-84 0 -151 17q-70 18 -125 56
t-88 101q-32 61 -32 153q0 94 35 212q36 120 107 231q7 16 27 16q11 0 11 -11q0 -14 -6 -22q-27 -64 -47 -135q-18 -65 -18 -119q0 -73 30 -122q31 -51 79 -80q50 -30 115 -42q66 -12 136 -12q124 0 237 28q112 28 181 67q-96 11 -169 18q-82 8 -137 26zM1668 240h626
q-44 69 -105 114t-133 45q-49 0 -104 -25z" />
    <glyph glyph-name="dadyehhmz" unicode="&#xfebf;&#xfe8a;" horiz-adv-x="2509" 
d="M1537 956l148 131l145 -131l-145 -134zM355 612q-49 0 -117 -13q-64 -12 -107 -64q6 42 25 68q21 29 43 44q-71 38 -71 98q0 30 17 59q17 30 41 52q26 24 56 37q33 14 64 14q28 0 52 -13q22 -12 22 -37q0 -17 -6 -27l-30 -63q-6 -11 -8 -11q-3 -3 -3 0q-8 0 -11 7
q-3 8 -8 14t-16 14q-8 6 -36 6q-16 0 -35 -5q-24 -6 -39 -16q31 -45 92 -54q62 -9 121 -9q17 0 17 -11q0 -8 -3 -11zM726 -71q-15 5 -34 15q-18 9 -18 31q0 17 3 41q5 37 8 52q2 11 5.5 29.5t4.5 21.5q5 26 9 31q15 31 63 83q47 51 108 99q60 47 129 82q67 34 124 34
q72 0 125 -66l110 -142h109l587 331q70 38 128 38q53 0 107 -26q50 -24 93 -64q40 -37 65 -85t25 -87q0 -20 -22 -71q-27 -63 -49 -107q-25 -56 -71 -142q-10 -20 -22 -24q-11 -3 -30 -3h-953q-31 0 -43 15q-16 20 -23 29l-112 150q-33 41 -87 41q-35 0 -74 -14
q-41 -15 -72 -31q-35 -18 -64 -40q-36 -27 -49 -38q47 -14 111 -21q80 -9 125 -16q58 -9 99 -27t41 -53q0 -17 -9 -55q-8 -33 -25 -79q-17 -45 -30 -77q-14 -34 -23 -43q-43 -43 -102 -76q-57 -32 -136 -61q-74 -27 -155 -42q-83 -15 -161 -15q-84 0 -151 17q-70 18 -125 56
t-88 101q-32 61 -32 153q0 94 35 212q36 120 107 231q7 16 27 16q11 0 11 -11q0 -14 -6 -22q-27 -64 -47 -135q-18 -65 -18 -119q0 -73 30 -122q31 -51 79 -80q50 -30 115 -42q66 -12 136 -12q124 0 237 28q112 28 181 67q-96 11 -169 18q-82 8 -137 26zM1668 240h626
q-44 69 -105 114t-133 45q-49 0 -104 -25z" />
    <glyph glyph-name="dadmaksuraf" unicode="&#xfec0;&#xfbfd;" horiz-adv-x="2555" 
d="M1537 956l148 131l145 -131l-145 -134zM1330 0q-36 0 -64 37q-40 53 -58 80q-28 43 -63 81q-34 37 -80 37q-35 0 -74 -14q-41 -15 -72 -31q-35 -18 -64 -40q-36 -27 -49 -38q47 -14 110 -21q80 -9 124 -17q57 -10 101 -28q41 -17 41 -49q0 -17 -9 -54q-8 -34 -25 -81
q-15 -42 -30 -78q-14 -34 -23 -43q-41 -41 -102 -75q-62 -35 -136 -62t-155 -42q-83 -15 -161 -15q-84 0 -151 17q-70 18 -125 56t-88 101q-32 61 -32 153q0 94 35 209q36 120 107 234q7 16 27 16q11 0 11 -11q0 -14 -6 -22q-27 -64 -47 -135q-18 -65 -18 -119
q0 -73 30 -122q31 -51 79 -80q50 -30 115 -42q66 -12 136 -12q124 0 237 28q112 28 181 67q-87 9 -124 13q-70 8 -116 16q-48 8 -85 25q-33 15 -33 39q0 14 3 40q4 36 8 52q1 6 10 49q5 25 10 31q17 33 62 83q47 51 108 99q60 47 129 82q67 34 124 34q72 0 125 -66l110 -142
h92l577 325q36 23 69 34q37 13 67 13q63 0 118 -25q50 -23 87 -57q36 -33 55 -67t19 -56q0 -23 -19 -64q-21 -45 -82 -103h210v-240h-1226zM1936 377q-47 -24 -143 -70q-28 -13 -79 -37t-65 -30h426q48 0 96 14q47 14 90 33q-30 43 -91 79q-60 35 -130 35q-52 0 -104 -24z
" />
    <glyph glyph-name="dadyehf" unicode="&#xfec0;&#xfef2;" horiz-adv-x="2555" 
d="M1537 956l148 131l145 -131l-145 -134zM392 -704l128 116l108 -100l108 100l126 -116l-126 -118l-108 102l-108 -102zM1330 0q-36 0 -64 37q-40 53 -58 80q-28 43 -63 81q-34 37 -80 37q-35 0 -74 -14q-41 -15 -72 -31q-35 -18 -64 -40q-36 -27 -49 -38q47 -14 110 -21
q80 -9 124 -17q57 -10 101 -28q41 -17 41 -49q0 -17 -9 -54q-8 -34 -25 -81q-15 -42 -30 -78q-14 -34 -23 -43q-41 -41 -102 -75q-62 -35 -136 -62t-155 -42q-83 -15 -161 -15q-84 0 -151 17q-70 18 -125 56t-88 101q-32 61 -32 153q0 94 35 209q36 120 107 234q7 16 27 16
q11 0 11 -11q0 -14 -6 -22q-27 -64 -47 -135q-18 -65 -18 -119q0 -73 30 -122q31 -51 79 -80q50 -30 115 -42q66 -12 136 -12q124 0 237 28q112 28 181 67q-87 9 -124 13q-70 8 -116 16q-48 8 -85 25q-33 15 -33 39q0 14 3 40q4 36 8 52q1 6 10 49q5 25 10 31q17 33 62 83
q47 51 108 99q60 47 129 82q67 34 124 34q72 0 125 -66l110 -142h92l577 325q36 23 69 34q37 13 67 13q63 0 118 -25q50 -23 87 -57q36 -33 55 -67t19 -56q0 -23 -19 -64q-21 -45 -82 -103h210v-240h-1226zM1936 377q-47 -24 -143 -70q-28 -13 -79 -37t-65 -30h426
q48 0 96 14q47 14 90 33q-30 43 -91 79q-60 35 -130 35q-52 0 -104 -24z" />
    <glyph glyph-name="dadyehhmzf" unicode="&#xfec0;&#xfe8a;" horiz-adv-x="2555" 
d="M1537 956l148 131l145 -131l-145 -134zM355 612q-49 0 -117 -13q-64 -12 -107 -64q6 42 25 68q21 29 43 44q-71 38 -71 98q0 30 17 59q17 30 41 52q26 24 56 37q33 14 64 14q28 0 52 -13q22 -12 22 -37q0 -17 -6 -27l-30 -63q-6 -11 -8 -11q-3 -3 -3 0q-8 0 -11 7
q-3 8 -8 14t-16 14q-8 6 -36 6q-16 0 -35 -5q-24 -6 -39 -16q31 -45 92 -54q62 -9 121 -9q17 0 17 -11q0 -8 -3 -11zM1330 0q-36 0 -64 37q-40 53 -58 80q-28 43 -63 81q-34 37 -80 37q-35 0 -74 -14q-41 -15 -72 -31q-35 -18 -64 -40q-36 -27 -49 -38q47 -14 110 -21
q80 -9 124 -17q57 -10 101 -28q41 -17 41 -49q0 -17 -9 -54q-8 -34 -25 -81q-15 -42 -30 -78q-14 -34 -23 -43q-41 -41 -102 -75q-62 -35 -136 -62t-155 -42q-83 -15 -161 -15q-84 0 -151 17q-70 18 -125 56t-88 101q-32 61 -32 153q0 94 35 209q36 120 107 234q7 16 27 16
q11 0 11 -11q0 -14 -6 -22q-27 -64 -47 -135q-18 -65 -18 -119q0 -73 30 -122q31 -51 79 -80q50 -30 115 -42q66 -12 136 -12q124 0 237 28q112 28 181 67q-87 9 -124 13q-70 8 -116 16q-48 8 -85 25q-33 15 -33 39q0 14 3 40q4 36 8 52q1 6 10 49q5 25 10 31q17 33 62 83
q47 51 108 99q60 47 129 82q67 34 124 34q72 0 125 -66l110 -142h92l577 325q36 23 69 34q37 13 67 13q63 0 118 -25q50 -23 87 -57q36 -33 55 -67t19 -56q0 -23 -19 -64q-21 -45 -82 -103h210v-240h-1226zM1936 377q-47 -24 -143 -70q-28 -13 -79 -37t-65 -30h426
q48 0 96 14q47 14 90 33q-29 42 -92 79q-60 35 -129 35q-52 0 -104 -24z" />
    <glyph glyph-name="fehyeh" unicode="&#xfed3;&#xfef2;" horiz-adv-x="1201" 
d="M658 1242l148 132l144 -132l-144 -133zM291 -554l128 116l108 -100l108 100l125 -116l-125 -118l-108 102l-108 -102zM309 442q-41 -79 -54 -136q-15 -63 -15 -112q0 -74 30 -123t81 -81t116 -45q64 -13 139 -13q130 0 254 34q128 35 205 86q-11 1 -59.5 8t-79.5 10
q-25 3 -149 19q-66 9 -118 20q-47 10 -47 25q0 2 11 30q11 27 24 60q31 71 38 85q67 3 155 19q93 17 179 73q-2 24 -13 80q-8 42 -23 90q-14 -63 -64 -96q-51 -33 -111 -33q-68 0 -124 47t-56 142q0 55 14 123q14 66 39 120q25 53 63 91q37 37 81 37q51 0 101 -39t87 -108
q41 -76 62 -156q23 -89 23 -186q0 -62 -19 -129q-20 -70 -74 -136q16 -2 47 -6t44 -6q37 -5 52 -11q18 -7 22 -17q4 -9 4 -28t-8 -64q-4 -24 -19 -87q-10 -41 -25 -84q-14 -39 -24 -49q-42 -45 -104 -82q-66 -39 -139 -65q-83 -29 -160 -43q-84 -15 -168 -15q-211 0 -302 96
q-91 95 -91 238q0 99 34 210q34 113 105 213q6 12 12 19q4 5 13 5q16 0 16 -13q0 -8 -5 -17zM705 694q47 -30 120 -30q54 0 93 19q-60 76 -121 76q-57 0 -92 -65z" />
    <glyph glyph-name="qafyeh" unicode="&#xfed7;&#xfef2;" horiz-adv-x="1201" 
d="M571 1207l142 136l120 -117l120 117l139 -136l-139 -139l-120 120l-120 -120zM291 -554l128 116l108 -100l108 100l125 -116l-125 -118l-108 102l-108 -102zM309 442q-41 -79 -54 -136q-15 -63 -15 -112q0 -74 30 -123t81 -81t116 -45q64 -13 139 -13q130 0 254 34
q128 35 205 86q-11 1 -59.5 8t-79.5 10q-25 3 -149 19q-66 9 -118 20q-47 10 -47 25q0 2 11 30q11 27 24 60q31 71 38 85q67 3 155 19q93 17 179 73q-2 24 -13 80q-8 42 -23 90q-14 -63 -64 -96q-51 -33 -111 -33q-68 0 -124 47t-56 142q0 55 14 123q14 66 39 120
q25 53 63 91q37 37 81 37q51 0 101 -39t87 -108q41 -76 62 -156q23 -89 23 -186q0 -62 -19 -129q-20 -70 -74 -136q16 -2 47 -6t44 -6q37 -5 52 -11q18 -7 22 -17q4 -9 4 -28t-8 -64q-4 -24 -19 -87q-10 -41 -25 -84q-14 -39 -24 -49q-42 -45 -104 -82q-66 -39 -139 -65
q-83 -29 -160 -43q-84 -15 -168 -15q-211 0 -302 96q-91 95 -91 238q0 99 34 210q34 113 105 213q6 12 12 19q4 5 13 5q16 0 16 -13q0 -8 -5 -17zM705 694q47 -30 120 -30q54 0 93 19q-60 76 -121 76q-57 0 -92 -65z" />
    <glyph glyph-name="fehyahhmz" unicode="&#xfed3;&#xfe8a;" horiz-adv-x="1201" 
d="M658 1242l148 132l144 -132l-144 -133zM314 612q-49 0 -117 -13q-64 -12 -107 -64q6 42 25 68q21 29 43 44q-71 38 -71 98q0 30 17 59q17 30 41 52q26 24 56 37q33 14 64 14q28 0 52 -13q22 -12 22 -37q0 -17 -6 -27l-30 -63q-6 -11 -8 -11q-3 -3 -3 0q-8 0 -11 7
q-3 8 -8 14t-16 14q-8 6 -36 6q-16 0 -35 -5q-24 -6 -39 -16q31 -45 92 -54q62 -9 121 -9q17 0 17 -11q0 -8 -3 -11zM309 442q-41 -79 -54 -136q-15 -63 -15 -112q0 -74 30 -123t81 -81t116 -45q64 -13 139 -13q130 0 254 34q128 35 205 86q-11 1 -59.5 8t-79.5 10
q-25 3 -149 19q-66 9 -118 20q-47 10 -47 25q0 2 11 30q11 27 24 60q31 71 38 85q67 3 155 19q93 17 179 73q-2 24 -13 80q-8 42 -23 90q-14 -63 -64 -96q-51 -33 -111 -33q-68 0 -124 47t-56 142q0 55 14 123q14 66 39 120q25 53 63 91q37 37 81 37q51 0 101 -39t87 -108
q41 -76 62 -156q23 -89 23 -186q0 -62 -19 -129q-20 -70 -74 -136q16 -2 47 -6t44 -6q37 -5 52 -11q18 -7 22 -17q4 -9 4 -28t-8 -64q-4 -24 -19 -87q-10 -41 -25 -84q-14 -39 -24 -49q-42 -45 -104 -82q-66 -39 -139 -65q-83 -29 -160 -43q-84 -15 -168 -15q-211 0 -302 96
q-91 95 -91 238q0 99 34 210q34 113 105 213q6 12 12 19q4 5 13 5q16 0 16 -13q0 -8 -5 -17zM705 694q47 -30 120 -30q54 0 93 19q-60 76 -121 76q-57 0 -92 -65z" />
    <glyph glyph-name="qafyehhmz" unicode="&#xfed7;&#xfe8a;" horiz-adv-x="1201" 
d="M571 1207l142 136l120 -117l120 117l139 -136l-139 -139l-120 120l-120 -120zM314 612q-49 0 -117 -13q-64 -12 -107 -64q6 42 25 68q21 29 43 44q-71 38 -71 98q0 30 17 59q17 30 41 52q26 24 56 37q33 14 64 14q28 0 52 -13q22 -12 22 -37q0 -17 -6 -27l-30 -63
q-6 -11 -8 -11q-3 -3 -3 0q-8 0 -11 7q-3 8 -8 14t-16 14q-8 6 -36 6q-16 0 -35 -5q-24 -6 -39 -16q31 -45 92 -54q62 -9 121 -9q17 0 17 -11q0 -8 -3 -11zM309 442q-41 -79 -54 -136q-15 -63 -15 -112q0 -74 30 -123t81 -81t116 -45q64 -13 139 -13q130 0 254 34
q128 35 205 86q-11 1 -59.5 8t-79.5 10q-25 3 -149 19q-66 9 -118 20q-47 10 -47 25q0 2 11 30q11 27 24 60q31 71 38 85q67 3 155 19q93 17 179 73q-2 24 -13 80q-8 42 -23 90q-14 -63 -64 -96q-51 -33 -111 -33q-68 0 -124 47t-56 142q0 55 14 123q14 66 39 120
q25 53 63 91q37 37 81 37q51 0 101 -39t87 -108q41 -76 62 -156q23 -89 23 -186q0 -62 -19 -129q-20 -70 -74 -136q16 -2 47 -6t44 -6q37 -5 52 -11q18 -7 22 -17q4 -9 4 -28t-8 -64q-4 -24 -19 -87q-10 -41 -25 -84q-14 -39 -24 -49q-42 -45 -104 -82q-66 -39 -139 -65
q-83 -29 -160 -43q-84 -15 -168 -15q-211 0 -302 96q-91 95 -91 238q0 99 34 210q34 113 105 213q6 12 12 19q4 5 13 5q16 0 16 -13q0 -8 -5 -17zM705 694q47 -30 120 -30q54 0 93 19q-60 76 -121 76q-57 0 -92 -65z" />
    <glyph glyph-name="vehyeh" unicode="&#xfb6c;&#xfef2;" horiz-adv-x="1201" 
d="M291 -554l128 116l108 -100l108 100l125 -116l-125 -118l-108 102l-108 -102zM584 1193l134 129l115 -112l115 112l131 -129l-131 -123l-115 104l-115 -104zM699 1412l134 123l131 -123l-131 -129zM309 442q-41 -79 -54 -136q-15 -63 -15 -112q0 -74 30 -123t81 -81
t116 -45q64 -13 139 -13q130 0 254 34q128 35 205 86q-11 1 -59.5 8t-79.5 10q-25 3 -149 19q-66 9 -118 20q-47 10 -47 25q0 2 11 30q11 27 24 60q31 71 38 85q67 3 155 19q93 17 179 73q-2 24 -13 80q-8 42 -23 90q-14 -63 -64 -96q-51 -33 -111 -33q-68 0 -124 47
t-56 142q0 55 14 123q14 66 39 120q25 53 63 91q37 37 81 37q51 0 101 -39t87 -108q41 -76 62 -156q23 -89 23 -186q0 -62 -19 -129q-20 -70 -74 -136q16 -2 47 -6t44 -6q37 -5 52 -11q18 -7 22 -17q4 -9 4 -28t-8 -64q-4 -24 -19 -87q-10 -41 -25 -84q-14 -39 -24 -49
q-42 -45 -104 -82q-66 -39 -139 -65q-83 -29 -160 -43q-84 -15 -168 -15q-211 0 -302 96q-91 95 -91 238q0 99 34 210q34 113 105 213q6 12 12 19q4 5 13 5q16 0 16 -13q0 -8 -5 -17zM705 694q47 -30 120 -30q54 0 93 19q-60 76 -121 76q-57 0 -92 -65z" />
    <glyph glyph-name="vehyahhmz" unicode="&#xfb6c;&#xfe8a;" horiz-adv-x="1201" 
d="M584 1193l134 129l115 -112l115 112l131 -129l-131 -123l-115 104l-115 -104zM699 1412l134 123l131 -123l-131 -129zM314 612q-49 0 -117 -13q-64 -12 -107 -64q6 42 25 68q21 29 43 44q-71 38 -71 98q0 30 17 59q17 30 41 52q26 24 56 37q33 14 64 14q28 0 52 -13
q22 -12 22 -37q0 -17 -6 -27l-30 -63q-6 -11 -8 -11q-3 -3 -3 0q-8 0 -11 7q-3 8 -8 14t-16 14q-8 6 -36 6q-16 0 -35 -5q-24 -6 -39 -16q31 -45 92 -54q62 -9 121 -9q17 0 17 -11q0 -8 -3 -11zM309 442q-41 -79 -54 -136q-15 -63 -15 -112q0 -74 30 -123t81 -81t116 -45
q64 -13 139 -13q130 0 254 34q128 35 205 86q-11 1 -59.5 8t-79.5 10q-25 3 -149 19q-66 9 -118 20q-47 10 -47 25q0 2 11 30q11 27 24 60q31 71 38 85q67 3 155 19q93 17 179 73q-2 24 -13 80q-8 42 -23 90q-14 -63 -64 -96q-51 -33 -111 -33q-68 0 -124 47t-56 142
q0 55 14 123q14 66 39 120q25 53 63 91q37 37 81 37q51 0 101 -39t87 -108q41 -76 62 -156q23 -89 23 -186q0 -62 -19 -129q-20 -70 -74 -136q16 -2 47 -6t44 -6q37 -5 52 -11q18 -7 22 -17q4 -9 4 -28t-8 -64q-4 -24 -19 -87q-10 -41 -25 -84q-14 -39 -24 -49
q-42 -45 -104 -82q-66 -39 -139 -65q-83 -29 -160 -43q-84 -15 -168 -15q-211 0 -302 96q-91 95 -91 238q0 99 34 210q34 113 105 213q6 12 12 19q4 5 13 5q16 0 16 -13q0 -8 -5 -17zM705 694q47 -30 120 -30q54 0 93 19q-60 76 -121 76q-57 0 -92 -65z" />
    <glyph glyph-name="pehnoonf" unicode="&#xfb59;&#xfee6;" horiz-adv-x="1747" 
d="M483 819l148 131l145 -131l-145 -134zM1330 -131l104 -101l103 101l118 -115l-118 -109l-103 96l-104 -96l-118 109zM1434 -328l117 -112l-117 -112l-118 112zM989 478l16 -48q8 -24 14 -48q56 -8 117 -8q53 0 117 8q57 7 118 28l-3 38l77 202q6 14 16 14t16 -14l52 -410
h219v-240h-293q-15 0 -23 5q-9 6 -12 28l-33 265q-30 -79 -119 -114q-84 -33 -222 -39q0 -87 -15 -171q-15 -81 -62 -184q-84 -72 -209 -116q-128 -45 -255 -45q-95 0 -166 24t-118 68q-44 41 -68 103q-22 57 -22 127q0 90 42 198q41 105 106 187q11 14 21 14q17 0 17 -14
q0 -8 -3 -11q-32 -56 -48 -112q-15 -54 -15 -101q0 -123 90 -183t232 -60q103 0 205 29q101 29 167 75q-6 85 -26 166q-20 84 -62 183l71 197q8 27 25 27q11 0 18 -19q9 -25 18 -49z" />
    </font>
</defs>
</svg>
