<svg width="127" height="40" viewBox="0 0 127 40" fill="none" xmlns="http://www.w3.org/2000/svg">
<path d="M0.833344 8C0.833344 3.85786 4.19121 0.5 8.33334 0.5H118.333C122.475 0.5 125.833 3.85786 125.833 8V32C125.833 36.1421 122.475 39.5 118.333 39.5H8.33334C4.19121 39.5 0.833344 36.1421 0.833344 32V8Z" fill="white"/>
<path d="M0.833344 8C0.833344 3.85786 4.19121 0.5 8.33334 0.5H118.333C122.475 0.5 125.833 3.85786 125.833 8V32C125.833 36.1421 122.475 39.5 118.333 39.5H8.33334C4.19121 39.5 0.833344 36.1421 0.833344 32V8Z" stroke="#B6BBC1"/>
<path fill-rule="evenodd" clip-rule="evenodd" d="M8.33334 20C8.33334 15.5806 11.914 12 16.3333 12C20.7527 12 24.3333 15.5806 24.3333 20C24.3333 24.4194 20.7527 28 16.3333 28C11.914 28 8.33334 24.4194 8.33334 20ZM20.5914 21.2903C20.8043 21.2903 20.9785 21.1161 20.9785 20.9032V19.0968C20.9785 18.8839 20.8043 18.7097 20.5914 18.7097H17.6237V15.7419C17.6237 15.529 17.4495 15.3548 17.2366 15.3548H15.4301C15.2172 15.3548 15.043 15.529 15.043 15.7419V18.7097H12.0753C11.8624 18.7097 11.6882 18.8839 11.6882 19.0968V20.9032C11.6882 21.1161 11.8624 21.2903 12.0753 21.2903H15.043V24.2581C15.043 24.471 15.2172 24.6452 15.4301 24.6452H17.2366C17.4495 24.6452 17.6237 24.471 17.6237 24.2581V21.2903H20.5914Z" fill="#485465"/>
<path d="M36.9733 22.7C36.8133 22.7 36.1533 22.68 35.8133 22.68L34.7533 26.02C34.4933 26.08 34.1533 26.1 33.8333 26.1C33.4533 26.1 33.0733 26.04 32.7933 25.96L32.7333 25.86L37.2533 12.34C37.5733 12.28 38.1333 12.26 38.4733 12.26C38.8133 12.26 39.3733 12.28 39.6733 12.34L44.1533 25.86C43.8533 26.06 43.3733 26.14 42.9133 26.14C42.2533 26.14 41.9133 25.9 41.6533 25.02L40.9133 22.68C40.5733 22.68 39.8733 22.7 39.7133 22.7H36.9733ZM37.5133 17.34L36.3533 20.96C36.6733 20.96 37.2133 20.94 37.3733 20.94H39.3733C39.5133 20.94 40.0533 20.96 40.3733 20.96L39.4533 18.06C39.0933 16.9 38.6733 15.5 38.3933 14.44H38.2933C38.0933 15.34 37.7333 16.6 37.5133 17.34ZM45.3032 21.18C45.3032 17.62 47.2232 15.96 49.1432 15.96C49.9632 15.96 50.7232 16.24 51.4032 16.62V11.42L51.5432 11.3H52.3232C53.1832 11.3 53.4232 11.7 53.4232 12.62V23.18C53.4232 23.96 53.5632 24.7 53.9832 25.08C53.8832 25.46 53.5432 25.94 53.2232 26.14C52.4232 26 51.9232 25.54 51.6432 24.9C50.9632 25.68 49.9432 26.26 48.7432 26.26C46.4632 26.26 45.3032 24.18 45.3032 21.18ZM49.2232 24.54C49.9232 24.54 50.7832 24.16 51.4032 23.28V18.32C50.7832 17.92 50.1032 17.6 49.4232 17.6C48.3032 17.6 47.4032 18.76 47.4032 21.2C47.4032 23.58 48.2632 24.54 49.2232 24.54ZM55.9087 21.18C55.9087 17.62 57.8287 15.96 59.7487 15.96C60.5687 15.96 61.3287 16.24 62.0087 16.62V11.42L62.1487 11.3H62.9287C63.7887 11.3 64.0287 11.7 64.0287 12.62V23.18C64.0287 23.96 64.1687 24.7 64.5887 25.08C64.4887 25.46 64.1487 25.94 63.8287 26.14C63.0287 26 62.5287 25.54 62.2487 24.9C61.5687 25.68 60.5487 26.26 59.3487 26.26C57.0687 26.26 55.9087 24.18 55.9087 21.18ZM59.8287 24.54C60.5287 24.54 61.3887 24.16 62.0087 23.28V18.32C61.3887 17.92 60.7087 17.6 60.0287 17.6C58.9087 17.6 58.0087 18.76 58.0087 21.2C58.0087 23.58 58.8687 24.54 59.8287 24.54ZM79.2287 17.06C79.2687 15.54 78.6087 13.8 76.4487 13.8C74.3487 13.8 73.2487 15.7 73.2487 19.24C73.2487 22.54 74.4887 24.4 76.5687 24.4C77.8087 24.4 78.9887 23.84 80.1487 22.88C80.6087 23.18 81.0687 23.76 81.2087 24.26C80.1087 25.36 78.2687 26.26 76.2087 26.26C72.3887 26.26 71.0087 22.78 71.0087 19.24C71.0087 14.26 73.5487 12.08 76.4887 12.08C79.4687 12.08 81.3087 13.96 81.3087 15.98C81.3087 16.7 80.9687 17.18 80.1087 17.18C79.7887 17.18 79.5687 17.14 79.2287 17.06ZM91.2018 25.08C91.0818 25.46 90.7618 25.94 90.4218 26.14C89.6018 25.98 89.0818 25.52 88.8218 24.9C88.1018 25.6 87.0818 26.26 85.8018 26.26C83.8018 26.26 82.8418 24.74 82.8418 23.32C82.8418 21.04 84.5018 20 86.6818 20C87.2218 20 87.9418 20.04 88.6018 20.14V19.36C88.6018 18.1 88.0018 17.58 86.9618 17.58C85.9618 17.58 84.8618 17.94 83.8218 18.34C83.4818 18.02 83.2418 17.36 83.2218 16.84C84.3418 16.34 86.0218 15.92 87.3618 15.92C89.3418 15.92 90.6418 16.98 90.6418 19.26V23.36C90.6418 24.12 90.7418 24.68 91.2018 25.08ZM86.2418 24.62C87.0018 24.62 87.8818 24.22 88.6018 23.42V21.52C88.0018 21.46 87.3618 21.44 86.8018 21.44C85.6018 21.44 84.9018 22.08 84.9018 23.16C84.9018 23.98 85.3818 24.62 86.2418 24.62ZM93.1185 17.08C93.2185 16.7 93.5385 16.2 93.8785 15.98C94.8185 16.18 95.4185 16.82 95.6985 17.76C96.1585 16.74 96.9785 15.98 98.3185 15.98C98.6785 15.98 98.9985 16.02 99.3785 16.1C99.3785 16.66 99.2385 17.48 98.8785 18.06C98.6185 17.98 98.3385 17.98 98.0585 17.96C96.9785 17.96 96.3385 18.66 95.9185 19.48V26C95.6385 26.06 95.2585 26.08 94.8985 26.08C94.5185 26.08 94.1385 26.06 93.8585 26V19.14C93.8585 18.08 93.4585 17.4 93.1185 17.08ZM100.186 21.18C100.186 17.62 102.106 15.96 104.026 15.96C104.846 15.96 105.606 16.24 106.286 16.62V11.42L106.426 11.3H107.206C108.066 11.3 108.306 11.7 108.306 12.62V23.18C108.306 23.96 108.446 24.7 108.866 25.08C108.766 25.46 108.426 25.94 108.106 26.14C107.306 26 106.806 25.54 106.526 24.9C105.846 25.68 104.826 26.26 103.626 26.26C101.346 26.26 100.186 24.18 100.186 21.18ZM104.106 24.54C104.806 24.54 105.666 24.16 106.286 23.28V18.32C105.666 17.92 104.986 17.6 104.306 17.6C103.186 17.6 102.286 18.76 102.286 21.2C102.286 23.58 103.146 24.54 104.106 24.54Z" fill="#485465"/>
</svg>
