<svg width="14" height="14" viewBox="0 0 14 14" fill="none" xmlns="http://www.w3.org/2000/svg">
<path fill-rule="evenodd" clip-rule="evenodd" d="M10.75 4.75005L13.8536 1.64649C14.0488 1.45124 14.0488 1.13465 13.8536 0.939397L13.0607 0.146491C12.8654 -0.0487591 12.5488 -0.0487591 12.3536 0.146491L9.25 3.25005L8.27881 2.21971C7.80634 1.74724 7 2.08187 7 2.75005V6.25005C7 6.66427 7.33428 7.00005 7.7485 7.00005H11.2485C11.9167 7.00005 12.2513 6.19221 11.7788 5.71971L10.75 4.75005ZM3.25 9.25005L0.146437 12.3536C-0.0488125 12.5489 -0.0488125 12.8655 0.146437 13.0607L0.939344 13.8536C1.13459 14.0489 1.45119 14.0489 1.64644 13.8536L4.75 10.7501L5.72119 11.7804C6.19366 12.2529 7 11.9182 7 11.2501V7.75005C7 7.33583 6.66572 7.00005 6.2515 7.00005H2.7515C2.08331 7.00005 1.74869 7.8079 2.22119 8.2804L3.25 9.25005Z" fill="#004A2A"/>
</svg>
