<svg width="32" height="32" viewBox="0 0 32 32" fill="none" xmlns="http://www.w3.org/2000/svg">
<path d="M0.5 8.00006C0.5 3.85793 3.85786 0.500061 8 0.500061H24C28.1421 0.500061 31.5 3.85793 31.5 8.00006V24.0001C31.5 28.1422 28.1421 31.5001 24 31.5001H8C3.85786 31.5001 0.5 28.1422 0.5 24.0001V8.00006Z" fill="white"/>
<path d="M0.5 8.00006C0.5 3.85793 3.85786 0.500061 8 0.500061H24C28.1421 0.500061 31.5 3.85793 31.5 8.00006V24.0001C31.5 28.1422 28.1421 31.5001 24 31.5001H8C3.85786 31.5001 0.5 28.1422 0.5 24.0001V8.00006Z" stroke="#B6BBC1"/>
<path fill-rule="evenodd" clip-rule="evenodd" d="M18.3091 9.87507H21.5903C21.832 9.87507 22.0278 10.0709 22.0278 10.3126V11.1876C22.0278 11.4292 21.832 11.6251 21.5903 11.6251H10.2153C9.97371 11.6251 9.77783 11.4292 9.77783 11.1876V10.3126C9.77783 10.0709 9.97371 9.87507 10.2153 9.87507H13.4966L13.7536 9.36374C13.8628 9.14038 14.0901 8.99911 14.3388 9.00007H17.4642C17.7133 8.99989 17.941 9.14076 18.0521 9.36374L18.3091 9.87507ZM12.5423 23.0001C11.8493 23 11.2758 22.4612 11.2325 21.7696L10.6528 12.5001H21.1528L20.5731 21.7696C20.5298 22.4612 19.9563 23 19.2634 23.0001H12.5423Z" fill="#485465"/>
</svg>
