<svg width="18" height="18" viewBox="0 0 18 18" fill="none" xmlns="http://www.w3.org/2000/svg">
<path fill-rule="evenodd" clip-rule="evenodd" d="M10.4062 0H7.59375C7.12617 0 6.75 0.376172 6.75 0.84375V6.75H3.66328C3.0375 6.75 2.72461 7.50586 3.16758 7.94883L8.52188 13.2996C8.78555 13.5633 9.21797 13.5633 9.48164 13.2996L14.8289 7.94883C15.2719 7.50586 14.959 6.75 14.3332 6.75H11.25V0.84375C11.25 0.376172 10.8738 0 10.4062 0ZM18 17.1562V13.2188C18 12.7512 17.6238 12.375 17.1562 12.375H11.9988L10.2762 14.0977C9.56953 14.8043 8.43047 14.8043 7.72383 14.0977L6.00117 12.375H0.84375C0.376172 12.375 0 12.7512 0 13.2188V17.1562C0 17.6238 0.376172 18 0.84375 18H17.1562C17.6238 18 18 17.6238 18 17.1562ZM13.6406 16.3125C13.6406 15.9258 13.3242 15.6094 12.9375 15.6094C12.5508 15.6094 12.2344 15.9258 12.2344 16.3125C12.2344 16.6992 12.5508 17.0156 12.9375 17.0156C13.3242 17.0156 13.6406 16.6992 13.6406 16.3125ZM15.1875 15.6094C15.5742 15.6094 15.8906 15.9258 15.8906 16.3125C15.8906 16.6992 15.5742 17.0156 15.1875 17.0156C14.8008 17.0156 14.4844 16.6992 14.4844 16.3125C14.4844 15.9258 14.8008 15.6094 15.1875 15.6094Z" fill="#485465"/>
</svg>
