<svg width="13" height="18" viewBox="0 0 13 18" fill="none" xmlns="http://www.w3.org/2000/svg">
<path fill-rule="evenodd" clip-rule="evenodd" d="M0 6.17541C0 7.73225 0.577193 9.1526 1.52842 10.2379C2.10807 10.8993 3.01474 12.281 3.36035 13.4466L3.36228 13.4603L3.36421 13.474H8.98667L8.98875 13.4593L8.99053 13.4466C9.33614 12.281 10.2428 10.8993 10.8225 10.2379C11.7737 9.1526 12.3509 7.73225 12.3509 6.17541C12.3509 2.75821 9.57579 -0.0105574 6.15614 -3.11201e-05C2.57684 0.0108461 0 2.9112 0 6.17541ZM3.37053 15.9421C3.37088 16.1628 3.43614 16.3789 3.5586 16.5628L4.15825 17.4642C4.3663 17.7771 4.71717 17.9652 5.09298 17.9652H7.25825C7.63406 17.9652 7.98493 17.7771 8.19298 17.4642L8.79263 16.5628C8.91504 16.3789 8.98046 16.163 8.9807 15.9421L8.98211 14.5965H3.36877L3.37053 15.9421ZM3.36842 6.17541C3.36842 4.62769 4.62772 3.36839 6.17544 3.36839C6.48561 3.36839 6.73684 3.11716 6.73684 2.80699C6.73684 2.49681 6.48561 2.24558 6.17544 2.24558C4.00842 2.24558 2.24561 4.00839 2.24561 6.17541C2.24561 6.48558 2.49684 6.73681 2.80702 6.73681C3.11719 6.73681 3.36842 6.48558 3.36842 6.17541Z" fill="#997E19"/>
</svg>
