<svg width="32" height="32" viewBox="0 0 32 32" fill="none" xmlns="http://www.w3.org/2000/svg">
<path d="M0 8.00005C0 3.58178 3.58172 5.34058e-05 8 5.34058e-05H24C28.4183 5.34058e-05 32 3.58178 32 8.00005V24.0001C32 28.4183 28.4183 32.0001 24 32.0001H8C3.58172 32.0001 0 28.4183 0 24.0001V8.00005Z" fill="#B2EAD2"/>
<path fill-rule="evenodd" clip-rule="evenodd" d="M9.5 12.0278H22.5C22.7762 12.0278 23 11.804 23 11.5278V10.2778C23 10.0017 22.7762 9.77783 22.5 9.77783H9.5C9.22384 9.77783 9 10.0017 9 10.2778V11.5278C9 11.804 9.22384 12.0278 9.5 12.0278ZM9.5 17.0278H22.5C22.7762 17.0278 23 16.804 23 16.5278V15.2778C23 15.0017 22.7762 14.7778 22.5 14.7778H9.5C9.22384 14.7778 9 15.0017 9 15.2778V16.5278C9 16.804 9.22384 17.0278 9.5 17.0278ZM22.5 22.0278H9.5C9.22384 22.0278 9 21.804 9 21.5278V20.2778C9 20.0017 9.22384 19.7778 9.5 19.7778H22.5C22.7762 19.7778 23 20.0017 23 20.2778V21.5278C23 21.804 22.7762 22.0278 22.5 22.0278Z" fill="#004A2A"/>
</svg>
