<svg width="18" height="18" viewBox="0 0 18 18" fill="none" xmlns="http://www.w3.org/2000/svg">
<path d="M4.25 0C3.00898 0 2 1.00898 2 2.25V15.75C2 16.991 3.00898 18 4.25 18H13.25C14.491 18 15.5 16.991 15.5 15.75V5.625H11C10.3777 5.625 9.875 5.12227 9.875 4.5V0H4.25ZM11 0V4.5H15.5L11 0ZM5.9375 9H11.5625C11.8719 9 12.125 9.25313 12.125 9.5625C12.125 9.87187 11.8719 10.125 11.5625 10.125H5.9375C5.62812 10.125 5.375 9.87187 5.375 9.5625C5.375 9.25313 5.62812 9 5.9375 9ZM5.9375 11.25H11.5625C11.8719 11.25 12.125 11.5031 12.125 11.8125C12.125 12.1219 11.8719 12.375 11.5625 12.375H5.9375C5.62812 12.375 5.375 12.1219 5.375 11.8125C5.375 11.5031 5.62812 11.25 5.9375 11.25ZM5.9375 13.5H11.5625C11.8719 13.5 12.125 13.7531 12.125 14.0625C12.125 14.3719 11.8719 14.625 11.5625 14.625H5.9375C5.62812 14.625 5.375 14.3719 5.375 14.0625C5.375 13.7531 5.62812 13.5 5.9375 13.5Z" fill="#485465"/>
</svg>
