<svg width="88" height="40" viewBox="0 0 88 40" fill="none" xmlns="http://www.w3.org/2000/svg">
<path d="M0.5 8C0.5 3.85786 3.85786 0.5 8 0.5H80C84.1421 0.5 87.5 3.85786 87.5 8V32C87.5 36.1421 84.1421 39.5 80 39.5H8C3.85786 39.5 0.5 36.1421 0.5 32V8Z" fill="white"/>
<path d="M0.5 8C0.5 3.85786 3.85786 0.5 8 0.5H80C84.1421 0.5 87.5 3.85786 87.5 8V32C87.5 36.1421 84.1421 39.5 80 39.5H8C3.85786 39.5 0.5 36.1421 0.5 32V8Z" stroke="#B6BBC1"/>
<path fill-rule="evenodd" clip-rule="evenodd" d="M23.4979 15.4979L20.5021 12.5021C20.1806 12.1806 19.7446 12 19.2899 12H9.71429C8.7675 12 8 12.7675 8 13.7143V26.2857C8 27.2325 8.7675 28 9.71429 28H22.2857C23.2325 28 24 27.2325 24 26.2857V16.7101C24 16.2554 23.8194 15.8194 23.4979 15.4979ZM16 25.7143C14.7376 25.7143 13.7143 24.6909 13.7143 23.4286C13.7143 22.1662 14.7376 21.1429 16 21.1429C17.2624 21.1429 18.2857 22.1662 18.2857 23.4286C18.2857 24.6909 17.2624 25.7143 16 25.7143ZM19.4286 18.4286V14.8386C19.4286 14.7249 19.3834 14.6159 19.303 14.5355L19.1788 14.4112C19.0984 14.3309 18.9894 14.2857 18.8757 14.2857H10.7143C10.4776 14.2857 10.2857 14.4776 10.2857 14.7143V18.4286C10.2857 18.6653 10.4776 18.8571 10.7143 18.8571H19C19.2367 18.8571 19.4286 18.6653 19.4286 18.4286Z" fill="#485465"/>
<path d="M32.6 24.76C32.66 24.14 33.06 23.48 33.5 23.12C34.66 23.88 36.14 24.48 37.52 24.48C39.14 24.48 40.06 23.7 40.08 22.6C40.08 21.66 39.42 20.94 38.26 20.44L35.9 19.42C34.22 18.7 33.16 17.66 33.16 15.96C33.16 13.78 35 12.08 37.68 12.08C39.34 12.08 40.88 12.6 41.92 13.12C41.9 13.72 41.58 14.38 41.14 14.78C40.1 14.26 38.74 13.84 37.72 13.84C36.24 13.84 35.32 14.66 35.32 15.72C35.32 16.6 36 17.1 36.98 17.52L39.3 18.52C41.02 19.24 42.3 20.46 42.3 22.24C42.3 24.54 40.7 26.26 37.4 26.26C35.74 26.26 33.94 25.7 32.6 24.76ZM52.3333 25.08C52.2133 25.46 51.8933 25.94 51.5533 26.14C50.7333 25.98 50.2133 25.52 49.9533 24.9C49.2333 25.6 48.2133 26.26 46.9333 26.26C44.9333 26.26 43.9733 24.74 43.9733 23.32C43.9733 21.04 45.6333 20 47.8133 20C48.3533 20 49.0733 20.04 49.7333 20.14V19.36C49.7333 18.1 49.1333 17.58 48.0933 17.58C47.0933 17.58 45.9933 17.94 44.9533 18.34C44.6133 18.02 44.3733 17.36 44.3533 16.84C45.4733 16.34 47.1533 15.92 48.4933 15.92C50.4733 15.92 51.7733 16.98 51.7733 19.26V23.36C51.7733 24.12 51.8733 24.68 52.3333 25.08ZM47.3733 24.62C48.1333 24.62 49.0133 24.22 49.7333 23.42V21.52C49.1333 21.46 48.4933 21.44 47.9333 21.44C46.7333 21.44 46.0333 22.08 46.0333 23.16C46.0333 23.98 46.5133 24.62 47.3733 24.62ZM57.677 24.32L60.037 16.12C60.317 16.06 60.577 16.04 60.817 16.04C61.177 16.04 61.537 16.08 61.857 16.2L61.917 16.28C60.997 19.36 59.577 23.8 58.837 26C58.377 26.08 57.837 26.1 57.337 26.1C56.517 26.1 56.157 25.94 55.837 24.96L53.077 16.28C53.517 16.08 53.917 15.98 54.257 15.98C54.837 15.98 55.217 16.2 55.377 16.86L56.717 21.26C57.037 22.26 57.357 23.56 57.497 24.16C57.537 24.32 57.557 24.32 57.677 24.32ZM70.6456 21.72H64.7656C64.8456 23.38 65.3856 24.58 67.0856 24.58C68.0856 24.58 69.0256 24.26 69.8656 23.82C70.2056 24.14 70.4456 24.72 70.5256 25.14C69.5656 25.82 68.1656 26.26 66.7656 26.26C63.6056 26.26 62.6456 23.78 62.6456 21.08C62.6456 18.1 64.0456 15.86 66.8256 15.86C69.4056 15.86 70.7856 17.76 70.7856 20.14C70.7856 20.78 70.7456 21.16 70.6456 21.72ZM66.8056 17.4C65.5256 17.4 64.8656 18.46 64.7656 20.22H68.8056V19.96C68.8056 18.56 68.2456 17.4 66.8056 17.4Z" fill="#485465"/>
</svg>
