<svg width="32" height="32" viewBox="0 0 32 32" fill="none" xmlns="http://www.w3.org/2000/svg">
<path d="M0.5 8C0.5 3.85786 3.85786 0.5 8 0.5H24C28.1421 0.5 31.5 3.85786 31.5 8V24C31.5 28.1421 28.1421 31.5 24 31.5H8C3.85786 31.5 0.5 28.1421 0.5 24V8Z" fill="white"/>
<path d="M0.5 8C0.5 3.85786 3.85786 0.5 8 0.5H24C28.1421 0.5 31.5 3.85786 31.5 8V24C31.5 28.1421 28.1421 31.5 24 31.5H8C3.85786 31.5 0.5 28.1421 0.5 24V8Z" stroke="#B6BBC1"/>
<g clip-path="url(#clip0_9190_47552)">
<path d="M22.6804 21.1321L19.4073 17.859C20.1516 16.7541 20.5189 15.3735 20.3223 13.9024C19.9879 11.3991 17.9357 9.36335 15.4305 9.04616C11.7062 8.57476 8.57539 11.7062 9.04843 15.4282C9.36562 17.934 11.4019 19.9864 13.9047 20.32C15.3761 20.5166 16.7566 20.1495 17.8613 19.4051L21.1344 22.6781C21.5615 23.1052 22.2541 23.1052 22.6812 22.6781C23.107 22.2532 23.107 21.5587 22.6804 21.1321ZM16.8753 15.3434H15.3195V16.8747C15.3195 17.2373 15.0258 17.5309 14.6878 17.5309C14.3241 17.5309 14.0316 17.2383 14.0316 16.8747V15.3434H12.4757C12.1366 15.3434 11.8441 15.0508 11.8441 14.6872C11.8441 14.3235 12.1377 14.0309 12.4757 14.0309H14.0316V12.4997C14.0316 12.1371 14.3252 11.8434 14.6632 11.8434C15.0012 11.8434 15.3195 12.136 15.3195 12.4997V14.0309H16.8507C17.239 14.0309 17.5316 14.3235 17.5316 14.6872C17.5316 15.0508 17.239 15.3434 16.8753 15.3434Z" fill="#485465"/>
</g>
<defs>
<clipPath id="clip0_9190_47552">
<rect width="14" height="14" fill="white" transform="translate(9 9)"/>
</clipPath>
</defs>
</svg>
