<svg width="18" height="15" viewBox="0 0 18 15" fill="none" xmlns="http://www.w3.org/2000/svg">
<path fill-rule="evenodd" clip-rule="evenodd" d="M12.768 0.324582C12.9858 -0.00783739 13.4317 -0.0996314 13.7635 0.118119C16.1376 1.67654 17.5556 4.29786 17.5556 7.12981C17.5556 9.96176 16.1376 12.5834 13.7635 14.1418C13.4195 14.3679 12.9771 14.2535 12.768 13.9353C12.55 13.6038 12.6426 13.1576 12.9745 12.9402C14.9431 11.6482 16.118 9.47635 16.118 7.13011C16.118 4.78387 14.9431 2.612 12.9745 1.32006C12.6426 1.10231 12.55 0.656406 12.768 0.324582ZM4.18928 4.27796L6.83229 1.63554C7.27819 1.18964 8.04938 1.50216 8.04938 2.13967V12.12C8.04938 12.7569 7.27879 13.0706 6.83229 12.6241L4.18928 9.98167H1.15741C0.763494 9.98167 0.444443 9.66232 0.444443 9.2687V4.99092C0.444443 4.59701 0.763494 4.27796 1.15741 4.27796H4.18928ZM14.7037 7.12981C14.7037 5.24254 13.7513 3.50737 12.1558 2.48842C11.8233 2.27632 11.3825 2.37494 11.1719 2.71004C10.9612 3.04513 11.0596 3.48865 11.392 3.70106C12.5728 4.45531 13.2778 5.73686 13.2778 7.12981C13.2778 8.52276 12.5728 9.80432 11.392 10.5586C11.0596 10.7707 10.9612 11.2142 11.1719 11.5496C11.3653 11.8574 11.7993 11.9993 12.1558 11.7712C13.7513 10.7523 14.7037 9.01738 14.7037 7.12981ZM9.52343 5.12698C9.71415 4.78209 10.1482 4.65821 10.4922 4.84625C11.3311 5.3079 11.8521 6.18246 11.8521 7.12952C11.8521 8.07657 11.3311 8.95143 10.4925 9.41337C10.1491 9.60201 9.71474 9.47902 9.52373 9.13264C9.3339 8.78775 9.45956 8.35433 9.80446 8.16391C10.1877 7.95328 10.4259 7.557 10.4259 7.12981C10.4259 6.70293 10.1877 6.30634 9.80416 6.09572C9.45927 5.9053 9.33361 5.47188 9.52343 5.12698Z" fill="#485465"/>
</svg>
