<svg width="14" height="14" viewBox="0 0 14 14" fill="none" xmlns="http://www.w3.org/2000/svg">
<path d="M9.65364 7L13.6337 3.01994C14.1221 2.53153 14.1221 1.73966 13.6337 1.25085L12.7491 0.366307C12.2607 -0.122102 11.4689 -0.122102 10.9801 0.366307L7 4.34636L3.01994 0.366307C2.53153 -0.122102 1.73966 -0.122102 1.25085 0.366307L0.366307 1.25085C-0.122102 1.73926 -0.122102 2.53114 0.366307 3.01994L4.34636 7L0.366307 10.9801C-0.122102 11.4685 -0.122102 12.2603 0.366307 12.7491L1.25085 13.6337C1.73926 14.1221 2.53153 14.1221 3.01994 13.6337L7 9.65364L10.9801 13.6337C11.4685 14.1221 12.2607 14.1221 12.7491 13.6337L13.6337 12.7491C14.1221 12.2607 14.1221 11.4689 13.6337 10.9801L9.65364 7Z" fill="#FF6D6D"/>
</svg>
